M48
;GenerationSoftware,Autodesk,EAGLE,9.6.2*%
;CreationDate,2022-06-16T18:09:27Z*%
FMAT,2
ICI,OFF
METRIC,TZ,000.000
T4C0.350
T3C0.900
T2C1.000
T1C1.016
%
G90
M71
T1
X13850Y9220
X13850Y6680
X13850Y4140
X13850Y1600
X11150Y9220
X11150Y6680
X11150Y4140
X11150Y1600
X8590Y9220
X4283Y70706
X7077Y70706
X19454Y39987
X6304Y39937
X6304Y58287
X19554Y58237
X22350Y17450
X22350Y19990
X24900Y12150
X24900Y14690
X24900Y17500
X24900Y20040
X8590Y6680
X8590Y4140
X8590Y1600
X6050Y9220
X6050Y6680
X6050Y4140
X6050Y1600
X1500Y19780
X1500Y17240
X1500Y14700
X1500Y12160
X1500Y9620
X1500Y7080
X1500Y4540
X1500Y2000
X25020Y9170
X25020Y6630
X25020Y4090
X25020Y1550
X22480Y9170
X22480Y6630
X22480Y4090
X22480Y1550
X19940Y9170
X19940Y6630
X19940Y4090
X19940Y1550
X17400Y9170
X17400Y6630
X17400Y4090
X17400Y1550
X19600Y12160
X19600Y14700
X22250Y12160
X22250Y14700
X16670Y22750
X14130Y22750
X11590Y22750
X17250Y17450
X17250Y19990
X19800Y17450
X19800Y19990
X9050Y22750
T2
X1720Y71300
X1720Y68760
X1720Y66220
X1720Y63680
X1720Y61140
X1720Y58600
X1720Y56060
X1720Y53520
X1720Y50980
X1720Y48440
X1720Y45900
X1720Y43360
X1720Y40820
X1720Y38280
X1720Y35740
X1720Y33200
X1720Y30660
X1720Y28120
X1720Y25580
X24370Y71300
X24370Y68760
X24370Y66220
X24370Y63680
X24370Y61140
X24370Y58600
X24370Y56060
X24370Y53520
X24370Y50980
X24370Y48440
X24370Y45900
X24370Y43360
X24370Y40820
X24370Y38280
X24370Y35740
X24370Y33200
X24370Y30660
X24370Y28120
X24370Y25580
X19650Y52400
X19650Y54350
T3
X20150Y70900
X17150Y70900
T4
X19200Y66800
X17300Y55700
X21794Y21800
X21982Y24618
X22350Y27150
M30