G04 EAGLE Gerber RS-274X export*
G75*
%MOMM*%
%FSLAX34Y34*%
%LPD*%
%INBottom Copper*%
%IPPOS*%
%AMOC8*
5,1,8,0,0,1.08239X$1,22.5*%
G01*
%ADD10C,1.524000*%
%ADD11C,1.879600*%
%ADD12R,1.600000X1.800000*%
%ADD13C,1.930400*%
%ADD14R,1.879600X1.879600*%
%ADD15C,0.654800*%
%ADD16C,0.254000*%
%ADD17C,0.152400*%
%ADD18C,0.200000*%

G36*
X258559Y209082D02*
X258559Y209082D01*
X258697Y209090D01*
X258716Y209097D01*
X258736Y209098D01*
X258868Y209146D01*
X258999Y209188D01*
X259017Y209199D01*
X259036Y209206D01*
X259151Y209284D01*
X259268Y209359D01*
X259282Y209373D01*
X259299Y209385D01*
X259391Y209489D01*
X259486Y209590D01*
X259496Y209608D01*
X259509Y209623D01*
X259573Y209747D01*
X259640Y209869D01*
X259645Y209888D01*
X259654Y209906D01*
X259684Y210042D01*
X259719Y210177D01*
X259721Y210205D01*
X259724Y210217D01*
X259723Y210237D01*
X259729Y210337D01*
X259729Y723460D01*
X259714Y723578D01*
X259707Y723697D01*
X259694Y723735D01*
X259689Y723776D01*
X259646Y723886D01*
X259609Y723999D01*
X259587Y724034D01*
X259572Y724071D01*
X259503Y724167D01*
X259439Y724268D01*
X259409Y724296D01*
X259386Y724329D01*
X259294Y724405D01*
X259207Y724486D01*
X259172Y724506D01*
X259141Y724531D01*
X259033Y724582D01*
X258929Y724640D01*
X258889Y724650D01*
X258853Y724667D01*
X258736Y724689D01*
X258621Y724719D01*
X258561Y724723D01*
X258541Y724727D01*
X258520Y724725D01*
X258460Y724729D01*
X252996Y724729D01*
X252859Y724712D01*
X252720Y724699D01*
X252701Y724692D01*
X252681Y724689D01*
X252552Y724638D01*
X252421Y724591D01*
X252404Y724580D01*
X252385Y724572D01*
X252273Y724491D01*
X252158Y724413D01*
X252144Y724397D01*
X252128Y724386D01*
X252039Y724278D01*
X251947Y724174D01*
X251938Y724156D01*
X251925Y724141D01*
X251866Y724015D01*
X251803Y723891D01*
X251798Y723871D01*
X251790Y723853D01*
X251763Y723717D01*
X251733Y723581D01*
X251734Y723560D01*
X251730Y723541D01*
X251738Y723402D01*
X251743Y723263D01*
X251748Y723243D01*
X251750Y723223D01*
X251792Y723091D01*
X251831Y722957D01*
X251841Y722940D01*
X251848Y722921D01*
X251922Y722803D01*
X251993Y722683D01*
X252011Y722662D01*
X252018Y722652D01*
X252033Y722638D01*
X252099Y722563D01*
X254467Y720194D01*
X256401Y715526D01*
X256401Y710474D01*
X254467Y705806D01*
X250894Y702233D01*
X249059Y701473D01*
X248938Y701404D01*
X248815Y701339D01*
X248800Y701325D01*
X248783Y701315D01*
X248683Y701218D01*
X248580Y701125D01*
X248569Y701108D01*
X248554Y701094D01*
X248481Y700975D01*
X248405Y700859D01*
X248399Y700840D01*
X248388Y700823D01*
X248347Y700690D01*
X248302Y700558D01*
X248300Y700538D01*
X248295Y700519D01*
X248288Y700380D01*
X248277Y700241D01*
X248280Y700221D01*
X248279Y700201D01*
X248308Y700064D01*
X248331Y699928D01*
X248340Y699909D01*
X248344Y699890D01*
X248405Y699764D01*
X248462Y699638D01*
X248474Y699622D01*
X248483Y699604D01*
X248573Y699498D01*
X248660Y699390D01*
X248677Y699377D01*
X248690Y699362D01*
X248803Y699282D01*
X248915Y699198D01*
X248940Y699186D01*
X248950Y699179D01*
X248969Y699172D01*
X249059Y699127D01*
X250894Y698367D01*
X254467Y694794D01*
X256401Y690126D01*
X256401Y685074D01*
X254467Y680406D01*
X250894Y676833D01*
X249059Y676073D01*
X248938Y676004D01*
X248815Y675939D01*
X248800Y675925D01*
X248783Y675915D01*
X248683Y675818D01*
X248580Y675725D01*
X248569Y675708D01*
X248554Y675694D01*
X248481Y675575D01*
X248405Y675459D01*
X248399Y675440D01*
X248388Y675423D01*
X248347Y675290D01*
X248302Y675158D01*
X248300Y675138D01*
X248295Y675119D01*
X248288Y674980D01*
X248277Y674841D01*
X248280Y674821D01*
X248279Y674801D01*
X248307Y674665D01*
X248331Y674528D01*
X248340Y674509D01*
X248344Y674490D01*
X248405Y674364D01*
X248462Y674238D01*
X248474Y674222D01*
X248483Y674204D01*
X248573Y674098D01*
X248660Y673990D01*
X248677Y673977D01*
X248690Y673962D01*
X248803Y673882D01*
X248915Y673798D01*
X248940Y673786D01*
X248950Y673779D01*
X248969Y673772D01*
X249059Y673727D01*
X250894Y672967D01*
X254467Y669394D01*
X256401Y664726D01*
X256401Y659674D01*
X254467Y655006D01*
X250894Y651433D01*
X249059Y650673D01*
X248938Y650604D01*
X248815Y650539D01*
X248800Y650525D01*
X248783Y650515D01*
X248683Y650418D01*
X248580Y650325D01*
X248569Y650308D01*
X248554Y650294D01*
X248481Y650175D01*
X248405Y650059D01*
X248399Y650040D01*
X248388Y650023D01*
X248347Y649890D01*
X248302Y649758D01*
X248300Y649738D01*
X248295Y649719D01*
X248288Y649580D01*
X248277Y649441D01*
X248280Y649421D01*
X248279Y649401D01*
X248307Y649265D01*
X248331Y649128D01*
X248340Y649109D01*
X248344Y649090D01*
X248405Y648964D01*
X248462Y648838D01*
X248474Y648822D01*
X248483Y648804D01*
X248573Y648698D01*
X248660Y648590D01*
X248677Y648577D01*
X248690Y648562D01*
X248803Y648482D01*
X248915Y648398D01*
X248940Y648386D01*
X248950Y648379D01*
X248969Y648372D01*
X249059Y648327D01*
X250894Y647567D01*
X254467Y643994D01*
X256401Y639326D01*
X256401Y634274D01*
X254467Y629606D01*
X250894Y626033D01*
X249059Y625273D01*
X248938Y625204D01*
X248815Y625139D01*
X248800Y625125D01*
X248783Y625115D01*
X248683Y625018D01*
X248580Y624925D01*
X248569Y624908D01*
X248554Y624894D01*
X248481Y624775D01*
X248405Y624659D01*
X248399Y624640D01*
X248388Y624623D01*
X248347Y624490D01*
X248302Y624358D01*
X248300Y624338D01*
X248295Y624319D01*
X248288Y624180D01*
X248277Y624041D01*
X248280Y624021D01*
X248279Y624001D01*
X248307Y623865D01*
X248331Y623728D01*
X248340Y623709D01*
X248344Y623690D01*
X248405Y623564D01*
X248462Y623438D01*
X248474Y623422D01*
X248483Y623404D01*
X248573Y623298D01*
X248660Y623190D01*
X248677Y623177D01*
X248690Y623162D01*
X248803Y623082D01*
X248915Y622998D01*
X248940Y622986D01*
X248950Y622979D01*
X248969Y622972D01*
X249059Y622927D01*
X250894Y622167D01*
X254467Y618594D01*
X256401Y613926D01*
X256401Y608874D01*
X254467Y604206D01*
X250894Y600633D01*
X248443Y599617D01*
X248365Y599573D01*
X248283Y599537D01*
X248227Y599495D01*
X248166Y599460D01*
X248102Y599397D01*
X248031Y599343D01*
X247988Y599287D01*
X247938Y599239D01*
X247891Y599162D01*
X247836Y599091D01*
X247808Y599027D01*
X247772Y598967D01*
X247745Y598882D01*
X247710Y598800D01*
X247699Y598730D01*
X247678Y598663D01*
X247674Y598574D01*
X247660Y598486D01*
X247666Y598416D01*
X247663Y598346D01*
X247681Y598258D01*
X247689Y598169D01*
X247713Y598103D01*
X247727Y598034D01*
X247767Y597954D01*
X247797Y597870D01*
X247836Y597812D01*
X247867Y597749D01*
X247925Y597680D01*
X247975Y597606D01*
X248028Y597560D01*
X248073Y597507D01*
X248147Y597455D01*
X248214Y597396D01*
X248321Y597332D01*
X248333Y597324D01*
X248340Y597321D01*
X248352Y597314D01*
X250090Y596428D01*
X251643Y595300D01*
X253000Y593943D01*
X254128Y592390D01*
X254999Y590680D01*
X255593Y588855D01*
X255649Y588499D01*
X244930Y588499D01*
X244812Y588484D01*
X244693Y588477D01*
X244655Y588464D01*
X244615Y588459D01*
X244504Y588416D01*
X244391Y588379D01*
X244357Y588357D01*
X244319Y588342D01*
X244223Y588273D01*
X244122Y588209D01*
X244094Y588179D01*
X244062Y588156D01*
X243986Y588064D01*
X243904Y587977D01*
X243885Y587942D01*
X243859Y587911D01*
X243808Y587803D01*
X243751Y587699D01*
X243741Y587659D01*
X243723Y587623D01*
X243703Y587516D01*
X243699Y587546D01*
X243655Y587656D01*
X243619Y587769D01*
X243597Y587804D01*
X243582Y587841D01*
X243512Y587937D01*
X243449Y588038D01*
X243419Y588066D01*
X243395Y588099D01*
X243304Y588175D01*
X243217Y588256D01*
X243182Y588276D01*
X243150Y588301D01*
X243043Y588352D01*
X242938Y588410D01*
X242899Y588420D01*
X242863Y588437D01*
X242746Y588459D01*
X242630Y588489D01*
X242570Y588493D01*
X242550Y588497D01*
X242530Y588495D01*
X242470Y588499D01*
X231751Y588499D01*
X231807Y588855D01*
X232401Y590680D01*
X233272Y592390D01*
X234400Y593943D01*
X235757Y595300D01*
X237310Y596428D01*
X239048Y597314D01*
X239122Y597364D01*
X239201Y597406D01*
X239253Y597453D01*
X239311Y597493D01*
X239370Y597560D01*
X239436Y597620D01*
X239475Y597679D01*
X239521Y597731D01*
X239562Y597811D01*
X239611Y597886D01*
X239634Y597952D01*
X239666Y598014D01*
X239685Y598102D01*
X239714Y598186D01*
X239720Y598256D01*
X239735Y598325D01*
X239732Y598414D01*
X239739Y598503D01*
X239727Y598573D01*
X239725Y598643D01*
X239700Y598728D01*
X239685Y598817D01*
X239656Y598881D01*
X239637Y598948D01*
X239591Y599025D01*
X239554Y599107D01*
X239511Y599161D01*
X239475Y599222D01*
X239412Y599285D01*
X239356Y599355D01*
X239300Y599397D01*
X239250Y599447D01*
X239173Y599493D01*
X239102Y599546D01*
X238990Y599601D01*
X238977Y599609D01*
X238970Y599611D01*
X238957Y599617D01*
X236506Y600633D01*
X232933Y604206D01*
X230999Y608874D01*
X230999Y613926D01*
X232933Y618594D01*
X236506Y622167D01*
X238341Y622927D01*
X238461Y622996D01*
X238585Y623061D01*
X238600Y623075D01*
X238617Y623085D01*
X238717Y623182D01*
X238820Y623275D01*
X238831Y623292D01*
X238846Y623306D01*
X238918Y623424D01*
X238995Y623541D01*
X239001Y623560D01*
X239012Y623577D01*
X239053Y623710D01*
X239098Y623842D01*
X239100Y623862D01*
X239105Y623881D01*
X239112Y624020D01*
X239123Y624159D01*
X239120Y624179D01*
X239121Y624199D01*
X239093Y624335D01*
X239069Y624472D01*
X239060Y624491D01*
X239056Y624510D01*
X238995Y624635D01*
X238938Y624762D01*
X238926Y624778D01*
X238917Y624796D01*
X238826Y624902D01*
X238740Y625010D01*
X238723Y625023D01*
X238710Y625038D01*
X238596Y625118D01*
X238485Y625202D01*
X238460Y625214D01*
X238450Y625221D01*
X238431Y625228D01*
X238341Y625273D01*
X236506Y626033D01*
X232933Y629606D01*
X230999Y634274D01*
X230999Y639326D01*
X232933Y643994D01*
X236506Y647567D01*
X238341Y648327D01*
X238461Y648396D01*
X238585Y648461D01*
X238600Y648475D01*
X238617Y648485D01*
X238717Y648582D01*
X238820Y648675D01*
X238831Y648692D01*
X238846Y648706D01*
X238918Y648824D01*
X238995Y648941D01*
X239001Y648960D01*
X239012Y648977D01*
X239053Y649110D01*
X239098Y649242D01*
X239100Y649262D01*
X239105Y649281D01*
X239112Y649420D01*
X239123Y649559D01*
X239120Y649579D01*
X239121Y649599D01*
X239093Y649735D01*
X239069Y649872D01*
X239060Y649891D01*
X239056Y649910D01*
X238995Y650035D01*
X238938Y650162D01*
X238926Y650178D01*
X238917Y650196D01*
X238826Y650302D01*
X238740Y650410D01*
X238723Y650423D01*
X238710Y650438D01*
X238596Y650518D01*
X238485Y650602D01*
X238460Y650614D01*
X238450Y650621D01*
X238431Y650628D01*
X238341Y650673D01*
X236506Y651433D01*
X232933Y655006D01*
X230999Y659674D01*
X230999Y664726D01*
X232933Y669394D01*
X236506Y672967D01*
X238341Y673727D01*
X238461Y673796D01*
X238585Y673861D01*
X238600Y673875D01*
X238617Y673885D01*
X238717Y673982D01*
X238820Y674075D01*
X238831Y674092D01*
X238846Y674106D01*
X238918Y674224D01*
X238995Y674341D01*
X239001Y674360D01*
X239012Y674377D01*
X239053Y674510D01*
X239098Y674642D01*
X239100Y674662D01*
X239105Y674681D01*
X239112Y674820D01*
X239123Y674959D01*
X239120Y674979D01*
X239121Y674999D01*
X239093Y675135D01*
X239069Y675272D01*
X239060Y675291D01*
X239056Y675310D01*
X238995Y675435D01*
X238938Y675562D01*
X238926Y675578D01*
X238917Y675596D01*
X238826Y675702D01*
X238740Y675810D01*
X238723Y675823D01*
X238710Y675838D01*
X238596Y675918D01*
X238485Y676002D01*
X238460Y676014D01*
X238450Y676021D01*
X238431Y676028D01*
X238341Y676073D01*
X236506Y676833D01*
X232933Y680406D01*
X230999Y685074D01*
X230999Y690126D01*
X232933Y694794D01*
X236506Y698367D01*
X238341Y699127D01*
X238461Y699196D01*
X238585Y699261D01*
X238600Y699275D01*
X238617Y699285D01*
X238717Y699382D01*
X238820Y699475D01*
X238831Y699492D01*
X238846Y699506D01*
X238918Y699624D01*
X238995Y699741D01*
X239001Y699760D01*
X239012Y699777D01*
X239053Y699910D01*
X239098Y700042D01*
X239100Y700062D01*
X239105Y700081D01*
X239112Y700220D01*
X239123Y700359D01*
X239120Y700379D01*
X239121Y700399D01*
X239093Y700535D01*
X239069Y700672D01*
X239060Y700691D01*
X239056Y700710D01*
X238995Y700835D01*
X238938Y700962D01*
X238926Y700978D01*
X238917Y700996D01*
X238826Y701102D01*
X238740Y701210D01*
X238723Y701223D01*
X238710Y701238D01*
X238596Y701318D01*
X238485Y701402D01*
X238460Y701414D01*
X238450Y701421D01*
X238431Y701428D01*
X238341Y701473D01*
X236506Y702233D01*
X232933Y705806D01*
X230999Y710474D01*
X230999Y715526D01*
X232933Y720194D01*
X235301Y722563D01*
X235386Y722672D01*
X235475Y722779D01*
X235484Y722798D01*
X235496Y722814D01*
X235551Y722942D01*
X235610Y723067D01*
X235614Y723087D01*
X235622Y723106D01*
X235644Y723244D01*
X235670Y723380D01*
X235669Y723400D01*
X235672Y723420D01*
X235659Y723559D01*
X235650Y723697D01*
X235644Y723716D01*
X235642Y723736D01*
X235595Y723868D01*
X235552Y723999D01*
X235542Y724017D01*
X235535Y724036D01*
X235457Y724151D01*
X235382Y724268D01*
X235367Y724282D01*
X235356Y724299D01*
X235252Y724391D01*
X235151Y724486D01*
X235133Y724496D01*
X235118Y724509D01*
X234994Y724573D01*
X234872Y724640D01*
X234853Y724645D01*
X234834Y724654D01*
X234699Y724684D01*
X234564Y724719D01*
X234536Y724721D01*
X234524Y724724D01*
X234504Y724723D01*
X234404Y724729D01*
X78864Y724729D01*
X78726Y724712D01*
X78587Y724699D01*
X78568Y724692D01*
X78548Y724689D01*
X78419Y724638D01*
X78288Y724591D01*
X78271Y724580D01*
X78252Y724572D01*
X78140Y724491D01*
X78025Y724413D01*
X78011Y724397D01*
X77995Y724386D01*
X77906Y724278D01*
X77814Y724174D01*
X77805Y724156D01*
X77792Y724141D01*
X77733Y724015D01*
X77670Y723891D01*
X77665Y723871D01*
X77657Y723853D01*
X77631Y723717D01*
X77600Y723581D01*
X77601Y723560D01*
X77597Y723541D01*
X77606Y723402D01*
X77610Y723263D01*
X77615Y723243D01*
X77617Y723223D01*
X77659Y723091D01*
X77698Y722957D01*
X77708Y722940D01*
X77715Y722921D01*
X77789Y722803D01*
X77860Y722683D01*
X77878Y722662D01*
X77885Y722652D01*
X77900Y722638D01*
X77966Y722563D01*
X79810Y720719D01*
X81434Y716797D01*
X81434Y703020D01*
X81447Y702922D01*
X81450Y702823D01*
X81467Y702764D01*
X81474Y702704D01*
X81511Y702612D01*
X81538Y702517D01*
X81569Y702465D01*
X81591Y702409D01*
X81649Y702329D01*
X81700Y702243D01*
X81766Y702168D01*
X81778Y702151D01*
X81787Y702143D01*
X81806Y702122D01*
X189670Y594258D01*
X189693Y594240D01*
X189713Y594218D01*
X189819Y594143D01*
X189921Y594063D01*
X189949Y594052D01*
X189973Y594035D01*
X190094Y593989D01*
X190213Y593937D01*
X190242Y593932D01*
X190270Y593922D01*
X190399Y593908D01*
X190527Y593887D01*
X190557Y593890D01*
X190586Y593887D01*
X190715Y593905D01*
X190844Y593917D01*
X190872Y593927D01*
X190901Y593931D01*
X191053Y593983D01*
X193065Y594816D01*
X198017Y594816D01*
X202591Y592921D01*
X206093Y589420D01*
X208066Y584656D01*
X208091Y584613D01*
X208108Y584566D01*
X208169Y584475D01*
X208224Y584379D01*
X208258Y584344D01*
X208286Y584303D01*
X208368Y584230D01*
X208445Y584151D01*
X208487Y584125D01*
X208525Y584092D01*
X208622Y584042D01*
X208716Y583985D01*
X208764Y583970D01*
X208808Y583948D01*
X208915Y583923D01*
X209020Y583891D01*
X209070Y583889D01*
X209118Y583878D01*
X209228Y583881D01*
X209338Y583876D01*
X209386Y583886D01*
X209436Y583888D01*
X209542Y583918D01*
X209649Y583940D01*
X209694Y583962D01*
X209742Y583976D01*
X209836Y584032D01*
X209935Y584080D01*
X209973Y584112D01*
X210015Y584138D01*
X210136Y584244D01*
X216810Y590917D01*
X216870Y590995D01*
X216938Y591068D01*
X216967Y591121D01*
X217004Y591168D01*
X217044Y591259D01*
X217092Y591346D01*
X217107Y591405D01*
X217131Y591460D01*
X217146Y591558D01*
X217171Y591654D01*
X217177Y591754D01*
X217181Y591774D01*
X217179Y591787D01*
X217181Y591815D01*
X217181Y636185D01*
X217169Y636284D01*
X217166Y636383D01*
X217149Y636441D01*
X217141Y636501D01*
X217105Y636593D01*
X217077Y636688D01*
X217047Y636740D01*
X217024Y636797D01*
X216966Y636877D01*
X216916Y636962D01*
X216850Y637037D01*
X216838Y637054D01*
X216828Y637062D01*
X216810Y637083D01*
X192587Y661306D01*
X192509Y661366D01*
X192436Y661434D01*
X192383Y661463D01*
X192336Y661500D01*
X192245Y661540D01*
X192158Y661588D01*
X192099Y661603D01*
X192044Y661627D01*
X191946Y661642D01*
X191850Y661667D01*
X191750Y661673D01*
X191730Y661677D01*
X191717Y661675D01*
X191689Y661677D01*
X190742Y661677D01*
X188418Y662640D01*
X186640Y664418D01*
X185677Y666742D01*
X185677Y669258D01*
X186640Y671582D01*
X188418Y673360D01*
X190742Y674323D01*
X193258Y674323D01*
X195582Y673360D01*
X197360Y671582D01*
X198323Y669258D01*
X198323Y668311D01*
X198335Y668212D01*
X198338Y668113D01*
X198355Y668055D01*
X198363Y667995D01*
X198399Y667903D01*
X198427Y667808D01*
X198457Y667756D01*
X198480Y667699D01*
X198538Y667619D01*
X198588Y667534D01*
X198654Y667459D01*
X198666Y667442D01*
X198676Y667434D01*
X198694Y667413D01*
X225819Y640289D01*
X225819Y587711D01*
X199789Y561681D01*
X179804Y561681D01*
X179755Y561675D01*
X179705Y561677D01*
X179598Y561655D01*
X179489Y561641D01*
X179442Y561623D01*
X179394Y561613D01*
X179295Y561565D01*
X179193Y561524D01*
X179153Y561495D01*
X179108Y561473D01*
X179025Y561402D01*
X178936Y561338D01*
X178904Y561299D01*
X178866Y561267D01*
X178803Y561177D01*
X178733Y561093D01*
X178712Y561048D01*
X178683Y561007D01*
X178644Y560904D01*
X178597Y560805D01*
X178588Y560756D01*
X178570Y560710D01*
X178558Y560600D01*
X178537Y560493D01*
X178541Y560443D01*
X178535Y560394D01*
X178550Y560285D01*
X178557Y560175D01*
X178573Y560128D01*
X178579Y560079D01*
X178632Y559926D01*
X179323Y558258D01*
X179323Y555742D01*
X178360Y553418D01*
X176582Y551640D01*
X174258Y550677D01*
X171742Y550677D01*
X169418Y551640D01*
X167640Y553418D01*
X166677Y555742D01*
X166677Y558258D01*
X167640Y560582D01*
X168310Y561251D01*
X168370Y561329D01*
X168438Y561402D01*
X168467Y561455D01*
X168504Y561502D01*
X168544Y561593D01*
X168592Y561680D01*
X168607Y561739D01*
X168631Y561794D01*
X168646Y561892D01*
X168671Y561988D01*
X168677Y562088D01*
X168681Y562108D01*
X168679Y562121D01*
X168681Y562149D01*
X168681Y567789D01*
X171211Y570319D01*
X186925Y570319D01*
X187063Y570336D01*
X187202Y570349D01*
X187221Y570356D01*
X187241Y570359D01*
X187370Y570410D01*
X187501Y570457D01*
X187518Y570468D01*
X187536Y570476D01*
X187649Y570557D01*
X187764Y570635D01*
X187777Y570651D01*
X187794Y570662D01*
X187883Y570770D01*
X187974Y570874D01*
X187984Y570892D01*
X187997Y570907D01*
X188056Y571033D01*
X188119Y571157D01*
X188123Y571177D01*
X188132Y571195D01*
X188158Y571331D01*
X188189Y571467D01*
X188188Y571488D01*
X188192Y571507D01*
X188183Y571646D01*
X188179Y571785D01*
X188173Y571805D01*
X188172Y571825D01*
X188129Y571956D01*
X188091Y572091D01*
X188080Y572108D01*
X188074Y572127D01*
X187999Y572245D01*
X187929Y572365D01*
X187910Y572386D01*
X187904Y572396D01*
X187889Y572410D01*
X187823Y572485D01*
X184989Y575319D01*
X183094Y579894D01*
X183094Y584845D01*
X183875Y586730D01*
X183883Y586759D01*
X183896Y586785D01*
X183924Y586912D01*
X183959Y587037D01*
X183959Y587067D01*
X183966Y587095D01*
X183962Y587225D01*
X183964Y587355D01*
X183957Y587384D01*
X183956Y587413D01*
X183920Y587538D01*
X183890Y587664D01*
X183876Y587690D01*
X183868Y587719D01*
X183802Y587830D01*
X183741Y587945D01*
X183721Y587967D01*
X183706Y587993D01*
X183600Y588114D01*
X79963Y691750D01*
X79869Y691823D01*
X79780Y691902D01*
X79744Y691920D01*
X79712Y691945D01*
X79602Y691992D01*
X79497Y692046D01*
X79457Y692055D01*
X79420Y692071D01*
X79302Y692090D01*
X79186Y692116D01*
X79146Y692115D01*
X79106Y692121D01*
X78987Y692110D01*
X78868Y692106D01*
X78830Y692095D01*
X78789Y692091D01*
X78677Y692051D01*
X78563Y692018D01*
X78528Y691997D01*
X78490Y691984D01*
X78391Y691917D01*
X78289Y691856D01*
X78244Y691817D01*
X78227Y691805D01*
X78213Y691790D01*
X78168Y691750D01*
X76809Y690391D01*
X72888Y688766D01*
X68643Y688766D01*
X64722Y690391D01*
X61721Y693392D01*
X60097Y697313D01*
X60097Y716797D01*
X61721Y720719D01*
X63565Y722563D01*
X63650Y722672D01*
X63739Y722779D01*
X63748Y722798D01*
X63760Y722814D01*
X63815Y722942D01*
X63875Y723067D01*
X63878Y723087D01*
X63886Y723106D01*
X63908Y723244D01*
X63934Y723380D01*
X63933Y723400D01*
X63936Y723420D01*
X63923Y723559D01*
X63915Y723697D01*
X63908Y723716D01*
X63906Y723736D01*
X63859Y723868D01*
X63817Y723999D01*
X63806Y724017D01*
X63799Y724036D01*
X63721Y724151D01*
X63646Y724268D01*
X63632Y724282D01*
X63620Y724299D01*
X63516Y724391D01*
X63415Y724486D01*
X63397Y724496D01*
X63382Y724509D01*
X63258Y724573D01*
X63136Y724640D01*
X63117Y724645D01*
X63099Y724654D01*
X62963Y724684D01*
X62828Y724719D01*
X62800Y724721D01*
X62788Y724724D01*
X62768Y724723D01*
X62668Y724729D01*
X50180Y724729D01*
X50101Y724719D01*
X50021Y724719D01*
X49944Y724699D01*
X49865Y724689D01*
X49790Y724660D01*
X49713Y724640D01*
X49643Y724602D01*
X49569Y724572D01*
X49504Y724526D01*
X49434Y724487D01*
X49376Y724432D01*
X49312Y724386D01*
X49261Y724324D01*
X49202Y724269D01*
X49160Y724202D01*
X49109Y724141D01*
X49075Y724068D01*
X49032Y724001D01*
X49007Y723925D01*
X48973Y723853D01*
X48958Y723775D01*
X48934Y723699D01*
X48928Y723619D01*
X48913Y723541D01*
X48918Y723461D01*
X48913Y723381D01*
X48928Y723303D01*
X48933Y723223D01*
X48958Y723147D01*
X48973Y723069D01*
X49007Y722996D01*
X49031Y722921D01*
X49074Y722853D01*
X49108Y722781D01*
X49159Y722719D01*
X49201Y722652D01*
X49260Y722597D01*
X49310Y722536D01*
X49432Y722435D01*
X49433Y722434D01*
X49434Y722433D01*
X49445Y722425D01*
X50576Y721294D01*
X51516Y720001D01*
X52242Y718576D01*
X52736Y717055D01*
X52986Y715475D01*
X52986Y709594D01*
X44096Y709594D01*
X43978Y709579D01*
X43859Y709572D01*
X43820Y709560D01*
X43780Y709555D01*
X43669Y709511D01*
X43556Y709474D01*
X43522Y709452D01*
X43485Y709438D01*
X43388Y709368D01*
X43288Y709304D01*
X43260Y709274D01*
X43227Y709251D01*
X43151Y709159D01*
X43070Y709072D01*
X43050Y709037D01*
X43024Y709006D01*
X42974Y708898D01*
X42916Y708794D01*
X42906Y708755D01*
X42889Y708718D01*
X42867Y708601D01*
X42837Y708486D01*
X42833Y708426D01*
X42829Y708406D01*
X42830Y708385D01*
X42827Y708325D01*
X42827Y707054D01*
X42825Y707054D01*
X42825Y708325D01*
X42810Y708443D01*
X42802Y708562D01*
X42790Y708600D01*
X42785Y708641D01*
X42741Y708751D01*
X42704Y708865D01*
X42683Y708899D01*
X42668Y708936D01*
X42598Y709033D01*
X42534Y709133D01*
X42505Y709161D01*
X42481Y709194D01*
X42389Y709270D01*
X42303Y709351D01*
X42267Y709371D01*
X42236Y709397D01*
X42128Y709447D01*
X42024Y709505D01*
X41985Y709515D01*
X41948Y709532D01*
X41832Y709554D01*
X41716Y709584D01*
X41656Y709588D01*
X41636Y709592D01*
X41616Y709591D01*
X41555Y709594D01*
X32665Y709594D01*
X32665Y715475D01*
X32915Y717055D01*
X33409Y718576D01*
X34135Y720001D01*
X35075Y721294D01*
X36206Y722425D01*
X36217Y722433D01*
X36275Y722488D01*
X36340Y722534D01*
X36391Y722596D01*
X36449Y722651D01*
X36491Y722718D01*
X36542Y722779D01*
X36577Y722852D01*
X36619Y722919D01*
X36644Y722995D01*
X36678Y723067D01*
X36693Y723145D01*
X36718Y723221D01*
X36723Y723301D01*
X36738Y723380D01*
X36733Y723459D01*
X36738Y723539D01*
X36723Y723617D01*
X36718Y723697D01*
X36693Y723773D01*
X36679Y723851D01*
X36645Y723924D01*
X36620Y723999D01*
X36577Y724067D01*
X36543Y724139D01*
X36493Y724201D01*
X36450Y724268D01*
X36392Y724323D01*
X36341Y724384D01*
X36276Y724431D01*
X36218Y724486D01*
X36148Y724525D01*
X36084Y724572D01*
X36010Y724601D01*
X35940Y724640D01*
X35863Y724659D01*
X35788Y724689D01*
X35709Y724699D01*
X35632Y724719D01*
X35474Y724729D01*
X35473Y724729D01*
X35472Y724729D01*
X35471Y724729D01*
X26496Y724729D01*
X26359Y724712D01*
X26220Y724699D01*
X26201Y724692D01*
X26181Y724689D01*
X26052Y724638D01*
X25921Y724591D01*
X25904Y724580D01*
X25885Y724572D01*
X25773Y724491D01*
X25658Y724413D01*
X25644Y724397D01*
X25628Y724386D01*
X25539Y724278D01*
X25447Y724174D01*
X25438Y724156D01*
X25425Y724141D01*
X25366Y724015D01*
X25303Y723891D01*
X25298Y723871D01*
X25290Y723853D01*
X25263Y723717D01*
X25233Y723581D01*
X25234Y723560D01*
X25230Y723541D01*
X25238Y723402D01*
X25243Y723263D01*
X25248Y723243D01*
X25250Y723223D01*
X25292Y723091D01*
X25331Y722957D01*
X25341Y722940D01*
X25348Y722921D01*
X25422Y722803D01*
X25493Y722683D01*
X25511Y722662D01*
X25518Y722652D01*
X25533Y722638D01*
X25599Y722563D01*
X27967Y720194D01*
X29901Y715526D01*
X29901Y710474D01*
X27967Y705806D01*
X24394Y702233D01*
X22559Y701473D01*
X22438Y701404D01*
X22315Y701339D01*
X22300Y701325D01*
X22283Y701315D01*
X22183Y701218D01*
X22080Y701125D01*
X22069Y701108D01*
X22054Y701094D01*
X21981Y700975D01*
X21905Y700859D01*
X21899Y700840D01*
X21888Y700823D01*
X21847Y700690D01*
X21802Y700558D01*
X21800Y700538D01*
X21795Y700519D01*
X21788Y700380D01*
X21777Y700241D01*
X21780Y700221D01*
X21779Y700201D01*
X21808Y700064D01*
X21831Y699928D01*
X21840Y699909D01*
X21844Y699890D01*
X21905Y699764D01*
X21962Y699638D01*
X21974Y699622D01*
X21983Y699604D01*
X22073Y699498D01*
X22160Y699390D01*
X22177Y699377D01*
X22190Y699362D01*
X22303Y699282D01*
X22415Y699198D01*
X22440Y699186D01*
X22450Y699179D01*
X22469Y699172D01*
X22559Y699127D01*
X24394Y698367D01*
X27967Y694794D01*
X29901Y690126D01*
X29901Y685074D01*
X27967Y680406D01*
X24394Y676833D01*
X22559Y676073D01*
X22438Y676004D01*
X22315Y675939D01*
X22300Y675925D01*
X22283Y675915D01*
X22183Y675818D01*
X22080Y675725D01*
X22069Y675708D01*
X22054Y675694D01*
X21981Y675575D01*
X21905Y675459D01*
X21899Y675440D01*
X21888Y675423D01*
X21847Y675290D01*
X21802Y675158D01*
X21800Y675138D01*
X21795Y675119D01*
X21788Y674980D01*
X21777Y674841D01*
X21780Y674821D01*
X21779Y674801D01*
X21807Y674665D01*
X21831Y674528D01*
X21840Y674509D01*
X21844Y674490D01*
X21905Y674364D01*
X21962Y674238D01*
X21974Y674222D01*
X21983Y674204D01*
X22073Y674098D01*
X22160Y673990D01*
X22177Y673977D01*
X22190Y673962D01*
X22303Y673882D01*
X22415Y673798D01*
X22440Y673786D01*
X22450Y673779D01*
X22469Y673772D01*
X22559Y673727D01*
X24394Y672967D01*
X27967Y669394D01*
X29901Y664726D01*
X29901Y659674D01*
X27967Y655006D01*
X24394Y651433D01*
X22559Y650673D01*
X22438Y650604D01*
X22315Y650539D01*
X22300Y650525D01*
X22283Y650515D01*
X22183Y650418D01*
X22080Y650325D01*
X22069Y650308D01*
X22054Y650294D01*
X21981Y650175D01*
X21905Y650059D01*
X21899Y650040D01*
X21888Y650023D01*
X21847Y649890D01*
X21802Y649758D01*
X21800Y649738D01*
X21795Y649719D01*
X21788Y649580D01*
X21777Y649441D01*
X21780Y649421D01*
X21779Y649401D01*
X21807Y649265D01*
X21831Y649128D01*
X21840Y649109D01*
X21844Y649090D01*
X21905Y648964D01*
X21962Y648838D01*
X21974Y648822D01*
X21983Y648804D01*
X22073Y648698D01*
X22160Y648590D01*
X22177Y648577D01*
X22190Y648562D01*
X22303Y648482D01*
X22415Y648398D01*
X22440Y648386D01*
X22450Y648379D01*
X22469Y648372D01*
X22559Y648327D01*
X24394Y647567D01*
X27967Y643994D01*
X29901Y639326D01*
X29901Y634274D01*
X27967Y629606D01*
X24394Y626033D01*
X22559Y625273D01*
X22438Y625204D01*
X22315Y625139D01*
X22300Y625125D01*
X22283Y625115D01*
X22183Y625018D01*
X22080Y624925D01*
X22069Y624908D01*
X22054Y624894D01*
X21981Y624775D01*
X21905Y624659D01*
X21899Y624640D01*
X21888Y624623D01*
X21847Y624490D01*
X21802Y624358D01*
X21800Y624338D01*
X21795Y624319D01*
X21788Y624180D01*
X21777Y624041D01*
X21780Y624021D01*
X21779Y624001D01*
X21807Y623865D01*
X21831Y623728D01*
X21840Y623709D01*
X21844Y623690D01*
X21905Y623564D01*
X21962Y623438D01*
X21974Y623422D01*
X21983Y623404D01*
X22073Y623298D01*
X22160Y623190D01*
X22177Y623177D01*
X22190Y623162D01*
X22303Y623082D01*
X22415Y622998D01*
X22440Y622986D01*
X22450Y622979D01*
X22469Y622972D01*
X22559Y622927D01*
X24394Y622167D01*
X27967Y618594D01*
X29901Y613926D01*
X29901Y608874D01*
X27967Y604206D01*
X24394Y600633D01*
X22559Y599873D01*
X22438Y599804D01*
X22315Y599739D01*
X22300Y599725D01*
X22283Y599715D01*
X22183Y599618D01*
X22080Y599525D01*
X22069Y599508D01*
X22054Y599494D01*
X21981Y599375D01*
X21905Y599259D01*
X21899Y599240D01*
X21888Y599223D01*
X21847Y599090D01*
X21802Y598958D01*
X21800Y598938D01*
X21795Y598919D01*
X21788Y598780D01*
X21777Y598641D01*
X21780Y598621D01*
X21779Y598601D01*
X21807Y598465D01*
X21831Y598328D01*
X21840Y598309D01*
X21844Y598290D01*
X21905Y598164D01*
X21962Y598038D01*
X21974Y598022D01*
X21983Y598004D01*
X22073Y597898D01*
X22160Y597790D01*
X22177Y597777D01*
X22190Y597762D01*
X22303Y597682D01*
X22415Y597598D01*
X22440Y597586D01*
X22450Y597579D01*
X22469Y597572D01*
X22559Y597527D01*
X24394Y596767D01*
X27967Y593194D01*
X29901Y588526D01*
X29901Y583474D01*
X27967Y578806D01*
X24394Y575233D01*
X22559Y574473D01*
X22438Y574404D01*
X22315Y574339D01*
X22300Y574325D01*
X22283Y574315D01*
X22183Y574218D01*
X22080Y574125D01*
X22069Y574108D01*
X22054Y574094D01*
X21981Y573975D01*
X21905Y573859D01*
X21899Y573840D01*
X21888Y573823D01*
X21847Y573690D01*
X21802Y573558D01*
X21800Y573538D01*
X21795Y573519D01*
X21788Y573380D01*
X21777Y573241D01*
X21780Y573221D01*
X21779Y573201D01*
X21807Y573065D01*
X21831Y572928D01*
X21840Y572909D01*
X21844Y572890D01*
X21905Y572764D01*
X21962Y572638D01*
X21974Y572622D01*
X21983Y572604D01*
X22073Y572498D01*
X22160Y572390D01*
X22177Y572377D01*
X22190Y572362D01*
X22303Y572282D01*
X22415Y572198D01*
X22440Y572186D01*
X22450Y572179D01*
X22469Y572172D01*
X22559Y572127D01*
X24394Y571367D01*
X27967Y567794D01*
X29901Y563126D01*
X29901Y558074D01*
X27967Y553406D01*
X24394Y549833D01*
X22559Y549073D01*
X22438Y549004D01*
X22315Y548939D01*
X22300Y548925D01*
X22283Y548915D01*
X22183Y548818D01*
X22080Y548725D01*
X22069Y548708D01*
X22054Y548694D01*
X21981Y548575D01*
X21905Y548459D01*
X21899Y548440D01*
X21888Y548423D01*
X21847Y548290D01*
X21802Y548158D01*
X21800Y548138D01*
X21795Y548119D01*
X21788Y547980D01*
X21777Y547841D01*
X21780Y547821D01*
X21779Y547801D01*
X21807Y547665D01*
X21831Y547528D01*
X21840Y547509D01*
X21844Y547490D01*
X21905Y547364D01*
X21962Y547238D01*
X21974Y547222D01*
X21983Y547204D01*
X22073Y547098D01*
X22160Y546990D01*
X22177Y546977D01*
X22190Y546962D01*
X22303Y546882D01*
X22415Y546798D01*
X22440Y546786D01*
X22450Y546779D01*
X22469Y546772D01*
X22559Y546727D01*
X24394Y545967D01*
X27967Y542394D01*
X29901Y537726D01*
X29901Y532674D01*
X27967Y528006D01*
X24394Y524433D01*
X22559Y523673D01*
X22438Y523604D01*
X22315Y523539D01*
X22300Y523525D01*
X22283Y523515D01*
X22183Y523418D01*
X22080Y523325D01*
X22069Y523308D01*
X22054Y523294D01*
X21981Y523175D01*
X21905Y523059D01*
X21899Y523040D01*
X21888Y523023D01*
X21847Y522890D01*
X21802Y522758D01*
X21800Y522738D01*
X21795Y522719D01*
X21788Y522580D01*
X21777Y522441D01*
X21780Y522421D01*
X21779Y522401D01*
X21807Y522265D01*
X21831Y522128D01*
X21840Y522109D01*
X21844Y522090D01*
X21905Y521964D01*
X21962Y521838D01*
X21974Y521822D01*
X21983Y521804D01*
X22073Y521698D01*
X22160Y521590D01*
X22177Y521577D01*
X22190Y521562D01*
X22303Y521482D01*
X22415Y521398D01*
X22440Y521386D01*
X22450Y521379D01*
X22469Y521372D01*
X22559Y521327D01*
X24394Y520567D01*
X27967Y516994D01*
X29901Y512326D01*
X29901Y507274D01*
X27967Y502606D01*
X24394Y499033D01*
X22559Y498273D01*
X22438Y498204D01*
X22315Y498139D01*
X22300Y498125D01*
X22283Y498115D01*
X22183Y498018D01*
X22080Y497925D01*
X22069Y497908D01*
X22054Y497894D01*
X21981Y497775D01*
X21905Y497659D01*
X21899Y497640D01*
X21888Y497623D01*
X21847Y497490D01*
X21802Y497358D01*
X21800Y497338D01*
X21795Y497319D01*
X21788Y497180D01*
X21777Y497041D01*
X21780Y497021D01*
X21779Y497001D01*
X21807Y496865D01*
X21831Y496728D01*
X21840Y496709D01*
X21844Y496690D01*
X21905Y496564D01*
X21962Y496438D01*
X21974Y496422D01*
X21983Y496404D01*
X22073Y496298D01*
X22160Y496190D01*
X22177Y496177D01*
X22190Y496162D01*
X22303Y496082D01*
X22415Y495998D01*
X22440Y495986D01*
X22450Y495979D01*
X22469Y495972D01*
X22559Y495927D01*
X24394Y495167D01*
X27967Y491594D01*
X29901Y486926D01*
X29901Y481874D01*
X27967Y477206D01*
X24394Y473633D01*
X22559Y472873D01*
X22438Y472804D01*
X22315Y472739D01*
X22300Y472725D01*
X22283Y472715D01*
X22183Y472618D01*
X22080Y472525D01*
X22069Y472508D01*
X22054Y472494D01*
X21981Y472375D01*
X21905Y472259D01*
X21899Y472240D01*
X21888Y472223D01*
X21847Y472090D01*
X21802Y471958D01*
X21800Y471938D01*
X21795Y471919D01*
X21788Y471780D01*
X21777Y471641D01*
X21780Y471621D01*
X21779Y471601D01*
X21807Y471465D01*
X21831Y471328D01*
X21840Y471309D01*
X21844Y471290D01*
X21905Y471164D01*
X21962Y471038D01*
X21974Y471022D01*
X21983Y471004D01*
X22073Y470898D01*
X22160Y470790D01*
X22177Y470777D01*
X22190Y470762D01*
X22303Y470682D01*
X22415Y470598D01*
X22440Y470586D01*
X22450Y470579D01*
X22469Y470572D01*
X22559Y470527D01*
X24394Y469767D01*
X27967Y466194D01*
X29901Y461526D01*
X29901Y456474D01*
X27967Y451806D01*
X24394Y448233D01*
X22559Y447473D01*
X22438Y447404D01*
X22315Y447339D01*
X22300Y447325D01*
X22283Y447315D01*
X22183Y447218D01*
X22080Y447125D01*
X22069Y447108D01*
X22054Y447094D01*
X21981Y446975D01*
X21905Y446859D01*
X21899Y446840D01*
X21888Y446823D01*
X21847Y446690D01*
X21802Y446558D01*
X21800Y446538D01*
X21795Y446519D01*
X21788Y446380D01*
X21777Y446241D01*
X21780Y446221D01*
X21779Y446201D01*
X21808Y446065D01*
X21831Y445928D01*
X21840Y445909D01*
X21844Y445890D01*
X21905Y445764D01*
X21962Y445638D01*
X21974Y445622D01*
X21983Y445604D01*
X22073Y445498D01*
X22160Y445390D01*
X22177Y445377D01*
X22190Y445362D01*
X22303Y445282D01*
X22415Y445198D01*
X22440Y445186D01*
X22450Y445179D01*
X22469Y445172D01*
X22559Y445127D01*
X24394Y444367D01*
X27967Y440794D01*
X29901Y436126D01*
X29901Y431074D01*
X27967Y426406D01*
X24394Y422833D01*
X21943Y421817D01*
X21865Y421773D01*
X21783Y421737D01*
X21727Y421695D01*
X21666Y421660D01*
X21602Y421597D01*
X21531Y421543D01*
X21488Y421487D01*
X21438Y421439D01*
X21391Y421362D01*
X21336Y421291D01*
X21308Y421227D01*
X21272Y421167D01*
X21245Y421082D01*
X21210Y421000D01*
X21199Y420930D01*
X21178Y420863D01*
X21174Y420774D01*
X21160Y420686D01*
X21166Y420616D01*
X21163Y420546D01*
X21181Y420458D01*
X21189Y420369D01*
X21213Y420303D01*
X21227Y420234D01*
X21267Y420154D01*
X21297Y420070D01*
X21336Y420012D01*
X21367Y419949D01*
X21425Y419880D01*
X21475Y419806D01*
X21528Y419760D01*
X21573Y419707D01*
X21647Y419655D01*
X21714Y419596D01*
X21821Y419532D01*
X21833Y419524D01*
X21840Y419521D01*
X21852Y419514D01*
X23590Y418628D01*
X25143Y417500D01*
X26500Y416143D01*
X27628Y414590D01*
X28499Y412880D01*
X29093Y411055D01*
X29149Y410699D01*
X18430Y410699D01*
X18312Y410684D01*
X18193Y410677D01*
X18155Y410664D01*
X18115Y410659D01*
X18004Y410616D01*
X17891Y410579D01*
X17857Y410557D01*
X17819Y410542D01*
X17723Y410473D01*
X17622Y410409D01*
X17594Y410379D01*
X17562Y410356D01*
X17486Y410264D01*
X17404Y410177D01*
X17385Y410142D01*
X17359Y410111D01*
X17308Y410003D01*
X17251Y409899D01*
X17241Y409859D01*
X17223Y409823D01*
X17201Y409706D01*
X17171Y409591D01*
X17167Y409531D01*
X17164Y409511D01*
X17165Y409490D01*
X17161Y409430D01*
X17161Y406970D01*
X17176Y406852D01*
X17183Y406733D01*
X17196Y406695D01*
X17201Y406654D01*
X17245Y406544D01*
X17281Y406431D01*
X17303Y406396D01*
X17318Y406359D01*
X17388Y406262D01*
X17451Y406162D01*
X17481Y406134D01*
X17505Y406101D01*
X17596Y406025D01*
X17683Y405944D01*
X17718Y405924D01*
X17750Y405899D01*
X17857Y405848D01*
X17962Y405790D01*
X18001Y405780D01*
X18037Y405763D01*
X18154Y405741D01*
X18270Y405711D01*
X18330Y405707D01*
X18350Y405703D01*
X18370Y405705D01*
X18430Y405701D01*
X29149Y405701D01*
X29093Y405345D01*
X28499Y403520D01*
X27628Y401810D01*
X26500Y400257D01*
X25143Y398900D01*
X23590Y397772D01*
X21852Y396886D01*
X21778Y396836D01*
X21699Y396794D01*
X21647Y396747D01*
X21589Y396707D01*
X21530Y396640D01*
X21464Y396580D01*
X21425Y396521D01*
X21379Y396469D01*
X21338Y396389D01*
X21289Y396314D01*
X21266Y396248D01*
X21234Y396186D01*
X21215Y396098D01*
X21186Y396014D01*
X21180Y395944D01*
X21165Y395875D01*
X21168Y395786D01*
X21161Y395697D01*
X21173Y395627D01*
X21175Y395557D01*
X21200Y395472D01*
X21215Y395383D01*
X21244Y395319D01*
X21263Y395252D01*
X21309Y395175D01*
X21346Y395093D01*
X21389Y395039D01*
X21425Y394978D01*
X21488Y394915D01*
X21544Y394845D01*
X21600Y394803D01*
X21650Y394753D01*
X21727Y394707D01*
X21798Y394654D01*
X21910Y394599D01*
X21923Y394591D01*
X21930Y394589D01*
X21943Y394583D01*
X24394Y393567D01*
X27967Y389994D01*
X29901Y385326D01*
X29901Y380274D01*
X28824Y377674D01*
X28816Y377645D01*
X28803Y377619D01*
X28774Y377492D01*
X28740Y377367D01*
X28739Y377337D01*
X28733Y377308D01*
X28737Y377179D01*
X28735Y377049D01*
X28742Y377020D01*
X28743Y376991D01*
X28779Y376866D01*
X28809Y376740D01*
X28823Y376713D01*
X28831Y376685D01*
X28897Y376573D01*
X28958Y376458D01*
X28977Y376437D01*
X28992Y376411D01*
X29099Y376290D01*
X81263Y324126D01*
X81263Y308576D01*
X81275Y308478D01*
X81278Y308379D01*
X81295Y308321D01*
X81303Y308260D01*
X81339Y308168D01*
X81367Y308073D01*
X81397Y308021D01*
X81420Y307965D01*
X81478Y307885D01*
X81528Y307799D01*
X81594Y307724D01*
X81606Y307707D01*
X81616Y307700D01*
X81634Y307678D01*
X89342Y299971D01*
X89420Y299911D01*
X89492Y299843D01*
X89545Y299814D01*
X89593Y299776D01*
X89684Y299737D01*
X89771Y299689D01*
X89829Y299674D01*
X89885Y299650D01*
X89983Y299634D01*
X90078Y299610D01*
X90178Y299603D01*
X90199Y299600D01*
X90211Y299601D01*
X90239Y299600D01*
X99990Y299600D01*
X160385Y239204D01*
X160408Y239186D01*
X160427Y239164D01*
X160533Y239089D01*
X160636Y239010D01*
X160663Y238998D01*
X160687Y238981D01*
X160809Y238935D01*
X160928Y238883D01*
X160957Y238879D01*
X160985Y238868D01*
X161114Y238854D01*
X161242Y238833D01*
X161271Y238836D01*
X161301Y238833D01*
X161429Y238851D01*
X161559Y238863D01*
X161586Y238873D01*
X161616Y238877D01*
X161768Y238929D01*
X164224Y239947D01*
X169176Y239947D01*
X173934Y237976D01*
X173982Y237963D01*
X174027Y237941D01*
X174135Y237921D01*
X174241Y237892D01*
X174291Y237891D01*
X174340Y237882D01*
X174449Y237888D01*
X174559Y237887D01*
X174607Y237898D01*
X174657Y237901D01*
X174761Y237935D01*
X174868Y237961D01*
X174912Y237984D01*
X174959Y237999D01*
X175052Y238058D01*
X175149Y238110D01*
X175186Y238143D01*
X175228Y238170D01*
X175303Y238250D01*
X175385Y238324D01*
X175412Y238365D01*
X175446Y238401D01*
X175499Y238497D01*
X175559Y238589D01*
X175576Y238636D01*
X175600Y238680D01*
X175627Y238786D01*
X175663Y238890D01*
X175667Y238940D01*
X175679Y238988D01*
X175689Y239148D01*
X175689Y246682D01*
X175674Y246800D01*
X175667Y246919D01*
X175654Y246957D01*
X175649Y246998D01*
X175606Y247108D01*
X175569Y247221D01*
X175547Y247256D01*
X175532Y247293D01*
X175463Y247389D01*
X175399Y247490D01*
X175369Y247518D01*
X175346Y247551D01*
X175254Y247627D01*
X175167Y247708D01*
X175132Y247728D01*
X175101Y247753D01*
X174993Y247804D01*
X174889Y247862D01*
X174849Y247872D01*
X174813Y247889D01*
X174696Y247911D01*
X174581Y247941D01*
X174521Y247945D01*
X174501Y247949D01*
X174480Y247947D01*
X174420Y247951D01*
X170237Y247951D01*
X168451Y249737D01*
X168451Y264797D01*
X168439Y264895D01*
X168436Y264994D01*
X168419Y265053D01*
X168411Y265113D01*
X168375Y265205D01*
X168347Y265300D01*
X168317Y265352D01*
X168294Y265408D01*
X168236Y265488D01*
X168186Y265574D01*
X168120Y265649D01*
X168108Y265666D01*
X168098Y265674D01*
X168080Y265695D01*
X155451Y278323D01*
X155451Y383583D01*
X157823Y385955D01*
X189229Y385955D01*
X189298Y385963D01*
X189368Y385962D01*
X189455Y385983D01*
X189544Y385995D01*
X189609Y386020D01*
X189677Y386037D01*
X189756Y386079D01*
X189840Y386112D01*
X189896Y386153D01*
X189958Y386185D01*
X190024Y386246D01*
X190097Y386298D01*
X190142Y386352D01*
X190193Y386399D01*
X190243Y386474D01*
X190300Y386543D01*
X190330Y386607D01*
X190368Y386665D01*
X190397Y386750D01*
X190435Y386831D01*
X190449Y386900D01*
X190471Y386966D01*
X190478Y387055D01*
X190495Y387143D01*
X190491Y387213D01*
X190496Y387283D01*
X190481Y387371D01*
X190475Y387461D01*
X190454Y387527D01*
X190442Y387596D01*
X190405Y387678D01*
X190377Y387763D01*
X190340Y387822D01*
X190311Y387886D01*
X190255Y387956D01*
X190207Y388032D01*
X190156Y388080D01*
X190113Y388134D01*
X190041Y388189D01*
X189976Y388250D01*
X189915Y388284D01*
X189859Y388326D01*
X189714Y388397D01*
X187490Y389318D01*
X183989Y392819D01*
X182094Y397394D01*
X182094Y402345D01*
X183989Y406920D01*
X187490Y410421D01*
X192065Y412316D01*
X197017Y412316D01*
X201591Y410421D01*
X205093Y406920D01*
X206988Y402345D01*
X206988Y401559D01*
X207005Y401422D01*
X207018Y401283D01*
X207025Y401264D01*
X207027Y401244D01*
X207078Y401115D01*
X207126Y400984D01*
X207137Y400967D01*
X207144Y400948D01*
X207226Y400836D01*
X207304Y400721D01*
X207319Y400707D01*
X207331Y400691D01*
X207439Y400602D01*
X207543Y400510D01*
X207561Y400501D01*
X207576Y400488D01*
X207702Y400429D01*
X207826Y400366D01*
X207846Y400361D01*
X207864Y400352D01*
X208000Y400326D01*
X208136Y400296D01*
X208156Y400297D01*
X208176Y400293D01*
X208315Y400301D01*
X208454Y400306D01*
X208474Y400311D01*
X208494Y400312D01*
X208626Y400355D01*
X208760Y400394D01*
X208777Y400404D01*
X208796Y400410D01*
X208914Y400485D01*
X209033Y400555D01*
X209055Y400574D01*
X209065Y400581D01*
X209079Y400596D01*
X209154Y400662D01*
X233018Y424526D01*
X233091Y424620D01*
X233170Y424709D01*
X233188Y424745D01*
X233213Y424777D01*
X233260Y424886D01*
X233314Y424992D01*
X233323Y425032D01*
X233339Y425069D01*
X233358Y425187D01*
X233384Y425302D01*
X233383Y425343D01*
X233389Y425383D01*
X233378Y425502D01*
X233374Y425620D01*
X233363Y425659D01*
X233359Y425699D01*
X233319Y425812D01*
X233286Y425926D01*
X233265Y425961D01*
X233252Y425999D01*
X233185Y426097D01*
X233124Y426200D01*
X233085Y426245D01*
X233073Y426262D01*
X233058Y426275D01*
X233018Y426321D01*
X232933Y426406D01*
X230999Y431074D01*
X230999Y436126D01*
X232933Y440794D01*
X236506Y444367D01*
X238341Y445127D01*
X238461Y445196D01*
X238585Y445261D01*
X238600Y445275D01*
X238617Y445285D01*
X238717Y445382D01*
X238820Y445475D01*
X238831Y445492D01*
X238846Y445506D01*
X238918Y445624D01*
X238995Y445741D01*
X239001Y445760D01*
X239012Y445777D01*
X239053Y445910D01*
X239098Y446042D01*
X239100Y446062D01*
X239105Y446081D01*
X239112Y446220D01*
X239123Y446359D01*
X239120Y446379D01*
X239121Y446399D01*
X239093Y446535D01*
X239069Y446672D01*
X239060Y446691D01*
X239056Y446710D01*
X238995Y446835D01*
X238938Y446962D01*
X238926Y446978D01*
X238917Y446996D01*
X238826Y447102D01*
X238740Y447210D01*
X238723Y447223D01*
X238710Y447238D01*
X238596Y447318D01*
X238485Y447402D01*
X238460Y447414D01*
X238450Y447421D01*
X238431Y447428D01*
X238341Y447473D01*
X236506Y448233D01*
X232933Y451806D01*
X230999Y456474D01*
X230999Y461526D01*
X232933Y466194D01*
X236506Y469767D01*
X238341Y470527D01*
X238461Y470596D01*
X238585Y470661D01*
X238600Y470675D01*
X238617Y470685D01*
X238717Y470782D01*
X238820Y470875D01*
X238831Y470892D01*
X238846Y470906D01*
X238918Y471024D01*
X238995Y471141D01*
X239001Y471160D01*
X239012Y471177D01*
X239053Y471310D01*
X239098Y471442D01*
X239100Y471462D01*
X239105Y471481D01*
X239112Y471620D01*
X239123Y471759D01*
X239120Y471779D01*
X239121Y471799D01*
X239093Y471935D01*
X239069Y472072D01*
X239060Y472091D01*
X239056Y472110D01*
X238995Y472235D01*
X238938Y472362D01*
X238926Y472378D01*
X238917Y472396D01*
X238826Y472502D01*
X238740Y472610D01*
X238723Y472623D01*
X238710Y472638D01*
X238596Y472718D01*
X238485Y472802D01*
X238460Y472814D01*
X238450Y472821D01*
X238431Y472828D01*
X238341Y472873D01*
X236506Y473633D01*
X232933Y477206D01*
X230999Y481874D01*
X230999Y486926D01*
X232933Y491594D01*
X236506Y495167D01*
X238341Y495927D01*
X238461Y495996D01*
X238585Y496061D01*
X238600Y496075D01*
X238617Y496085D01*
X238717Y496182D01*
X238820Y496275D01*
X238831Y496292D01*
X238846Y496306D01*
X238918Y496424D01*
X238995Y496541D01*
X239001Y496560D01*
X239012Y496577D01*
X239053Y496710D01*
X239098Y496842D01*
X239100Y496862D01*
X239105Y496881D01*
X239112Y497020D01*
X239123Y497159D01*
X239120Y497179D01*
X239121Y497199D01*
X239093Y497335D01*
X239069Y497472D01*
X239060Y497491D01*
X239056Y497510D01*
X238995Y497635D01*
X238938Y497762D01*
X238926Y497778D01*
X238917Y497796D01*
X238826Y497902D01*
X238740Y498010D01*
X238723Y498023D01*
X238710Y498038D01*
X238596Y498118D01*
X238485Y498202D01*
X238460Y498214D01*
X238450Y498221D01*
X238431Y498228D01*
X238341Y498273D01*
X236506Y499033D01*
X232933Y502606D01*
X230999Y507274D01*
X230999Y512326D01*
X232933Y516994D01*
X236506Y520567D01*
X238341Y521327D01*
X238461Y521396D01*
X238585Y521461D01*
X238600Y521475D01*
X238617Y521485D01*
X238717Y521582D01*
X238820Y521675D01*
X238831Y521692D01*
X238846Y521706D01*
X238918Y521824D01*
X238995Y521941D01*
X239001Y521960D01*
X239012Y521977D01*
X239053Y522110D01*
X239098Y522242D01*
X239100Y522262D01*
X239105Y522281D01*
X239112Y522420D01*
X239123Y522559D01*
X239120Y522579D01*
X239121Y522599D01*
X239093Y522735D01*
X239069Y522872D01*
X239060Y522891D01*
X239056Y522910D01*
X238995Y523035D01*
X238938Y523162D01*
X238926Y523178D01*
X238917Y523196D01*
X238826Y523302D01*
X238740Y523410D01*
X238723Y523423D01*
X238710Y523438D01*
X238596Y523518D01*
X238485Y523602D01*
X238460Y523614D01*
X238450Y523621D01*
X238431Y523628D01*
X238341Y523673D01*
X236506Y524433D01*
X232933Y528006D01*
X230999Y532674D01*
X230999Y537726D01*
X232933Y542394D01*
X236506Y545967D01*
X238341Y546727D01*
X238461Y546796D01*
X238585Y546861D01*
X238600Y546875D01*
X238617Y546885D01*
X238717Y546982D01*
X238820Y547075D01*
X238831Y547092D01*
X238846Y547106D01*
X238918Y547224D01*
X238995Y547341D01*
X239001Y547360D01*
X239012Y547377D01*
X239053Y547510D01*
X239098Y547642D01*
X239100Y547662D01*
X239105Y547681D01*
X239112Y547820D01*
X239123Y547959D01*
X239120Y547979D01*
X239121Y547999D01*
X239093Y548135D01*
X239069Y548272D01*
X239060Y548291D01*
X239056Y548310D01*
X238995Y548435D01*
X238938Y548562D01*
X238926Y548578D01*
X238917Y548596D01*
X238826Y548702D01*
X238740Y548810D01*
X238723Y548823D01*
X238710Y548838D01*
X238596Y548918D01*
X238485Y549002D01*
X238460Y549014D01*
X238450Y549021D01*
X238431Y549028D01*
X238341Y549073D01*
X236506Y549833D01*
X232933Y553406D01*
X230999Y558074D01*
X230999Y563126D01*
X232933Y567794D01*
X236506Y571367D01*
X238957Y572383D01*
X239035Y572427D01*
X239117Y572463D01*
X239173Y572505D01*
X239234Y572540D01*
X239298Y572603D01*
X239369Y572657D01*
X239412Y572713D01*
X239462Y572761D01*
X239509Y572838D01*
X239564Y572909D01*
X239592Y572973D01*
X239628Y573033D01*
X239655Y573118D01*
X239690Y573200D01*
X239701Y573270D01*
X239722Y573337D01*
X239726Y573426D01*
X239740Y573514D01*
X239734Y573584D01*
X239737Y573654D01*
X239719Y573742D01*
X239711Y573831D01*
X239687Y573897D01*
X239673Y573966D01*
X239633Y574046D01*
X239603Y574130D01*
X239564Y574188D01*
X239533Y574251D01*
X239475Y574320D01*
X239425Y574394D01*
X239372Y574440D01*
X239327Y574493D01*
X239253Y574545D01*
X239186Y574604D01*
X239079Y574668D01*
X239067Y574676D01*
X239060Y574679D01*
X239048Y574686D01*
X237310Y575572D01*
X235757Y576700D01*
X234400Y578057D01*
X233272Y579610D01*
X232401Y581320D01*
X231807Y583145D01*
X231751Y583501D01*
X242470Y583501D01*
X242588Y583516D01*
X242707Y583523D01*
X242745Y583535D01*
X242785Y583541D01*
X242896Y583584D01*
X243009Y583621D01*
X243043Y583643D01*
X243081Y583658D01*
X243177Y583727D01*
X243278Y583791D01*
X243306Y583821D01*
X243338Y583844D01*
X243414Y583936D01*
X243496Y584023D01*
X243515Y584058D01*
X243541Y584089D01*
X243592Y584197D01*
X243649Y584301D01*
X243659Y584341D01*
X243677Y584377D01*
X243697Y584484D01*
X243701Y584454D01*
X243745Y584344D01*
X243781Y584231D01*
X243803Y584196D01*
X243818Y584159D01*
X243888Y584062D01*
X243951Y583962D01*
X243981Y583934D01*
X244005Y583901D01*
X244096Y583825D01*
X244183Y583744D01*
X244218Y583724D01*
X244250Y583699D01*
X244357Y583648D01*
X244462Y583590D01*
X244501Y583580D01*
X244537Y583563D01*
X244654Y583541D01*
X244770Y583511D01*
X244830Y583507D01*
X244850Y583503D01*
X244870Y583505D01*
X244930Y583501D01*
X255649Y583501D01*
X255593Y583145D01*
X254999Y581320D01*
X254128Y579610D01*
X253000Y578057D01*
X251643Y576700D01*
X250090Y575572D01*
X248352Y574686D01*
X248278Y574636D01*
X248199Y574594D01*
X248147Y574547D01*
X248089Y574507D01*
X248030Y574440D01*
X247964Y574380D01*
X247925Y574321D01*
X247879Y574269D01*
X247838Y574189D01*
X247789Y574114D01*
X247766Y574048D01*
X247734Y573986D01*
X247715Y573898D01*
X247686Y573814D01*
X247680Y573744D01*
X247665Y573675D01*
X247668Y573586D01*
X247661Y573497D01*
X247673Y573427D01*
X247675Y573357D01*
X247700Y573272D01*
X247715Y573183D01*
X247744Y573119D01*
X247763Y573052D01*
X247809Y572975D01*
X247846Y572893D01*
X247889Y572839D01*
X247925Y572778D01*
X247988Y572715D01*
X248044Y572645D01*
X248100Y572603D01*
X248150Y572553D01*
X248227Y572507D01*
X248298Y572454D01*
X248410Y572399D01*
X248423Y572391D01*
X248430Y572389D01*
X248443Y572383D01*
X250894Y571367D01*
X254467Y567794D01*
X256401Y563126D01*
X256401Y558074D01*
X254467Y553406D01*
X250894Y549833D01*
X249059Y549073D01*
X248938Y549004D01*
X248815Y548939D01*
X248800Y548925D01*
X248783Y548915D01*
X248683Y548818D01*
X248580Y548725D01*
X248569Y548708D01*
X248554Y548694D01*
X248481Y548575D01*
X248405Y548459D01*
X248399Y548440D01*
X248388Y548423D01*
X248347Y548290D01*
X248302Y548158D01*
X248300Y548138D01*
X248295Y548119D01*
X248288Y547980D01*
X248277Y547841D01*
X248280Y547821D01*
X248279Y547801D01*
X248307Y547665D01*
X248331Y547528D01*
X248340Y547509D01*
X248344Y547490D01*
X248405Y547364D01*
X248462Y547238D01*
X248474Y547222D01*
X248483Y547204D01*
X248573Y547098D01*
X248660Y546990D01*
X248677Y546977D01*
X248690Y546962D01*
X248803Y546882D01*
X248915Y546798D01*
X248940Y546786D01*
X248950Y546779D01*
X248969Y546772D01*
X249059Y546727D01*
X250894Y545967D01*
X254467Y542394D01*
X256401Y537726D01*
X256401Y532674D01*
X254467Y528006D01*
X250894Y524433D01*
X249059Y523673D01*
X248938Y523604D01*
X248815Y523539D01*
X248800Y523525D01*
X248783Y523515D01*
X248683Y523418D01*
X248580Y523325D01*
X248569Y523308D01*
X248554Y523294D01*
X248481Y523175D01*
X248405Y523059D01*
X248399Y523040D01*
X248388Y523023D01*
X248347Y522890D01*
X248302Y522758D01*
X248300Y522738D01*
X248295Y522719D01*
X248288Y522580D01*
X248277Y522441D01*
X248280Y522421D01*
X248279Y522401D01*
X248307Y522265D01*
X248331Y522128D01*
X248340Y522109D01*
X248344Y522090D01*
X248405Y521964D01*
X248462Y521838D01*
X248474Y521822D01*
X248483Y521804D01*
X248573Y521698D01*
X248660Y521590D01*
X248677Y521577D01*
X248690Y521562D01*
X248803Y521482D01*
X248915Y521398D01*
X248940Y521386D01*
X248950Y521379D01*
X248969Y521372D01*
X249059Y521327D01*
X250894Y520567D01*
X254467Y516994D01*
X256401Y512326D01*
X256401Y507274D01*
X254467Y502606D01*
X250894Y499033D01*
X249059Y498273D01*
X248938Y498204D01*
X248815Y498139D01*
X248800Y498125D01*
X248783Y498115D01*
X248683Y498018D01*
X248580Y497925D01*
X248569Y497908D01*
X248554Y497894D01*
X248481Y497775D01*
X248405Y497659D01*
X248399Y497640D01*
X248388Y497623D01*
X248347Y497490D01*
X248302Y497358D01*
X248300Y497338D01*
X248295Y497319D01*
X248288Y497180D01*
X248277Y497041D01*
X248280Y497021D01*
X248279Y497001D01*
X248307Y496865D01*
X248331Y496728D01*
X248340Y496709D01*
X248344Y496690D01*
X248405Y496564D01*
X248462Y496438D01*
X248474Y496422D01*
X248483Y496404D01*
X248573Y496298D01*
X248660Y496190D01*
X248677Y496177D01*
X248690Y496162D01*
X248803Y496082D01*
X248915Y495998D01*
X248940Y495986D01*
X248950Y495979D01*
X248969Y495972D01*
X249059Y495927D01*
X250894Y495167D01*
X254467Y491594D01*
X256401Y486926D01*
X256401Y481874D01*
X254467Y477206D01*
X250894Y473633D01*
X249059Y472873D01*
X248938Y472804D01*
X248815Y472739D01*
X248800Y472725D01*
X248783Y472715D01*
X248683Y472618D01*
X248580Y472525D01*
X248569Y472508D01*
X248554Y472494D01*
X248481Y472375D01*
X248405Y472259D01*
X248399Y472240D01*
X248388Y472223D01*
X248347Y472090D01*
X248302Y471958D01*
X248300Y471938D01*
X248295Y471919D01*
X248288Y471780D01*
X248277Y471641D01*
X248280Y471621D01*
X248279Y471601D01*
X248307Y471465D01*
X248331Y471328D01*
X248340Y471309D01*
X248344Y471290D01*
X248405Y471164D01*
X248462Y471038D01*
X248474Y471022D01*
X248483Y471004D01*
X248573Y470898D01*
X248660Y470790D01*
X248677Y470777D01*
X248690Y470762D01*
X248803Y470682D01*
X248915Y470598D01*
X248940Y470586D01*
X248950Y470579D01*
X248969Y470572D01*
X249059Y470527D01*
X250894Y469767D01*
X254467Y466194D01*
X256401Y461526D01*
X256401Y456474D01*
X254467Y451806D01*
X250894Y448233D01*
X249059Y447473D01*
X248938Y447404D01*
X248815Y447339D01*
X248800Y447325D01*
X248783Y447315D01*
X248683Y447218D01*
X248580Y447125D01*
X248569Y447108D01*
X248554Y447094D01*
X248481Y446975D01*
X248405Y446859D01*
X248399Y446840D01*
X248388Y446823D01*
X248347Y446690D01*
X248302Y446558D01*
X248300Y446538D01*
X248295Y446519D01*
X248288Y446380D01*
X248277Y446241D01*
X248280Y446221D01*
X248279Y446201D01*
X248308Y446065D01*
X248331Y445928D01*
X248340Y445909D01*
X248344Y445890D01*
X248405Y445764D01*
X248462Y445638D01*
X248474Y445622D01*
X248483Y445604D01*
X248573Y445498D01*
X248660Y445390D01*
X248677Y445377D01*
X248690Y445362D01*
X248803Y445282D01*
X248915Y445198D01*
X248940Y445186D01*
X248950Y445179D01*
X248969Y445172D01*
X249059Y445127D01*
X250894Y444367D01*
X254467Y440794D01*
X256401Y436126D01*
X256401Y431074D01*
X254467Y426406D01*
X250894Y422833D01*
X249059Y422073D01*
X248938Y422004D01*
X248815Y421939D01*
X248800Y421925D01*
X248783Y421915D01*
X248683Y421818D01*
X248580Y421725D01*
X248569Y421708D01*
X248554Y421694D01*
X248481Y421575D01*
X248405Y421459D01*
X248399Y421440D01*
X248388Y421423D01*
X248347Y421290D01*
X248302Y421158D01*
X248300Y421138D01*
X248295Y421119D01*
X248288Y420980D01*
X248277Y420841D01*
X248280Y420821D01*
X248279Y420801D01*
X248307Y420665D01*
X248331Y420528D01*
X248340Y420509D01*
X248344Y420490D01*
X248405Y420364D01*
X248462Y420238D01*
X248474Y420222D01*
X248483Y420204D01*
X248573Y420098D01*
X248660Y419990D01*
X248677Y419977D01*
X248690Y419962D01*
X248803Y419882D01*
X248915Y419798D01*
X248940Y419786D01*
X248950Y419779D01*
X248969Y419772D01*
X249059Y419727D01*
X250894Y418967D01*
X254467Y415394D01*
X256401Y410726D01*
X256401Y405674D01*
X254467Y401006D01*
X250894Y397433D01*
X249059Y396673D01*
X248938Y396604D01*
X248815Y396539D01*
X248800Y396525D01*
X248783Y396515D01*
X248683Y396418D01*
X248580Y396325D01*
X248569Y396308D01*
X248554Y396294D01*
X248481Y396175D01*
X248405Y396059D01*
X248399Y396040D01*
X248388Y396023D01*
X248347Y395890D01*
X248302Y395758D01*
X248300Y395738D01*
X248295Y395719D01*
X248288Y395580D01*
X248277Y395441D01*
X248280Y395421D01*
X248279Y395401D01*
X248307Y395265D01*
X248331Y395128D01*
X248340Y395109D01*
X248344Y395090D01*
X248405Y394964D01*
X248462Y394838D01*
X248474Y394822D01*
X248483Y394804D01*
X248573Y394698D01*
X248660Y394590D01*
X248677Y394577D01*
X248690Y394562D01*
X248803Y394482D01*
X248915Y394398D01*
X248940Y394386D01*
X248950Y394379D01*
X248969Y394372D01*
X249059Y394327D01*
X250894Y393567D01*
X254467Y389994D01*
X256401Y385326D01*
X256401Y380274D01*
X254467Y375606D01*
X250894Y372033D01*
X249059Y371273D01*
X248938Y371204D01*
X248815Y371139D01*
X248800Y371125D01*
X248783Y371115D01*
X248683Y371018D01*
X248580Y370925D01*
X248569Y370908D01*
X248554Y370894D01*
X248481Y370775D01*
X248405Y370659D01*
X248399Y370640D01*
X248388Y370623D01*
X248347Y370490D01*
X248302Y370358D01*
X248300Y370338D01*
X248295Y370319D01*
X248288Y370180D01*
X248277Y370041D01*
X248280Y370021D01*
X248279Y370001D01*
X248307Y369865D01*
X248331Y369728D01*
X248340Y369709D01*
X248344Y369690D01*
X248405Y369564D01*
X248462Y369438D01*
X248474Y369422D01*
X248483Y369404D01*
X248573Y369298D01*
X248660Y369190D01*
X248677Y369177D01*
X248690Y369162D01*
X248803Y369082D01*
X248915Y368998D01*
X248940Y368986D01*
X248950Y368979D01*
X248969Y368972D01*
X249059Y368927D01*
X250894Y368167D01*
X254467Y364594D01*
X256401Y359926D01*
X256401Y354874D01*
X254467Y350206D01*
X250894Y346633D01*
X249059Y345873D01*
X248938Y345804D01*
X248815Y345739D01*
X248800Y345725D01*
X248783Y345715D01*
X248683Y345618D01*
X248580Y345525D01*
X248569Y345508D01*
X248554Y345494D01*
X248481Y345375D01*
X248405Y345259D01*
X248399Y345240D01*
X248388Y345223D01*
X248347Y345090D01*
X248302Y344958D01*
X248300Y344938D01*
X248295Y344919D01*
X248288Y344780D01*
X248277Y344641D01*
X248280Y344621D01*
X248279Y344601D01*
X248307Y344465D01*
X248331Y344328D01*
X248340Y344309D01*
X248344Y344290D01*
X248405Y344164D01*
X248462Y344038D01*
X248474Y344022D01*
X248483Y344004D01*
X248573Y343898D01*
X248660Y343790D01*
X248677Y343777D01*
X248690Y343762D01*
X248803Y343682D01*
X248915Y343598D01*
X248940Y343586D01*
X248950Y343579D01*
X248969Y343572D01*
X249059Y343527D01*
X250894Y342767D01*
X254467Y339194D01*
X256401Y334526D01*
X256401Y329474D01*
X254467Y324806D01*
X250894Y321233D01*
X249059Y320473D01*
X248938Y320404D01*
X248815Y320339D01*
X248800Y320325D01*
X248783Y320315D01*
X248683Y320218D01*
X248580Y320125D01*
X248569Y320108D01*
X248554Y320094D01*
X248481Y319975D01*
X248405Y319859D01*
X248399Y319840D01*
X248388Y319823D01*
X248347Y319690D01*
X248302Y319558D01*
X248300Y319538D01*
X248295Y319519D01*
X248288Y319380D01*
X248277Y319241D01*
X248280Y319221D01*
X248279Y319201D01*
X248307Y319065D01*
X248331Y318928D01*
X248340Y318909D01*
X248344Y318890D01*
X248405Y318764D01*
X248462Y318638D01*
X248474Y318622D01*
X248483Y318604D01*
X248573Y318498D01*
X248660Y318390D01*
X248677Y318377D01*
X248690Y318362D01*
X248803Y318282D01*
X248915Y318198D01*
X248940Y318186D01*
X248950Y318179D01*
X248969Y318172D01*
X249059Y318127D01*
X250894Y317367D01*
X254467Y313794D01*
X256401Y309126D01*
X256401Y304074D01*
X254467Y299406D01*
X250894Y295833D01*
X249059Y295073D01*
X248938Y295004D01*
X248815Y294939D01*
X248800Y294925D01*
X248783Y294915D01*
X248683Y294818D01*
X248580Y294725D01*
X248569Y294708D01*
X248554Y294694D01*
X248481Y294575D01*
X248405Y294459D01*
X248399Y294440D01*
X248388Y294423D01*
X248347Y294290D01*
X248302Y294158D01*
X248300Y294138D01*
X248295Y294119D01*
X248288Y293980D01*
X248277Y293841D01*
X248280Y293821D01*
X248279Y293801D01*
X248307Y293665D01*
X248331Y293528D01*
X248340Y293509D01*
X248344Y293490D01*
X248405Y293364D01*
X248462Y293238D01*
X248474Y293222D01*
X248483Y293204D01*
X248573Y293098D01*
X248660Y292990D01*
X248677Y292977D01*
X248690Y292962D01*
X248803Y292882D01*
X248915Y292798D01*
X248940Y292786D01*
X248950Y292779D01*
X248969Y292772D01*
X249059Y292727D01*
X250894Y291967D01*
X254467Y288394D01*
X256401Y283726D01*
X256401Y278674D01*
X254467Y274006D01*
X250894Y270433D01*
X249059Y269673D01*
X248938Y269604D01*
X248815Y269539D01*
X248800Y269525D01*
X248783Y269515D01*
X248683Y269418D01*
X248580Y269325D01*
X248569Y269308D01*
X248554Y269294D01*
X248481Y269175D01*
X248405Y269059D01*
X248399Y269040D01*
X248388Y269023D01*
X248347Y268890D01*
X248302Y268758D01*
X248300Y268738D01*
X248295Y268719D01*
X248288Y268580D01*
X248277Y268441D01*
X248280Y268421D01*
X248279Y268401D01*
X248307Y268265D01*
X248331Y268128D01*
X248340Y268109D01*
X248344Y268090D01*
X248405Y267964D01*
X248462Y267838D01*
X248474Y267822D01*
X248483Y267804D01*
X248573Y267698D01*
X248660Y267590D01*
X248677Y267577D01*
X248690Y267562D01*
X248803Y267482D01*
X248915Y267398D01*
X248940Y267386D01*
X248950Y267379D01*
X248969Y267372D01*
X249059Y267327D01*
X250894Y266567D01*
X254467Y262994D01*
X256401Y258326D01*
X256401Y253274D01*
X254467Y248606D01*
X250894Y245033D01*
X246226Y243099D01*
X241174Y243099D01*
X236506Y245033D01*
X232933Y248606D01*
X230999Y253274D01*
X230999Y258326D01*
X232933Y262994D01*
X236506Y266567D01*
X238341Y267327D01*
X238461Y267396D01*
X238585Y267461D01*
X238600Y267475D01*
X238617Y267485D01*
X238717Y267582D01*
X238820Y267675D01*
X238831Y267692D01*
X238846Y267706D01*
X238918Y267824D01*
X238995Y267941D01*
X239001Y267960D01*
X239012Y267977D01*
X239053Y268110D01*
X239098Y268242D01*
X239100Y268262D01*
X239105Y268281D01*
X239112Y268420D01*
X239123Y268559D01*
X239120Y268579D01*
X239121Y268599D01*
X239093Y268735D01*
X239069Y268872D01*
X239060Y268891D01*
X239056Y268910D01*
X238995Y269035D01*
X238938Y269162D01*
X238926Y269178D01*
X238917Y269196D01*
X238826Y269302D01*
X238740Y269410D01*
X238723Y269423D01*
X238710Y269438D01*
X238596Y269518D01*
X238485Y269602D01*
X238460Y269614D01*
X238450Y269621D01*
X238431Y269628D01*
X238341Y269673D01*
X236506Y270433D01*
X232933Y274006D01*
X230999Y278674D01*
X230999Y283726D01*
X232933Y288394D01*
X236506Y291967D01*
X238341Y292727D01*
X238461Y292796D01*
X238585Y292861D01*
X238600Y292875D01*
X238617Y292885D01*
X238717Y292982D01*
X238820Y293075D01*
X238831Y293092D01*
X238846Y293106D01*
X238918Y293224D01*
X238995Y293341D01*
X239001Y293360D01*
X239012Y293377D01*
X239053Y293510D01*
X239098Y293642D01*
X239100Y293662D01*
X239105Y293681D01*
X239112Y293820D01*
X239123Y293959D01*
X239120Y293979D01*
X239121Y293999D01*
X239093Y294135D01*
X239069Y294272D01*
X239060Y294291D01*
X239056Y294310D01*
X238995Y294435D01*
X238938Y294562D01*
X238926Y294578D01*
X238917Y294596D01*
X238826Y294702D01*
X238740Y294810D01*
X238723Y294823D01*
X238710Y294838D01*
X238596Y294918D01*
X238485Y295002D01*
X238460Y295014D01*
X238450Y295021D01*
X238431Y295028D01*
X238341Y295073D01*
X236506Y295833D01*
X232933Y299406D01*
X230999Y304074D01*
X230999Y309126D01*
X232933Y313794D01*
X236506Y317367D01*
X238341Y318127D01*
X238461Y318196D01*
X238585Y318261D01*
X238600Y318275D01*
X238617Y318285D01*
X238717Y318382D01*
X238820Y318475D01*
X238831Y318492D01*
X238846Y318506D01*
X238918Y318624D01*
X238995Y318741D01*
X239001Y318760D01*
X239012Y318777D01*
X239053Y318910D01*
X239098Y319042D01*
X239100Y319062D01*
X239105Y319081D01*
X239112Y319220D01*
X239123Y319359D01*
X239120Y319379D01*
X239121Y319399D01*
X239093Y319535D01*
X239069Y319672D01*
X239060Y319691D01*
X239056Y319710D01*
X238995Y319835D01*
X238938Y319962D01*
X238926Y319978D01*
X238917Y319996D01*
X238826Y320102D01*
X238740Y320210D01*
X238723Y320223D01*
X238710Y320238D01*
X238596Y320318D01*
X238485Y320402D01*
X238460Y320414D01*
X238450Y320421D01*
X238431Y320428D01*
X238341Y320473D01*
X236506Y321233D01*
X232933Y324806D01*
X230999Y329474D01*
X230999Y334526D01*
X232933Y339194D01*
X236506Y342767D01*
X238341Y343527D01*
X238461Y343596D01*
X238585Y343661D01*
X238600Y343675D01*
X238617Y343685D01*
X238717Y343782D01*
X238820Y343875D01*
X238831Y343892D01*
X238846Y343906D01*
X238918Y344024D01*
X238995Y344141D01*
X239001Y344160D01*
X239012Y344177D01*
X239053Y344310D01*
X239098Y344442D01*
X239100Y344462D01*
X239105Y344481D01*
X239112Y344619D01*
X239123Y344759D01*
X239120Y344779D01*
X239121Y344799D01*
X239093Y344935D01*
X239069Y345072D01*
X239060Y345091D01*
X239056Y345110D01*
X238995Y345235D01*
X238938Y345362D01*
X238926Y345378D01*
X238917Y345396D01*
X238826Y345502D01*
X238740Y345610D01*
X238723Y345623D01*
X238710Y345638D01*
X238596Y345718D01*
X238485Y345802D01*
X238460Y345814D01*
X238450Y345821D01*
X238431Y345828D01*
X238341Y345873D01*
X236506Y346633D01*
X232933Y350206D01*
X230999Y354874D01*
X230999Y359926D01*
X231003Y359934D01*
X231016Y359982D01*
X231037Y360027D01*
X231057Y360135D01*
X231086Y360241D01*
X231087Y360291D01*
X231097Y360340D01*
X231090Y360449D01*
X231092Y360559D01*
X231080Y360607D01*
X231077Y360657D01*
X231043Y360761D01*
X231017Y360868D01*
X230994Y360912D01*
X230979Y360959D01*
X230920Y361052D01*
X230869Y361149D01*
X230835Y361186D01*
X230809Y361228D01*
X230729Y361303D01*
X230655Y361385D01*
X230613Y361412D01*
X230577Y361446D01*
X230481Y361499D01*
X230389Y361559D01*
X230342Y361576D01*
X230299Y361600D01*
X230192Y361627D01*
X230088Y361663D01*
X230039Y361667D01*
X229991Y361679D01*
X229830Y361689D01*
X218698Y361689D01*
X218573Y361674D01*
X218448Y361664D01*
X218416Y361654D01*
X218382Y361649D01*
X218266Y361603D01*
X218146Y361563D01*
X218118Y361545D01*
X218087Y361532D01*
X217985Y361459D01*
X217879Y361390D01*
X217857Y361365D01*
X217829Y361346D01*
X217749Y361249D01*
X217664Y361156D01*
X217648Y361126D01*
X217626Y361101D01*
X217573Y360987D01*
X217513Y360876D01*
X217505Y360843D01*
X217491Y360813D01*
X217467Y360690D01*
X217437Y360567D01*
X217437Y360534D01*
X217431Y360501D01*
X217439Y360375D01*
X217440Y360249D01*
X217450Y360201D01*
X217451Y360183D01*
X217458Y360163D01*
X217472Y360091D01*
X217541Y359834D01*
X217541Y353039D01*
X208270Y353039D01*
X208152Y353024D01*
X208033Y353017D01*
X207995Y353004D01*
X207955Y352999D01*
X207844Y352955D01*
X207731Y352919D01*
X207696Y352897D01*
X207659Y352882D01*
X207563Y352812D01*
X207462Y352749D01*
X207434Y352719D01*
X207402Y352695D01*
X207326Y352604D01*
X207244Y352517D01*
X207225Y352482D01*
X207199Y352450D01*
X207148Y352343D01*
X207091Y352239D01*
X207080Y352199D01*
X207063Y352163D01*
X207041Y352046D01*
X207011Y351931D01*
X207007Y351870D01*
X207003Y351850D01*
X207005Y351830D01*
X207001Y351770D01*
X207001Y350499D01*
X206999Y350499D01*
X206999Y351770D01*
X206984Y351888D01*
X206977Y352007D01*
X206964Y352045D01*
X206959Y352085D01*
X206915Y352196D01*
X206879Y352309D01*
X206857Y352344D01*
X206842Y352381D01*
X206772Y352477D01*
X206709Y352578D01*
X206679Y352606D01*
X206655Y352638D01*
X206564Y352714D01*
X206477Y352796D01*
X206442Y352815D01*
X206410Y352841D01*
X206303Y352892D01*
X206199Y352949D01*
X206159Y352960D01*
X206123Y352977D01*
X206006Y352999D01*
X205891Y353029D01*
X205830Y353033D01*
X205810Y353037D01*
X205790Y353035D01*
X205730Y353039D01*
X196459Y353039D01*
X196459Y359506D01*
X196442Y359643D01*
X196429Y359782D01*
X196422Y359801D01*
X196419Y359821D01*
X196368Y359950D01*
X196321Y360081D01*
X196310Y360098D01*
X196302Y360117D01*
X196221Y360229D01*
X196143Y360345D01*
X196128Y360358D01*
X196116Y360374D01*
X196008Y360463D01*
X195904Y360555D01*
X195886Y360564D01*
X195871Y360577D01*
X195745Y360636D01*
X195621Y360700D01*
X195601Y360704D01*
X195583Y360713D01*
X195447Y360739D01*
X195311Y360769D01*
X195290Y360769D01*
X195271Y360773D01*
X195132Y360764D01*
X194993Y360760D01*
X194973Y360754D01*
X194953Y360753D01*
X194821Y360710D01*
X194687Y360671D01*
X194670Y360661D01*
X194651Y360655D01*
X194533Y360580D01*
X194413Y360510D01*
X194392Y360491D01*
X194382Y360485D01*
X194368Y360470D01*
X194293Y360403D01*
X190420Y356531D01*
X190360Y356453D01*
X190292Y356381D01*
X190263Y356328D01*
X190226Y356280D01*
X190186Y356189D01*
X190138Y356102D01*
X190123Y356044D01*
X190099Y355988D01*
X190084Y355890D01*
X190059Y355795D01*
X190053Y355694D01*
X190049Y355674D01*
X190051Y355662D01*
X190049Y355634D01*
X190049Y345366D01*
X190061Y345268D01*
X190064Y345169D01*
X190081Y345111D01*
X190089Y345051D01*
X190125Y344959D01*
X190153Y344863D01*
X190183Y344811D01*
X190206Y344755D01*
X190264Y344675D01*
X190314Y344590D01*
X190380Y344514D01*
X190392Y344498D01*
X190402Y344490D01*
X190420Y344469D01*
X194293Y340597D01*
X194402Y340511D01*
X194509Y340423D01*
X194528Y340414D01*
X194544Y340402D01*
X194672Y340346D01*
X194797Y340287D01*
X194817Y340283D01*
X194836Y340275D01*
X194974Y340253D01*
X195110Y340227D01*
X195130Y340229D01*
X195150Y340226D01*
X195289Y340239D01*
X195427Y340247D01*
X195446Y340253D01*
X195466Y340255D01*
X195598Y340303D01*
X195729Y340345D01*
X195747Y340356D01*
X195766Y340363D01*
X195881Y340441D01*
X195998Y340515D01*
X196012Y340530D01*
X196029Y340542D01*
X196121Y340646D01*
X196216Y340747D01*
X196226Y340765D01*
X196239Y340780D01*
X196302Y340904D01*
X196370Y341026D01*
X196375Y341045D01*
X196384Y341063D01*
X196414Y341199D01*
X196449Y341333D01*
X196451Y341362D01*
X196454Y341373D01*
X196453Y341394D01*
X196459Y341494D01*
X196459Y347961D01*
X204461Y347961D01*
X204461Y338959D01*
X198994Y338959D01*
X198857Y338942D01*
X198718Y338929D01*
X198699Y338922D01*
X198679Y338919D01*
X198550Y338868D01*
X198419Y338821D01*
X198402Y338810D01*
X198383Y338802D01*
X198270Y338721D01*
X198155Y338643D01*
X198142Y338627D01*
X198126Y338616D01*
X198037Y338508D01*
X197945Y338404D01*
X197936Y338386D01*
X197923Y338371D01*
X197864Y338245D01*
X197800Y338121D01*
X197796Y338101D01*
X197787Y338083D01*
X197761Y337947D01*
X197731Y337811D01*
X197731Y337790D01*
X197727Y337771D01*
X197736Y337632D01*
X197740Y337493D01*
X197746Y337473D01*
X197747Y337453D01*
X197790Y337321D01*
X197829Y337187D01*
X197839Y337170D01*
X197845Y337151D01*
X197920Y337033D01*
X197990Y336913D01*
X198009Y336892D01*
X198015Y336882D01*
X198030Y336868D01*
X198097Y336793D01*
X201025Y333864D01*
X201025Y332810D01*
X201040Y332692D01*
X201047Y332573D01*
X201060Y332535D01*
X201065Y332494D01*
X201108Y332384D01*
X201145Y332271D01*
X201167Y332236D01*
X201182Y332199D01*
X201251Y332103D01*
X201315Y332002D01*
X201345Y331974D01*
X201368Y331941D01*
X201460Y331865D01*
X201547Y331784D01*
X201582Y331764D01*
X201613Y331739D01*
X201721Y331688D01*
X201825Y331630D01*
X201865Y331620D01*
X201901Y331603D01*
X202018Y331581D01*
X202133Y331551D01*
X202193Y331547D01*
X202213Y331543D01*
X202234Y331545D01*
X202294Y331541D01*
X204961Y331541D01*
X204961Y321270D01*
X204976Y321152D01*
X204983Y321033D01*
X204996Y320995D01*
X205001Y320955D01*
X205044Y320844D01*
X205081Y320731D01*
X205103Y320696D01*
X205118Y320659D01*
X205188Y320563D01*
X205251Y320462D01*
X205281Y320434D01*
X205305Y320402D01*
X205396Y320326D01*
X205483Y320244D01*
X205518Y320225D01*
X205549Y320199D01*
X205657Y320148D01*
X205761Y320091D01*
X205801Y320080D01*
X205837Y320063D01*
X205954Y320041D01*
X206069Y320011D01*
X206130Y320007D01*
X206150Y320003D01*
X206170Y320005D01*
X206230Y320001D01*
X207501Y320001D01*
X207501Y319999D01*
X206230Y319999D01*
X206112Y319984D01*
X205993Y319977D01*
X205955Y319964D01*
X205915Y319959D01*
X205804Y319915D01*
X205691Y319879D01*
X205656Y319857D01*
X205619Y319842D01*
X205523Y319772D01*
X205422Y319709D01*
X205394Y319679D01*
X205361Y319655D01*
X205286Y319564D01*
X205204Y319477D01*
X205184Y319442D01*
X205159Y319410D01*
X205108Y319303D01*
X205050Y319199D01*
X205040Y319159D01*
X205023Y319123D01*
X205001Y319006D01*
X204971Y318891D01*
X204967Y318830D01*
X204963Y318810D01*
X204965Y318790D01*
X204961Y318730D01*
X204961Y308459D01*
X202294Y308459D01*
X202176Y308444D01*
X202057Y308437D01*
X202019Y308424D01*
X201978Y308419D01*
X201868Y308376D01*
X201755Y308339D01*
X201720Y308317D01*
X201683Y308302D01*
X201587Y308233D01*
X201486Y308169D01*
X201458Y308139D01*
X201425Y308116D01*
X201349Y308024D01*
X201268Y307937D01*
X201248Y307902D01*
X201223Y307871D01*
X201172Y307763D01*
X201114Y307659D01*
X201104Y307619D01*
X201087Y307583D01*
X201065Y307466D01*
X201035Y307351D01*
X201031Y307291D01*
X201027Y307271D01*
X201029Y307250D01*
X201025Y307190D01*
X201025Y302810D01*
X201040Y302692D01*
X201047Y302573D01*
X201060Y302535D01*
X201065Y302494D01*
X201108Y302384D01*
X201145Y302271D01*
X201167Y302236D01*
X201182Y302199D01*
X201251Y302103D01*
X201315Y302002D01*
X201345Y301974D01*
X201368Y301941D01*
X201460Y301865D01*
X201547Y301784D01*
X201582Y301764D01*
X201613Y301739D01*
X201721Y301688D01*
X201825Y301630D01*
X201865Y301620D01*
X201901Y301603D01*
X202018Y301581D01*
X202133Y301551D01*
X202193Y301547D01*
X202213Y301543D01*
X202234Y301545D01*
X202294Y301541D01*
X204961Y301541D01*
X204961Y291270D01*
X204976Y291152D01*
X204983Y291033D01*
X204996Y290995D01*
X205001Y290955D01*
X205044Y290844D01*
X205081Y290731D01*
X205103Y290696D01*
X205118Y290659D01*
X205188Y290563D01*
X205251Y290462D01*
X205281Y290434D01*
X205305Y290402D01*
X205396Y290326D01*
X205483Y290244D01*
X205518Y290225D01*
X205549Y290199D01*
X205657Y290148D01*
X205761Y290091D01*
X205801Y290080D01*
X205837Y290063D01*
X205954Y290041D01*
X206069Y290011D01*
X206130Y290007D01*
X206150Y290003D01*
X206170Y290005D01*
X206230Y290001D01*
X207501Y290001D01*
X207501Y289999D01*
X206230Y289999D01*
X206112Y289984D01*
X205993Y289977D01*
X205955Y289964D01*
X205915Y289959D01*
X205804Y289915D01*
X205691Y289879D01*
X205656Y289857D01*
X205619Y289842D01*
X205523Y289772D01*
X205422Y289709D01*
X205394Y289679D01*
X205361Y289655D01*
X205286Y289564D01*
X205204Y289477D01*
X205184Y289442D01*
X205159Y289410D01*
X205108Y289303D01*
X205050Y289199D01*
X205040Y289159D01*
X205023Y289123D01*
X205001Y289006D01*
X204971Y288891D01*
X204967Y288830D01*
X204963Y288810D01*
X204965Y288790D01*
X204961Y288730D01*
X204961Y278459D01*
X202294Y278459D01*
X202176Y278444D01*
X202057Y278437D01*
X202019Y278424D01*
X201978Y278419D01*
X201868Y278376D01*
X201755Y278339D01*
X201720Y278317D01*
X201683Y278302D01*
X201587Y278233D01*
X201486Y278169D01*
X201458Y278139D01*
X201425Y278116D01*
X201349Y278024D01*
X201268Y277937D01*
X201248Y277902D01*
X201223Y277871D01*
X201172Y277763D01*
X201114Y277659D01*
X201104Y277619D01*
X201087Y277583D01*
X201065Y277466D01*
X201035Y277351D01*
X201031Y277291D01*
X201027Y277271D01*
X201029Y277250D01*
X201025Y277190D01*
X201025Y272810D01*
X201040Y272692D01*
X201047Y272573D01*
X201060Y272535D01*
X201065Y272494D01*
X201108Y272384D01*
X201145Y272271D01*
X201167Y272236D01*
X201182Y272199D01*
X201251Y272103D01*
X201315Y272002D01*
X201345Y271974D01*
X201368Y271941D01*
X201460Y271865D01*
X201547Y271784D01*
X201582Y271764D01*
X201613Y271739D01*
X201721Y271688D01*
X201825Y271630D01*
X201865Y271620D01*
X201901Y271603D01*
X202018Y271581D01*
X202133Y271551D01*
X202193Y271547D01*
X202213Y271543D01*
X202234Y271545D01*
X202294Y271541D01*
X204961Y271541D01*
X204961Y261270D01*
X204976Y261152D01*
X204983Y261033D01*
X204996Y260995D01*
X205001Y260955D01*
X205044Y260844D01*
X205081Y260731D01*
X205103Y260696D01*
X205118Y260659D01*
X205188Y260563D01*
X205251Y260462D01*
X205281Y260434D01*
X205305Y260402D01*
X205396Y260326D01*
X205483Y260244D01*
X205518Y260225D01*
X205549Y260199D01*
X205657Y260148D01*
X205761Y260091D01*
X205801Y260080D01*
X205837Y260063D01*
X205954Y260041D01*
X206069Y260011D01*
X206130Y260007D01*
X206150Y260003D01*
X206170Y260005D01*
X206230Y260001D01*
X207501Y260001D01*
X207501Y258730D01*
X207516Y258612D01*
X207523Y258493D01*
X207536Y258455D01*
X207541Y258415D01*
X207585Y258304D01*
X207621Y258191D01*
X207643Y258156D01*
X207658Y258119D01*
X207728Y258023D01*
X207791Y257922D01*
X207821Y257894D01*
X207845Y257861D01*
X207936Y257786D01*
X208023Y257704D01*
X208058Y257684D01*
X208090Y257659D01*
X208197Y257608D01*
X208301Y257550D01*
X208341Y257540D01*
X208377Y257523D01*
X208494Y257501D01*
X208609Y257471D01*
X208670Y257467D01*
X208690Y257463D01*
X208710Y257465D01*
X208770Y257461D01*
X218041Y257461D01*
X218041Y253772D01*
X218056Y253654D01*
X218063Y253535D01*
X218076Y253497D01*
X218081Y253456D01*
X218124Y253346D01*
X218161Y253233D01*
X218183Y253198D01*
X218198Y253161D01*
X218267Y253065D01*
X218331Y252964D01*
X218361Y252936D01*
X218384Y252903D01*
X218476Y252827D01*
X218563Y252746D01*
X218598Y252726D01*
X218629Y252701D01*
X218737Y252650D01*
X218841Y252592D01*
X218881Y252582D01*
X218917Y252565D01*
X219034Y252543D01*
X219149Y252513D01*
X219209Y252509D01*
X219229Y252505D01*
X219250Y252507D01*
X219310Y252503D01*
X221078Y252503D01*
X223402Y251540D01*
X225180Y249762D01*
X226143Y247438D01*
X226143Y244922D01*
X225180Y242598D01*
X223402Y240820D01*
X221078Y239857D01*
X218562Y239857D01*
X218260Y239983D01*
X218193Y240001D01*
X218129Y240029D01*
X218040Y240043D01*
X217953Y240066D01*
X217884Y240068D01*
X217815Y240079D01*
X217725Y240070D01*
X217635Y240072D01*
X217567Y240055D01*
X217498Y240049D01*
X217413Y240018D01*
X217326Y239997D01*
X217264Y239965D01*
X217199Y239941D01*
X217124Y239891D01*
X217045Y239849D01*
X216993Y239802D01*
X216936Y239763D01*
X216876Y239695D01*
X216810Y239635D01*
X216771Y239576D01*
X216725Y239524D01*
X216684Y239444D01*
X216635Y239369D01*
X216612Y239303D01*
X216580Y239241D01*
X216561Y239153D01*
X216532Y239068D01*
X216526Y238999D01*
X216511Y238931D01*
X216513Y238841D01*
X216506Y238751D01*
X216518Y238682D01*
X216520Y238613D01*
X216545Y238526D01*
X216561Y238438D01*
X216589Y238374D01*
X216609Y238307D01*
X216654Y238230D01*
X216691Y238148D01*
X216735Y238093D01*
X216770Y238033D01*
X216877Y237912D01*
X242685Y212104D01*
X242708Y212086D01*
X242727Y212064D01*
X242833Y211989D01*
X242936Y211910D01*
X242963Y211898D01*
X242987Y211881D01*
X243109Y211835D01*
X243228Y211783D01*
X243257Y211779D01*
X243285Y211768D01*
X243414Y211754D01*
X243542Y211733D01*
X243571Y211736D01*
X243601Y211733D01*
X243729Y211751D01*
X243859Y211763D01*
X243886Y211773D01*
X243916Y211777D01*
X244068Y211829D01*
X246524Y212847D01*
X251476Y212847D01*
X256050Y210952D01*
X257563Y209440D01*
X257672Y209355D01*
X257779Y209266D01*
X257798Y209257D01*
X257814Y209245D01*
X257942Y209189D01*
X258067Y209130D01*
X258087Y209127D01*
X258106Y209119D01*
X258244Y209097D01*
X258380Y209071D01*
X258400Y209072D01*
X258420Y209069D01*
X258559Y209082D01*
G37*
G36*
X58794Y176223D02*
X58794Y176223D01*
X58893Y176226D01*
X58951Y176243D01*
X59011Y176251D01*
X59103Y176287D01*
X59199Y176315D01*
X59251Y176345D01*
X59307Y176368D01*
X59387Y176426D01*
X59472Y176476D01*
X59548Y176542D01*
X59564Y176554D01*
X59572Y176564D01*
X59593Y176582D01*
X96405Y213395D01*
X96491Y213505D01*
X96579Y213611D01*
X96588Y213630D01*
X96600Y213646D01*
X96656Y213774D01*
X96715Y213899D01*
X96719Y213919D01*
X96727Y213938D01*
X96748Y214075D01*
X96775Y214212D01*
X96773Y214232D01*
X96776Y214252D01*
X96763Y214391D01*
X96755Y214529D01*
X96749Y214548D01*
X96747Y214568D01*
X96700Y214699D01*
X96657Y214831D01*
X96646Y214849D01*
X96639Y214868D01*
X96561Y214983D01*
X96487Y215100D01*
X96472Y215114D01*
X96460Y215131D01*
X96356Y215223D01*
X96255Y215318D01*
X96237Y215328D01*
X96222Y215341D01*
X96098Y215405D01*
X95976Y215472D01*
X95957Y215477D01*
X95939Y215486D01*
X95803Y215516D01*
X95669Y215551D01*
X95640Y215553D01*
X95629Y215556D01*
X95608Y215555D01*
X95508Y215561D01*
X93039Y215561D01*
X93039Y226230D01*
X93024Y226348D01*
X93017Y226467D01*
X93004Y226505D01*
X92999Y226545D01*
X92956Y226656D01*
X92919Y226769D01*
X92897Y226803D01*
X92882Y226841D01*
X92812Y226937D01*
X92749Y227038D01*
X92719Y227066D01*
X92695Y227098D01*
X92604Y227174D01*
X92517Y227256D01*
X92482Y227275D01*
X92451Y227301D01*
X92343Y227352D01*
X92239Y227409D01*
X92199Y227420D01*
X92163Y227437D01*
X92046Y227459D01*
X91931Y227489D01*
X91870Y227493D01*
X91850Y227497D01*
X91830Y227495D01*
X91770Y227499D01*
X90499Y227499D01*
X90499Y228770D01*
X90484Y228888D01*
X90477Y229007D01*
X90464Y229045D01*
X90459Y229085D01*
X90415Y229196D01*
X90379Y229309D01*
X90357Y229344D01*
X90342Y229381D01*
X90272Y229477D01*
X90209Y229578D01*
X90179Y229606D01*
X90155Y229639D01*
X90064Y229714D01*
X89977Y229796D01*
X89942Y229816D01*
X89910Y229841D01*
X89803Y229892D01*
X89698Y229950D01*
X89659Y229960D01*
X89623Y229977D01*
X89506Y229999D01*
X89391Y230029D01*
X89330Y230033D01*
X89310Y230037D01*
X89290Y230035D01*
X89230Y230039D01*
X78561Y230039D01*
X78561Y237232D01*
X78734Y237879D01*
X78905Y238175D01*
X78949Y238278D01*
X79000Y238379D01*
X79010Y238425D01*
X79029Y238468D01*
X79045Y238579D01*
X79070Y238689D01*
X79068Y238736D01*
X79075Y238783D01*
X79064Y238894D01*
X79060Y239007D01*
X79047Y239052D01*
X79042Y239099D01*
X79003Y239204D01*
X78972Y239312D01*
X78948Y239353D01*
X78931Y239397D01*
X78867Y239489D01*
X78810Y239586D01*
X78762Y239641D01*
X78750Y239658D01*
X78736Y239670D01*
X78704Y239707D01*
X31030Y287381D01*
X30975Y287424D01*
X30926Y287474D01*
X30850Y287521D01*
X30779Y287576D01*
X30715Y287603D01*
X30655Y287640D01*
X30570Y287666D01*
X30487Y287702D01*
X30418Y287713D01*
X30351Y287733D01*
X30262Y287738D01*
X30173Y287752D01*
X30103Y287745D01*
X30034Y287749D01*
X29946Y287730D01*
X29856Y287722D01*
X29790Y287698D01*
X29722Y287684D01*
X29642Y287645D01*
X29557Y287614D01*
X29499Y287575D01*
X29437Y287545D01*
X29368Y287486D01*
X29294Y287436D01*
X29248Y287384D01*
X29195Y287338D01*
X29143Y287265D01*
X29083Y287197D01*
X29052Y287135D01*
X29011Y287078D01*
X28980Y286994D01*
X28939Y286914D01*
X28923Y286846D01*
X28899Y286781D01*
X28889Y286691D01*
X28869Y286604D01*
X28871Y286534D01*
X28863Y286465D01*
X28876Y286376D01*
X28879Y286286D01*
X28898Y286219D01*
X28908Y286150D01*
X28960Y285998D01*
X29901Y283726D01*
X29901Y278674D01*
X27967Y274006D01*
X24394Y270433D01*
X21943Y269417D01*
X21865Y269373D01*
X21783Y269337D01*
X21727Y269295D01*
X21666Y269260D01*
X21602Y269197D01*
X21531Y269143D01*
X21488Y269087D01*
X21438Y269039D01*
X21391Y268962D01*
X21336Y268891D01*
X21308Y268827D01*
X21272Y268767D01*
X21245Y268682D01*
X21210Y268600D01*
X21199Y268530D01*
X21178Y268463D01*
X21174Y268374D01*
X21160Y268286D01*
X21166Y268216D01*
X21163Y268146D01*
X21181Y268058D01*
X21189Y267969D01*
X21213Y267903D01*
X21227Y267834D01*
X21267Y267754D01*
X21297Y267670D01*
X21336Y267612D01*
X21367Y267549D01*
X21425Y267480D01*
X21475Y267406D01*
X21528Y267360D01*
X21573Y267307D01*
X21647Y267255D01*
X21714Y267196D01*
X21821Y267132D01*
X21833Y267124D01*
X21840Y267121D01*
X21852Y267114D01*
X23590Y266228D01*
X25143Y265100D01*
X26500Y263743D01*
X27628Y262190D01*
X28499Y260480D01*
X29093Y258655D01*
X29149Y258299D01*
X18430Y258299D01*
X18312Y258284D01*
X18193Y258277D01*
X18155Y258264D01*
X18115Y258259D01*
X18004Y258216D01*
X17891Y258179D01*
X17857Y258157D01*
X17819Y258142D01*
X17723Y258073D01*
X17622Y258009D01*
X17594Y257979D01*
X17562Y257956D01*
X17486Y257864D01*
X17404Y257777D01*
X17385Y257742D01*
X17359Y257711D01*
X17308Y257603D01*
X17251Y257499D01*
X17241Y257459D01*
X17223Y257423D01*
X17201Y257306D01*
X17171Y257191D01*
X17167Y257131D01*
X17164Y257111D01*
X17165Y257090D01*
X17161Y257030D01*
X17161Y255839D01*
X15970Y255839D01*
X15852Y255824D01*
X15733Y255817D01*
X15695Y255804D01*
X15654Y255799D01*
X15544Y255755D01*
X15431Y255719D01*
X15396Y255697D01*
X15359Y255682D01*
X15262Y255612D01*
X15162Y255549D01*
X15134Y255519D01*
X15101Y255495D01*
X15025Y255404D01*
X14944Y255317D01*
X14924Y255282D01*
X14899Y255250D01*
X14848Y255143D01*
X14790Y255038D01*
X14780Y254999D01*
X14763Y254963D01*
X14741Y254846D01*
X14711Y254730D01*
X14707Y254670D01*
X14703Y254650D01*
X14705Y254630D01*
X14701Y254570D01*
X14701Y243851D01*
X14345Y243907D01*
X12520Y244501D01*
X10810Y245372D01*
X9257Y246500D01*
X7900Y247857D01*
X7567Y248315D01*
X7512Y248373D01*
X7466Y248438D01*
X7404Y248489D01*
X7349Y248547D01*
X7282Y248590D01*
X7221Y248641D01*
X7148Y248675D01*
X7081Y248718D01*
X7005Y248742D01*
X6933Y248776D01*
X6854Y248791D01*
X6778Y248816D01*
X6699Y248821D01*
X6620Y248836D01*
X6541Y248831D01*
X6461Y248836D01*
X6383Y248821D01*
X6303Y248816D01*
X6227Y248792D01*
X6148Y248777D01*
X6076Y248743D01*
X6001Y248718D01*
X5933Y248676D01*
X5861Y248642D01*
X5799Y248591D01*
X5732Y248548D01*
X5677Y248490D01*
X5615Y248439D01*
X5569Y248375D01*
X5514Y248317D01*
X5475Y248246D01*
X5428Y248182D01*
X5399Y248108D01*
X5360Y248038D01*
X5340Y247961D01*
X5311Y247886D01*
X5301Y247807D01*
X5281Y247730D01*
X5271Y247572D01*
X5271Y247571D01*
X5271Y247570D01*
X5271Y247569D01*
X5271Y207979D01*
X5276Y207940D01*
X5273Y207900D01*
X5296Y207783D01*
X5311Y207664D01*
X5325Y207627D01*
X5333Y207588D01*
X5384Y207479D01*
X5428Y207368D01*
X5451Y207336D01*
X5468Y207300D01*
X5544Y207208D01*
X5614Y207111D01*
X5645Y207085D01*
X5670Y207055D01*
X5767Y206984D01*
X5859Y206908D01*
X5895Y206891D01*
X5928Y206868D01*
X6039Y206823D01*
X6147Y206772D01*
X6186Y206765D01*
X6223Y206750D01*
X6342Y206735D01*
X6459Y206713D01*
X6499Y206715D01*
X6539Y206710D01*
X6657Y206725D01*
X6777Y206732D01*
X6815Y206745D01*
X6854Y206750D01*
X6966Y206794D01*
X7079Y206830D01*
X7113Y206852D01*
X7150Y206866D01*
X7286Y206953D01*
X8743Y208011D01*
X10417Y208864D01*
X12204Y209445D01*
X12461Y209485D01*
X12461Y199070D01*
X12476Y198952D01*
X12483Y198833D01*
X12496Y198795D01*
X12501Y198755D01*
X12544Y198644D01*
X12581Y198531D01*
X12603Y198497D01*
X12618Y198459D01*
X12688Y198363D01*
X12751Y198262D01*
X12781Y198234D01*
X12804Y198202D01*
X12896Y198126D01*
X12983Y198044D01*
X13018Y198025D01*
X13049Y197999D01*
X13157Y197948D01*
X13261Y197891D01*
X13301Y197880D01*
X13337Y197863D01*
X13454Y197841D01*
X13569Y197811D01*
X13630Y197807D01*
X13650Y197803D01*
X13670Y197805D01*
X13730Y197801D01*
X15001Y197801D01*
X15001Y196530D01*
X15016Y196412D01*
X15023Y196293D01*
X15036Y196255D01*
X15041Y196214D01*
X15085Y196104D01*
X15121Y195991D01*
X15143Y195956D01*
X15158Y195919D01*
X15228Y195823D01*
X15291Y195722D01*
X15321Y195694D01*
X15345Y195661D01*
X15436Y195586D01*
X15523Y195504D01*
X15558Y195484D01*
X15590Y195459D01*
X15697Y195408D01*
X15802Y195350D01*
X15841Y195340D01*
X15877Y195323D01*
X15994Y195301D01*
X16109Y195271D01*
X16170Y195267D01*
X16190Y195263D01*
X16210Y195265D01*
X16270Y195261D01*
X26685Y195261D01*
X26645Y195004D01*
X26064Y193217D01*
X25211Y191543D01*
X24106Y190022D01*
X22778Y188694D01*
X21257Y187589D01*
X19583Y186736D01*
X19118Y186585D01*
X19091Y186572D01*
X19062Y186565D01*
X18948Y186505D01*
X18830Y186450D01*
X18807Y186431D01*
X18781Y186417D01*
X18685Y186330D01*
X18585Y186247D01*
X18568Y186223D01*
X18546Y186203D01*
X18474Y186094D01*
X18398Y185990D01*
X18387Y185962D01*
X18371Y185937D01*
X18329Y185814D01*
X18281Y185694D01*
X18277Y185664D01*
X18268Y185636D01*
X18257Y185507D01*
X18241Y185379D01*
X18245Y185349D01*
X18242Y185319D01*
X18265Y185191D01*
X18281Y185063D01*
X18292Y185035D01*
X18297Y185006D01*
X18350Y184888D01*
X18398Y184767D01*
X18415Y184743D01*
X18427Y184716D01*
X18508Y184615D01*
X18584Y184510D01*
X18607Y184491D01*
X18626Y184467D01*
X18730Y184389D01*
X18829Y184307D01*
X18856Y184294D01*
X18880Y184276D01*
X19025Y184205D01*
X22050Y182952D01*
X25552Y179450D01*
X26569Y176994D01*
X26584Y176969D01*
X26593Y176941D01*
X26662Y176831D01*
X26727Y176718D01*
X26747Y176697D01*
X26763Y176672D01*
X26858Y176583D01*
X26948Y176490D01*
X26973Y176474D01*
X26995Y176454D01*
X27109Y176391D01*
X27219Y176323D01*
X27247Y176315D01*
X27273Y176300D01*
X27399Y176268D01*
X27523Y176230D01*
X27553Y176228D01*
X27581Y176221D01*
X27742Y176211D01*
X58696Y176211D01*
X58794Y176223D01*
G37*
G36*
X251588Y91716D02*
X251588Y91716D01*
X251707Y91723D01*
X251745Y91736D01*
X251785Y91741D01*
X251896Y91785D01*
X252009Y91821D01*
X252044Y91843D01*
X252081Y91858D01*
X252177Y91928D01*
X252278Y91991D01*
X252306Y92021D01*
X252339Y92045D01*
X252414Y92136D01*
X252496Y92223D01*
X252516Y92258D01*
X252541Y92290D01*
X252592Y92397D01*
X252650Y92502D01*
X252660Y92541D01*
X252677Y92577D01*
X252699Y92694D01*
X252729Y92809D01*
X252733Y92870D01*
X252737Y92890D01*
X252735Y92910D01*
X252739Y92970D01*
X252739Y103385D01*
X252996Y103345D01*
X254783Y102764D01*
X256457Y101911D01*
X257714Y100998D01*
X257749Y100979D01*
X257779Y100953D01*
X257888Y100902D01*
X257993Y100845D01*
X258031Y100835D01*
X258067Y100818D01*
X258185Y100795D01*
X258301Y100765D01*
X258340Y100765D01*
X258380Y100758D01*
X258499Y100765D01*
X258619Y100765D01*
X258657Y100775D01*
X258697Y100778D01*
X258811Y100815D01*
X258927Y100844D01*
X258962Y100864D01*
X258999Y100876D01*
X259101Y100940D01*
X259205Y100997D01*
X259234Y101025D01*
X259268Y101046D01*
X259350Y101133D01*
X259437Y101215D01*
X259459Y101249D01*
X259486Y101278D01*
X259544Y101382D01*
X259608Y101483D01*
X259620Y101521D01*
X259640Y101556D01*
X259669Y101672D01*
X259707Y101786D01*
X259709Y101826D01*
X259719Y101864D01*
X259729Y102025D01*
X259729Y111563D01*
X259712Y111700D01*
X259699Y111839D01*
X259692Y111858D01*
X259689Y111878D01*
X259638Y112007D01*
X259591Y112138D01*
X259580Y112155D01*
X259572Y112174D01*
X259491Y112286D01*
X259413Y112401D01*
X259397Y112415D01*
X259386Y112431D01*
X259278Y112520D01*
X259174Y112612D01*
X259156Y112621D01*
X259141Y112634D01*
X259015Y112693D01*
X258891Y112757D01*
X258871Y112761D01*
X258853Y112770D01*
X258716Y112796D01*
X258581Y112826D01*
X258560Y112826D01*
X258541Y112829D01*
X258402Y112821D01*
X258263Y112817D01*
X258243Y112811D01*
X258223Y112810D01*
X258091Y112767D01*
X257957Y112728D01*
X257940Y112718D01*
X257921Y112712D01*
X257803Y112637D01*
X257683Y112567D01*
X257662Y112548D01*
X257652Y112541D01*
X257638Y112526D01*
X257563Y112460D01*
X256050Y110948D01*
X251476Y109053D01*
X246524Y109053D01*
X241950Y110948D01*
X238448Y114450D01*
X236558Y119012D01*
X236494Y119124D01*
X236435Y119240D01*
X236416Y119262D01*
X236401Y119288D01*
X236311Y119381D01*
X236225Y119478D01*
X236200Y119495D01*
X236180Y119516D01*
X236069Y119584D01*
X235962Y119657D01*
X235934Y119667D01*
X235908Y119683D01*
X235785Y119721D01*
X235663Y119765D01*
X235633Y119768D01*
X235605Y119776D01*
X235475Y119783D01*
X235346Y119795D01*
X235317Y119790D01*
X235287Y119791D01*
X235160Y119765D01*
X235032Y119745D01*
X235005Y119733D01*
X234975Y119727D01*
X234859Y119670D01*
X234740Y119619D01*
X234717Y119601D01*
X234690Y119587D01*
X234591Y119503D01*
X234489Y119424D01*
X234470Y119401D01*
X234448Y119381D01*
X234373Y119275D01*
X234294Y119173D01*
X234282Y119146D01*
X234265Y119121D01*
X234241Y119058D01*
X234235Y119049D01*
X234182Y118915D01*
X234167Y118881D01*
X234162Y118856D01*
X233564Y117017D01*
X232711Y115343D01*
X231606Y113822D01*
X230278Y112494D01*
X228757Y111389D01*
X227083Y110536D01*
X225296Y109955D01*
X225039Y109915D01*
X225039Y120330D01*
X225024Y120448D01*
X225017Y120567D01*
X225004Y120605D01*
X224999Y120645D01*
X224956Y120756D01*
X224919Y120869D01*
X224897Y120903D01*
X224882Y120941D01*
X224812Y121037D01*
X224749Y121138D01*
X224719Y121166D01*
X224695Y121198D01*
X224604Y121274D01*
X224517Y121356D01*
X224482Y121375D01*
X224451Y121401D01*
X224343Y121452D01*
X224239Y121509D01*
X224199Y121520D01*
X224163Y121537D01*
X224046Y121559D01*
X223931Y121589D01*
X223870Y121593D01*
X223850Y121597D01*
X223830Y121595D01*
X223770Y121599D01*
X222499Y121599D01*
X222499Y122870D01*
X222484Y122988D01*
X222477Y123107D01*
X222464Y123145D01*
X222459Y123185D01*
X222415Y123296D01*
X222379Y123409D01*
X222357Y123444D01*
X222342Y123481D01*
X222272Y123577D01*
X222209Y123678D01*
X222179Y123706D01*
X222155Y123739D01*
X222064Y123814D01*
X221977Y123896D01*
X221942Y123916D01*
X221910Y123941D01*
X221803Y123992D01*
X221698Y124050D01*
X221659Y124060D01*
X221623Y124077D01*
X221506Y124099D01*
X221391Y124129D01*
X221330Y124133D01*
X221310Y124137D01*
X221290Y124135D01*
X221230Y124139D01*
X210815Y124139D01*
X210855Y124396D01*
X211436Y126183D01*
X212289Y127857D01*
X213394Y129378D01*
X214722Y130706D01*
X216243Y131811D01*
X217917Y132664D01*
X218382Y132815D01*
X218409Y132828D01*
X218438Y132835D01*
X218552Y132895D01*
X218670Y132950D01*
X218693Y132969D01*
X218719Y132983D01*
X218815Y133070D01*
X218915Y133153D01*
X218932Y133177D01*
X218954Y133197D01*
X219026Y133306D01*
X219102Y133410D01*
X219113Y133438D01*
X219129Y133463D01*
X219171Y133586D01*
X219219Y133706D01*
X219223Y133736D01*
X219232Y133764D01*
X219243Y133893D01*
X219259Y134021D01*
X219255Y134051D01*
X219258Y134081D01*
X219235Y134209D01*
X219219Y134337D01*
X219208Y134365D01*
X219203Y134394D01*
X219150Y134512D01*
X219102Y134633D01*
X219085Y134657D01*
X219073Y134684D01*
X218992Y134785D01*
X218916Y134890D01*
X218893Y134909D01*
X218874Y134933D01*
X218770Y135011D01*
X218671Y135093D01*
X218644Y135106D01*
X218620Y135124D01*
X218475Y135195D01*
X215450Y136448D01*
X211948Y139950D01*
X210423Y143632D01*
X210354Y143753D01*
X210289Y143876D01*
X210275Y143891D01*
X210265Y143909D01*
X210168Y144009D01*
X210075Y144111D01*
X210058Y144123D01*
X210044Y144137D01*
X209926Y144210D01*
X209809Y144286D01*
X209790Y144293D01*
X209773Y144303D01*
X209640Y144344D01*
X209508Y144389D01*
X209488Y144391D01*
X209469Y144397D01*
X209330Y144404D01*
X209191Y144415D01*
X209171Y144411D01*
X209151Y144412D01*
X209015Y144384D01*
X208878Y144360D01*
X208860Y144352D01*
X208840Y144348D01*
X208714Y144287D01*
X208588Y144230D01*
X208572Y144217D01*
X208554Y144208D01*
X208448Y144118D01*
X208340Y144031D01*
X208327Y144015D01*
X208312Y144002D01*
X208232Y143888D01*
X208148Y143777D01*
X208136Y143752D01*
X208129Y143742D01*
X208122Y143723D01*
X208077Y143632D01*
X206552Y139950D01*
X203050Y136448D01*
X200025Y135195D01*
X199999Y135180D01*
X199970Y135171D01*
X199861Y135101D01*
X199748Y135037D01*
X199727Y135016D01*
X199702Y135000D01*
X199613Y134906D01*
X199520Y134816D01*
X199504Y134790D01*
X199484Y134769D01*
X199421Y134655D01*
X199354Y134545D01*
X199345Y134516D01*
X199331Y134490D01*
X199298Y134365D01*
X199260Y134241D01*
X199259Y134211D01*
X199251Y134182D01*
X199251Y134052D01*
X199245Y133923D01*
X199251Y133894D01*
X199251Y133864D01*
X199283Y133739D01*
X199309Y133612D01*
X199322Y133585D01*
X199330Y133556D01*
X199392Y133443D01*
X199449Y133326D01*
X199468Y133303D01*
X199483Y133277D01*
X199571Y133183D01*
X199655Y133084D01*
X199680Y133067D01*
X199700Y133045D01*
X199809Y132976D01*
X199915Y132901D01*
X199943Y132890D01*
X199969Y132874D01*
X200118Y132815D01*
X200583Y132664D01*
X202257Y131811D01*
X203778Y130706D01*
X205106Y129378D01*
X206211Y127857D01*
X207064Y126183D01*
X207645Y124396D01*
X207685Y124139D01*
X197270Y124139D01*
X197152Y124124D01*
X197033Y124117D01*
X196995Y124104D01*
X196955Y124099D01*
X196844Y124056D01*
X196731Y124019D01*
X196697Y123997D01*
X196659Y123982D01*
X196563Y123912D01*
X196462Y123849D01*
X196434Y123819D01*
X196402Y123795D01*
X196326Y123704D01*
X196244Y123617D01*
X196225Y123582D01*
X196199Y123551D01*
X196148Y123443D01*
X196091Y123339D01*
X196080Y123299D01*
X196063Y123263D01*
X196041Y123146D01*
X196011Y123031D01*
X196007Y122970D01*
X196003Y122950D01*
X196005Y122930D01*
X196001Y122870D01*
X196001Y121599D01*
X195999Y121599D01*
X195999Y122870D01*
X195984Y122988D01*
X195977Y123107D01*
X195964Y123145D01*
X195959Y123185D01*
X195915Y123296D01*
X195879Y123409D01*
X195857Y123444D01*
X195842Y123481D01*
X195772Y123577D01*
X195709Y123678D01*
X195679Y123706D01*
X195655Y123739D01*
X195564Y123814D01*
X195477Y123896D01*
X195442Y123916D01*
X195410Y123941D01*
X195303Y123992D01*
X195198Y124050D01*
X195159Y124060D01*
X195123Y124077D01*
X195006Y124099D01*
X194891Y124129D01*
X194830Y124133D01*
X194810Y124137D01*
X194790Y124135D01*
X194730Y124139D01*
X184315Y124139D01*
X184355Y124396D01*
X184936Y126183D01*
X185789Y127857D01*
X186894Y129378D01*
X188222Y130706D01*
X189743Y131811D01*
X191417Y132664D01*
X191882Y132815D01*
X191909Y132828D01*
X191938Y132835D01*
X192052Y132895D01*
X192170Y132950D01*
X192193Y132969D01*
X192219Y132983D01*
X192315Y133070D01*
X192415Y133153D01*
X192432Y133177D01*
X192454Y133197D01*
X192526Y133306D01*
X192602Y133410D01*
X192613Y133438D01*
X192629Y133463D01*
X192671Y133586D01*
X192719Y133706D01*
X192723Y133736D01*
X192732Y133764D01*
X192743Y133893D01*
X192759Y134021D01*
X192755Y134051D01*
X192758Y134081D01*
X192735Y134209D01*
X192719Y134337D01*
X192708Y134365D01*
X192703Y134394D01*
X192650Y134512D01*
X192602Y134633D01*
X192585Y134657D01*
X192573Y134684D01*
X192492Y134785D01*
X192416Y134890D01*
X192393Y134909D01*
X192374Y134933D01*
X192270Y135011D01*
X192171Y135093D01*
X192144Y135106D01*
X192120Y135124D01*
X191975Y135195D01*
X188950Y136448D01*
X185448Y139950D01*
X183553Y144524D01*
X183553Y149476D01*
X185448Y154050D01*
X188949Y157552D01*
X190084Y158022D01*
X190127Y158046D01*
X190174Y158063D01*
X190264Y158125D01*
X190360Y158179D01*
X190396Y158214D01*
X190437Y158242D01*
X190509Y158324D01*
X190588Y158400D01*
X190614Y158443D01*
X190647Y158480D01*
X190697Y158578D01*
X190755Y158672D01*
X190769Y158719D01*
X190792Y158763D01*
X190816Y158870D01*
X190848Y158975D01*
X190851Y159025D01*
X190861Y159074D01*
X190858Y159183D01*
X190863Y159293D01*
X190853Y159342D01*
X190852Y159391D01*
X190821Y159497D01*
X190799Y159605D01*
X190777Y159649D01*
X190763Y159697D01*
X190708Y159792D01*
X190659Y159890D01*
X190627Y159928D01*
X190602Y159971D01*
X190495Y160092D01*
X183992Y166595D01*
X183898Y166668D01*
X183809Y166747D01*
X183773Y166765D01*
X183741Y166790D01*
X183631Y166837D01*
X183526Y166891D01*
X183486Y166900D01*
X183449Y166916D01*
X183331Y166935D01*
X183215Y166961D01*
X183175Y166960D01*
X183135Y166966D01*
X183016Y166955D01*
X182897Y166951D01*
X182859Y166940D01*
X182818Y166936D01*
X182706Y166896D01*
X182592Y166863D01*
X182557Y166842D01*
X182519Y166829D01*
X182420Y166762D01*
X182318Y166701D01*
X182273Y166662D01*
X182256Y166650D01*
X182242Y166635D01*
X182197Y166595D01*
X179550Y163948D01*
X174976Y162053D01*
X170024Y162053D01*
X167568Y163071D01*
X167539Y163078D01*
X167513Y163092D01*
X167386Y163120D01*
X167261Y163155D01*
X167232Y163155D01*
X167203Y163162D01*
X167073Y163158D01*
X166943Y163160D01*
X166914Y163153D01*
X166885Y163152D01*
X166760Y163116D01*
X166634Y163086D01*
X166608Y163072D01*
X166579Y163063D01*
X166468Y162998D01*
X166353Y162937D01*
X166331Y162917D01*
X166306Y162902D01*
X166185Y162796D01*
X159682Y156293D01*
X159622Y156215D01*
X159554Y156143D01*
X159525Y156090D01*
X159488Y156042D01*
X159448Y155951D01*
X159400Y155864D01*
X159385Y155806D01*
X159361Y155750D01*
X159346Y155652D01*
X159321Y155556D01*
X159315Y155456D01*
X159311Y155436D01*
X159313Y155424D01*
X159311Y155396D01*
X159311Y95143D01*
X159319Y95074D01*
X159318Y95004D01*
X159339Y94916D01*
X159351Y94827D01*
X159376Y94762D01*
X159393Y94694D01*
X159435Y94615D01*
X159468Y94532D01*
X159509Y94475D01*
X159541Y94413D01*
X159602Y94347D01*
X159654Y94274D01*
X159708Y94230D01*
X159755Y94178D01*
X159830Y94129D01*
X159899Y94071D01*
X159963Y94042D01*
X160021Y94003D01*
X160106Y93974D01*
X160187Y93936D01*
X160256Y93923D01*
X160322Y93900D01*
X160411Y93893D01*
X160499Y93876D01*
X160569Y93880D01*
X160639Y93875D01*
X160727Y93890D01*
X160817Y93896D01*
X160883Y93917D01*
X160952Y93929D01*
X161034Y93966D01*
X161119Y93994D01*
X161178Y94031D01*
X161242Y94060D01*
X161312Y94116D01*
X161388Y94164D01*
X161436Y94215D01*
X161490Y94258D01*
X161545Y94330D01*
X161606Y94396D01*
X161640Y94457D01*
X161682Y94513D01*
X161753Y94657D01*
X163448Y98750D01*
X166950Y102252D01*
X171524Y104147D01*
X176476Y104147D01*
X181050Y102252D01*
X184552Y98750D01*
X185527Y96395D01*
X185596Y96275D01*
X185661Y96152D01*
X185675Y96137D01*
X185685Y96119D01*
X185782Y96019D01*
X185875Y95916D01*
X185892Y95905D01*
X185906Y95891D01*
X186024Y95818D01*
X186141Y95742D01*
X186160Y95735D01*
X186177Y95724D01*
X186310Y95684D01*
X186442Y95638D01*
X186462Y95637D01*
X186481Y95631D01*
X186620Y95624D01*
X186759Y95613D01*
X186779Y95617D01*
X186799Y95616D01*
X186935Y95644D01*
X187072Y95668D01*
X187091Y95676D01*
X187110Y95680D01*
X187235Y95741D01*
X187362Y95798D01*
X187378Y95811D01*
X187396Y95820D01*
X187502Y95910D01*
X187610Y95997D01*
X187623Y96013D01*
X187638Y96026D01*
X187718Y96140D01*
X187802Y96251D01*
X187814Y96276D01*
X187821Y96286D01*
X187828Y96305D01*
X187873Y96395D01*
X188848Y98750D01*
X192350Y102252D01*
X196924Y104147D01*
X201876Y104147D01*
X206450Y102252D01*
X209952Y98750D01*
X210927Y96395D01*
X210996Y96275D01*
X211061Y96152D01*
X211075Y96137D01*
X211085Y96119D01*
X211182Y96019D01*
X211275Y95916D01*
X211292Y95905D01*
X211306Y95891D01*
X211424Y95818D01*
X211541Y95742D01*
X211560Y95735D01*
X211577Y95724D01*
X211710Y95684D01*
X211842Y95638D01*
X211862Y95637D01*
X211881Y95631D01*
X212020Y95624D01*
X212159Y95613D01*
X212179Y95617D01*
X212199Y95616D01*
X212335Y95644D01*
X212472Y95668D01*
X212491Y95676D01*
X212510Y95680D01*
X212635Y95741D01*
X212762Y95798D01*
X212778Y95811D01*
X212796Y95820D01*
X212902Y95910D01*
X213010Y95997D01*
X213023Y96013D01*
X213038Y96026D01*
X213118Y96140D01*
X213202Y96251D01*
X213214Y96276D01*
X213221Y96286D01*
X213228Y96305D01*
X213273Y96395D01*
X214248Y98750D01*
X217750Y102252D01*
X222324Y104147D01*
X227276Y104147D01*
X231850Y102252D01*
X235352Y98750D01*
X236605Y95725D01*
X236620Y95699D01*
X236629Y95670D01*
X236699Y95561D01*
X236763Y95448D01*
X236784Y95427D01*
X236800Y95402D01*
X236894Y95313D01*
X236984Y95220D01*
X237010Y95204D01*
X237031Y95184D01*
X237145Y95121D01*
X237255Y95054D01*
X237284Y95045D01*
X237310Y95031D01*
X237435Y94998D01*
X237559Y94960D01*
X237589Y94959D01*
X237618Y94951D01*
X237748Y94951D01*
X237877Y94945D01*
X237906Y94951D01*
X237936Y94951D01*
X238061Y94983D01*
X238188Y95009D01*
X238215Y95022D01*
X238244Y95030D01*
X238357Y95092D01*
X238474Y95149D01*
X238497Y95168D01*
X238523Y95183D01*
X238617Y95271D01*
X238716Y95355D01*
X238733Y95380D01*
X238755Y95400D01*
X238824Y95509D01*
X238899Y95615D01*
X238910Y95643D01*
X238926Y95669D01*
X238985Y95818D01*
X239136Y96283D01*
X239989Y97957D01*
X241094Y99478D01*
X242422Y100806D01*
X243943Y101911D01*
X245617Y102764D01*
X247404Y103345D01*
X247661Y103385D01*
X247661Y92970D01*
X247676Y92852D01*
X247683Y92733D01*
X247696Y92695D01*
X247701Y92655D01*
X247744Y92544D01*
X247781Y92431D01*
X247803Y92397D01*
X247818Y92359D01*
X247888Y92263D01*
X247951Y92162D01*
X247981Y92134D01*
X248004Y92102D01*
X248096Y92026D01*
X248183Y91944D01*
X248218Y91925D01*
X248249Y91899D01*
X248357Y91848D01*
X248461Y91791D01*
X248501Y91780D01*
X248537Y91763D01*
X248654Y91741D01*
X248769Y91711D01*
X248830Y91707D01*
X248850Y91703D01*
X248870Y91705D01*
X248930Y91701D01*
X251470Y91701D01*
X251588Y91716D01*
G37*
%LPC*%
G36*
X194710Y514999D02*
X194710Y514999D01*
X191402Y516370D01*
X188870Y518902D01*
X187499Y522210D01*
X187499Y525790D01*
X188870Y529098D01*
X191402Y531630D01*
X193688Y532577D01*
X193809Y532646D01*
X193931Y532711D01*
X193946Y532725D01*
X193964Y532735D01*
X194064Y532832D01*
X194167Y532925D01*
X194178Y532942D01*
X194192Y532956D01*
X194265Y533075D01*
X194341Y533191D01*
X194348Y533210D01*
X194358Y533227D01*
X194399Y533360D01*
X194445Y533492D01*
X194446Y533512D01*
X194452Y533531D01*
X194459Y533670D01*
X194470Y533809D01*
X194466Y533829D01*
X194467Y533849D01*
X194439Y533985D01*
X194415Y534122D01*
X194407Y534141D01*
X194403Y534160D01*
X194342Y534286D01*
X194285Y534412D01*
X194272Y534428D01*
X194263Y534446D01*
X194173Y534552D01*
X194086Y534660D01*
X194070Y534673D01*
X194057Y534688D01*
X193943Y534768D01*
X193832Y534852D01*
X193807Y534864D01*
X193797Y534871D01*
X193778Y534878D01*
X193688Y534923D01*
X191401Y535870D01*
X188870Y538402D01*
X187499Y541710D01*
X187499Y545290D01*
X188870Y548598D01*
X191402Y551130D01*
X194710Y552501D01*
X198290Y552501D01*
X201598Y551130D01*
X204130Y548598D01*
X205501Y545290D01*
X205501Y541710D01*
X204130Y538402D01*
X201599Y535870D01*
X199312Y534923D01*
X199192Y534854D01*
X199069Y534789D01*
X199054Y534775D01*
X199036Y534765D01*
X198936Y534668D01*
X198833Y534575D01*
X198822Y534558D01*
X198808Y534544D01*
X198735Y534426D01*
X198659Y534309D01*
X198652Y534290D01*
X198642Y534273D01*
X198601Y534140D01*
X198555Y534008D01*
X198554Y533988D01*
X198548Y533969D01*
X198541Y533830D01*
X198530Y533691D01*
X198534Y533671D01*
X198533Y533651D01*
X198561Y533515D01*
X198585Y533378D01*
X198593Y533359D01*
X198597Y533340D01*
X198658Y533215D01*
X198715Y533088D01*
X198728Y533072D01*
X198737Y533054D01*
X198827Y532948D01*
X198914Y532840D01*
X198930Y532827D01*
X198943Y532812D01*
X199057Y532732D01*
X199168Y532648D01*
X199193Y532636D01*
X199203Y532629D01*
X199222Y532622D01*
X199312Y532577D01*
X201598Y531630D01*
X204130Y529098D01*
X205501Y525790D01*
X205501Y522210D01*
X204130Y518902D01*
X201598Y516370D01*
X198290Y514999D01*
X194710Y514999D01*
G37*
%LPD*%
%LPC*%
G36*
X169809Y700499D02*
X169809Y700499D01*
X166685Y701793D01*
X164293Y704185D01*
X162999Y707309D01*
X162999Y710691D01*
X164293Y713815D01*
X166685Y716207D01*
X169809Y717501D01*
X173191Y717501D01*
X176315Y716207D01*
X178707Y713815D01*
X180001Y710691D01*
X180001Y707309D01*
X178707Y704185D01*
X176315Y701793D01*
X173191Y700499D01*
X169809Y700499D01*
G37*
%LPD*%
%LPC*%
G36*
X199809Y700499D02*
X199809Y700499D01*
X196685Y701793D01*
X194293Y704185D01*
X192999Y707309D01*
X192999Y710691D01*
X194293Y713815D01*
X196685Y716207D01*
X199809Y717501D01*
X203191Y717501D01*
X206315Y716207D01*
X208707Y713815D01*
X210001Y710691D01*
X210001Y707309D01*
X208707Y704185D01*
X206315Y701793D01*
X203191Y700499D01*
X199809Y700499D01*
G37*
%LPD*%
%LPC*%
G36*
X45365Y704516D02*
X45365Y704516D01*
X52986Y704516D01*
X52986Y698636D01*
X52736Y697056D01*
X52242Y695535D01*
X51516Y694110D01*
X50576Y692816D01*
X49445Y691685D01*
X48151Y690745D01*
X46726Y690019D01*
X45365Y689577D01*
X45365Y704516D01*
G37*
%LPD*%
%LPC*%
G36*
X38925Y690019D02*
X38925Y690019D01*
X37500Y690745D01*
X36206Y691685D01*
X35075Y692816D01*
X34135Y694110D01*
X33409Y695535D01*
X32915Y697056D01*
X32665Y698636D01*
X32665Y704516D01*
X40286Y704516D01*
X40286Y689577D01*
X38925Y690019D01*
G37*
%LPD*%
%LPC*%
G36*
X80768Y215561D02*
X80768Y215561D01*
X80121Y215734D01*
X79542Y216069D01*
X79069Y216542D01*
X78734Y217121D01*
X78561Y217768D01*
X78561Y224961D01*
X87961Y224961D01*
X87961Y215561D01*
X80768Y215561D01*
G37*
%LPD*%
%LPC*%
G36*
X210039Y292539D02*
X210039Y292539D01*
X210039Y301541D01*
X215834Y301541D01*
X216481Y301368D01*
X217060Y301033D01*
X217533Y300560D01*
X217868Y299981D01*
X218041Y299334D01*
X218041Y292539D01*
X210039Y292539D01*
G37*
%LPD*%
%LPC*%
G36*
X210039Y322539D02*
X210039Y322539D01*
X210039Y331541D01*
X215834Y331541D01*
X216481Y331368D01*
X217060Y331033D01*
X217533Y330560D01*
X217868Y329981D01*
X218041Y329334D01*
X218041Y322539D01*
X210039Y322539D01*
G37*
%LPD*%
%LPC*%
G36*
X210039Y262539D02*
X210039Y262539D01*
X210039Y271541D01*
X215834Y271541D01*
X216481Y271368D01*
X217060Y271033D01*
X217533Y270560D01*
X217868Y269981D01*
X218041Y269334D01*
X218041Y262539D01*
X210039Y262539D01*
G37*
%LPD*%
%LPC*%
G36*
X210039Y308459D02*
X210039Y308459D01*
X210039Y317461D01*
X218041Y317461D01*
X218041Y310666D01*
X217868Y310019D01*
X217533Y309440D01*
X217060Y308967D01*
X216481Y308632D01*
X215834Y308459D01*
X210039Y308459D01*
G37*
%LPD*%
%LPC*%
G36*
X210039Y278459D02*
X210039Y278459D01*
X210039Y287461D01*
X218041Y287461D01*
X218041Y280666D01*
X217868Y280019D01*
X217533Y279440D01*
X217060Y278967D01*
X216481Y278632D01*
X215834Y278459D01*
X210039Y278459D01*
G37*
%LPD*%
%LPC*%
G36*
X209539Y338959D02*
X209539Y338959D01*
X209539Y347961D01*
X217541Y347961D01*
X217541Y341166D01*
X217368Y340519D01*
X217033Y339940D01*
X216560Y339467D01*
X215981Y339132D01*
X215334Y338959D01*
X209539Y338959D01*
G37*
%LPD*%
%LPC*%
G36*
X19699Y253301D02*
X19699Y253301D01*
X29149Y253301D01*
X29093Y252945D01*
X28499Y251120D01*
X27628Y249410D01*
X26500Y247857D01*
X25143Y246500D01*
X23590Y245372D01*
X21880Y244501D01*
X20055Y243907D01*
X19699Y243851D01*
X19699Y253301D01*
G37*
%LPD*%
%LPC*%
G36*
X65580Y401909D02*
X65580Y401909D01*
X65580Y411055D01*
X65837Y411014D01*
X67624Y410434D01*
X69298Y409581D01*
X70818Y408476D01*
X72147Y407147D01*
X73252Y405627D01*
X74105Y403953D01*
X74686Y402165D01*
X74726Y401909D01*
X65580Y401909D01*
G37*
%LPD*%
%LPC*%
G36*
X17539Y200339D02*
X17539Y200339D01*
X17539Y209485D01*
X17796Y209445D01*
X19583Y208864D01*
X21257Y208011D01*
X22778Y206906D01*
X24106Y205578D01*
X25211Y204057D01*
X26064Y202383D01*
X26645Y200596D01*
X26685Y200339D01*
X17539Y200339D01*
G37*
%LPD*%
%LPC*%
G36*
X65580Y585409D02*
X65580Y585409D01*
X65580Y594555D01*
X65837Y594514D01*
X67624Y593934D01*
X69298Y593081D01*
X70818Y591976D01*
X72147Y590647D01*
X73252Y589127D01*
X74105Y587453D01*
X74686Y585665D01*
X74726Y585409D01*
X65580Y585409D01*
G37*
%LPD*%
%LPC*%
G36*
X65580Y396830D02*
X65580Y396830D01*
X74726Y396830D01*
X74686Y396574D01*
X74105Y394787D01*
X73252Y393112D01*
X72147Y391592D01*
X70818Y390263D01*
X69298Y389159D01*
X67624Y388306D01*
X65837Y387725D01*
X65580Y387684D01*
X65580Y396830D01*
G37*
%LPD*%
%LPC*%
G36*
X198539Y119061D02*
X198539Y119061D01*
X207685Y119061D01*
X207645Y118804D01*
X207064Y117017D01*
X206211Y115343D01*
X205106Y113822D01*
X203778Y112494D01*
X202257Y111389D01*
X200583Y110536D01*
X198796Y109955D01*
X198539Y109915D01*
X198539Y119061D01*
G37*
%LPD*%
%LPC*%
G36*
X51355Y585409D02*
X51355Y585409D01*
X51396Y585665D01*
X51977Y587453D01*
X52830Y589127D01*
X53934Y590647D01*
X55263Y591976D01*
X56784Y593081D01*
X58458Y593934D01*
X60245Y594514D01*
X60502Y594555D01*
X60502Y585409D01*
X51355Y585409D01*
G37*
%LPD*%
%LPC*%
G36*
X51355Y401909D02*
X51355Y401909D01*
X51396Y402165D01*
X51977Y403953D01*
X52830Y405627D01*
X53934Y407147D01*
X55263Y408476D01*
X56784Y409581D01*
X58458Y410434D01*
X60245Y411014D01*
X60502Y411055D01*
X60502Y401909D01*
X51355Y401909D01*
G37*
%LPD*%
%LPC*%
G36*
X65580Y580330D02*
X65580Y580330D01*
X74726Y580330D01*
X74686Y580074D01*
X74105Y578287D01*
X73252Y576612D01*
X72147Y575092D01*
X70818Y573763D01*
X69298Y572659D01*
X67624Y571806D01*
X65837Y571225D01*
X65580Y571184D01*
X65580Y580330D01*
G37*
%LPD*%
%LPC*%
G36*
X60245Y571225D02*
X60245Y571225D01*
X58458Y571806D01*
X56784Y572659D01*
X55263Y573763D01*
X53934Y575092D01*
X52830Y576612D01*
X51977Y578287D01*
X51396Y580074D01*
X51355Y580330D01*
X60502Y580330D01*
X60502Y571184D01*
X60245Y571225D01*
G37*
%LPD*%
%LPC*%
G36*
X193204Y109955D02*
X193204Y109955D01*
X191417Y110536D01*
X189743Y111389D01*
X188222Y112494D01*
X186894Y113822D01*
X185789Y115343D01*
X184936Y117017D01*
X184355Y118804D01*
X184315Y119061D01*
X193461Y119061D01*
X193461Y109915D01*
X193204Y109955D01*
G37*
%LPD*%
%LPC*%
G36*
X219704Y109955D02*
X219704Y109955D01*
X217917Y110536D01*
X216243Y111389D01*
X214722Y112494D01*
X213394Y113822D01*
X212289Y115343D01*
X211436Y117017D01*
X210855Y118804D01*
X210815Y119061D01*
X219961Y119061D01*
X219961Y109915D01*
X219704Y109955D01*
G37*
%LPD*%
%LPC*%
G36*
X60245Y387725D02*
X60245Y387725D01*
X58458Y388306D01*
X56784Y389159D01*
X55263Y390263D01*
X53934Y391592D01*
X52830Y393112D01*
X51977Y394787D01*
X51396Y396574D01*
X51355Y396830D01*
X60502Y396830D01*
X60502Y387684D01*
X60245Y387725D01*
G37*
%LPD*%
%LPC*%
G36*
X63040Y399369D02*
X63040Y399369D01*
X63040Y399371D01*
X63042Y399371D01*
X63042Y399369D01*
X63040Y399369D01*
G37*
%LPD*%
%LPC*%
G36*
X63040Y582869D02*
X63040Y582869D01*
X63040Y582871D01*
X63042Y582871D01*
X63042Y582869D01*
X63040Y582869D01*
G37*
%LPD*%
D10*
X42826Y714675D02*
X42826Y699435D01*
X70766Y699435D02*
X70766Y714675D01*
D11*
X194541Y399870D03*
X63041Y399370D03*
X63041Y582870D03*
X195541Y582370D03*
D12*
X207000Y350500D03*
X179000Y350500D03*
D11*
X223500Y174500D03*
X223500Y199900D03*
X249000Y121500D03*
X249000Y146900D03*
X249000Y175000D03*
X249000Y200400D03*
D13*
X243700Y255800D03*
X243700Y281200D03*
X243700Y306600D03*
X243700Y332000D03*
X243700Y357400D03*
X243700Y382800D03*
X243700Y408200D03*
X243700Y433600D03*
X243700Y459000D03*
X243700Y484400D03*
X243700Y509800D03*
X243700Y535200D03*
X243700Y560600D03*
X243700Y586000D03*
X243700Y611400D03*
X243700Y636800D03*
X243700Y662200D03*
X243700Y687600D03*
X243700Y713000D03*
X17200Y255800D03*
X17200Y281200D03*
X17200Y306600D03*
X17200Y332000D03*
X17200Y357400D03*
X17200Y382800D03*
X17200Y408200D03*
X17200Y433600D03*
X17200Y459000D03*
X17200Y484400D03*
X17200Y509800D03*
X17200Y535200D03*
X17200Y560600D03*
X17200Y586000D03*
X17200Y611400D03*
X17200Y636800D03*
X17200Y662200D03*
X17200Y687600D03*
X17200Y713000D03*
D11*
X172500Y174500D03*
X172500Y199900D03*
X198000Y174500D03*
X198000Y199900D03*
D12*
X207500Y320000D03*
X179500Y320000D03*
X207500Y290000D03*
X179500Y290000D03*
X207500Y260000D03*
X179500Y260000D03*
D14*
X90500Y227500D03*
D11*
X115900Y227500D03*
X141300Y227500D03*
X166700Y227500D03*
X222500Y147000D03*
X222500Y121600D03*
X196000Y147000D03*
X196000Y121600D03*
X174000Y15500D03*
X174000Y40900D03*
X174000Y66300D03*
X174000Y91700D03*
X199400Y15500D03*
X199400Y40900D03*
X199400Y66300D03*
X199400Y91700D03*
X224800Y15500D03*
X224800Y40900D03*
X224800Y66300D03*
X224800Y91700D03*
X250200Y15500D03*
X250200Y40900D03*
X250200Y66300D03*
X250200Y91700D03*
X15000Y20000D03*
X15000Y45400D03*
X15000Y70800D03*
X15000Y96200D03*
X15000Y121600D03*
X15000Y147000D03*
X15000Y172400D03*
X15000Y197800D03*
X60500Y16000D03*
X60500Y41400D03*
X60500Y66800D03*
X60500Y92200D03*
X85900Y16000D03*
X85900Y41400D03*
X85900Y66800D03*
X85900Y92200D03*
X111500Y16000D03*
X111500Y41400D03*
X111500Y66800D03*
X111500Y92200D03*
X138500Y16000D03*
X138500Y41400D03*
X138500Y66800D03*
X138500Y92200D03*
D15*
X223500Y271500D03*
D16*
X219000Y271500D01*
X207500Y260000D01*
X223500Y271500D02*
X207500Y287500D01*
X207500Y290000D01*
X207500Y320000D01*
X207500Y350000D01*
X207000Y350500D01*
D17*
X90500Y227500D02*
X60800Y197800D01*
X21000Y197800D01*
X15000Y197800D01*
X222500Y119400D02*
X250200Y91700D01*
X222500Y119400D02*
X222500Y121600D01*
D16*
X243700Y357400D02*
X243900Y357600D01*
D17*
X197214Y332286D02*
X179000Y350500D01*
X201087Y246180D02*
X219820Y246180D01*
X201087Y246180D02*
X197214Y250053D01*
X197214Y332286D01*
D15*
X219820Y246180D03*
D17*
X243900Y357600D02*
X236000Y365500D01*
X194000Y365500D02*
X179000Y350500D01*
X194000Y365500D02*
X236000Y365500D01*
X84616Y239184D02*
X17200Y306600D01*
X132424Y227500D02*
X141300Y227500D01*
X132424Y227500D02*
X120740Y239184D01*
X84616Y239184D01*
X141300Y227500D02*
X141300Y176000D01*
X250200Y66300D02*
X236484Y52584D01*
X236484Y36060D01*
X227608Y27184D01*
X143840Y27184D01*
X143340Y27684D01*
X22684Y27684D02*
X15000Y20000D01*
X22684Y27684D02*
X143340Y27684D01*
X235184Y204740D02*
X228340Y211584D01*
X235184Y160716D02*
X249000Y146900D01*
X228340Y211584D02*
X224416Y211584D01*
X218000Y218000D01*
X235184Y204740D02*
X235184Y160716D01*
D15*
X217940Y218000D03*
D17*
X218000Y218000D01*
X55660Y103884D02*
X48816Y97040D01*
X15000Y28876D02*
X15000Y20000D01*
X69184Y103884D02*
X141300Y176000D01*
X69184Y103884D02*
X55660Y103884D01*
X48816Y62692D02*
X15000Y28876D01*
X48816Y62692D02*
X48816Y97040D01*
D18*
X168000Y324500D02*
X168000Y361400D01*
D17*
X168000Y324500D02*
X172500Y320000D01*
X179500Y310233D02*
X193310Y296423D01*
X193310Y248810D01*
X179500Y310233D02*
X179500Y320000D01*
X193310Y248810D02*
X204120Y238000D01*
X211400Y238000D02*
X249000Y200400D01*
X211400Y238000D02*
X204120Y238000D01*
X179500Y320000D02*
X172500Y320000D01*
X168000Y361400D02*
X168000Y369000D01*
X171500Y372500D01*
X233400Y372500D02*
X243700Y382800D01*
X233400Y372500D02*
X171500Y372500D01*
D18*
X164000Y359266D02*
X164000Y300000D01*
D17*
X179500Y290000D02*
X179750Y289750D01*
X180500Y289000D01*
D16*
X175000Y289000D02*
X164000Y300000D01*
X175000Y289000D02*
X180500Y289000D01*
D17*
X164000Y359266D02*
X164000Y370500D01*
X170500Y377000D01*
X212500Y377000D01*
X202840Y188216D02*
X193160Y188216D01*
X202840Y188216D02*
X209684Y195060D01*
X179750Y279983D02*
X179750Y289750D01*
X179750Y279983D02*
X189786Y269947D01*
X209684Y223679D02*
X209684Y195060D01*
X181476Y199900D02*
X172500Y199900D01*
X181476Y199900D02*
X193160Y188216D01*
X209684Y223679D02*
X189786Y243577D01*
X189786Y269947D01*
X212500Y377000D02*
X243700Y408200D01*
D18*
X196506Y381906D02*
X159500Y381906D01*
X159500Y280000D01*
X179500Y260000D01*
D16*
X196506Y381906D02*
X243700Y429100D01*
D17*
X179500Y218400D02*
X198000Y199900D01*
X179500Y218400D02*
X179500Y260000D01*
X243700Y429100D02*
X243700Y433600D01*
D16*
X195451Y582370D02*
X70766Y707055D01*
X195451Y582370D02*
X195541Y582370D01*
X221500Y638500D02*
X192000Y668000D01*
X221500Y638500D02*
X221500Y589500D01*
X198000Y566000D02*
X173000Y566000D01*
X173000Y557000D01*
D15*
X173000Y557000D03*
D16*
X198000Y566000D02*
X221500Y589500D01*
D15*
X192000Y668000D03*
D17*
X60800Y172400D02*
X15000Y172400D01*
X155500Y157500D02*
X172500Y174500D01*
X155500Y84800D02*
X174000Y66300D01*
X155500Y84800D02*
X155500Y157500D01*
X115900Y227500D02*
X60800Y172400D01*
X77452Y322548D02*
X17200Y382800D01*
X88135Y295789D02*
X98411Y295789D01*
X166700Y227500D01*
X77452Y306472D02*
X77452Y322548D01*
X77452Y306472D02*
X88135Y295789D01*
X166700Y227500D02*
X166700Y210624D01*
X160816Y204740D01*
X160816Y195060D01*
X167660Y188216D01*
X227340Y158684D02*
X234184Y151840D01*
X234184Y135816D01*
X175308Y188216D02*
X167660Y188216D01*
X175308Y188216D02*
X186316Y177208D01*
X186316Y169660D01*
X197292Y158684D01*
X227340Y158684D01*
X234184Y135816D02*
X248500Y121500D01*
X249000Y121500D01*
M02*
