G04 EAGLE Gerber RS-274X export*
G75*
%MOMM*%
%FSLAX34Y34*%
%LPD*%
%IN*%
%IPPOS*%
%AMOC8*
5,1,8,0,0,1.08239X$1,22.5*%
G01*
%ADD10C,0.254000*%


D10*
X0Y0D02*
X265000Y0D01*
X265000Y730000D01*
X0Y730000D01*
X0Y0D01*
X201500Y543219D02*
X201437Y542661D01*
X201312Y542114D01*
X201127Y541584D01*
X200883Y541078D01*
X200584Y540602D01*
X200234Y540163D01*
X199837Y539766D01*
X199398Y539416D01*
X198922Y539117D01*
X198416Y538873D01*
X197886Y538688D01*
X197339Y538563D01*
X196781Y538500D01*
X196219Y538500D01*
X195661Y538563D01*
X195114Y538688D01*
X194584Y538873D01*
X194078Y539117D01*
X193602Y539416D01*
X193163Y539766D01*
X192766Y540163D01*
X192416Y540602D01*
X192117Y541078D01*
X191873Y541584D01*
X191688Y542114D01*
X191563Y542661D01*
X191500Y543219D01*
X191500Y543781D01*
X191563Y544339D01*
X191688Y544886D01*
X191873Y545416D01*
X192117Y545922D01*
X192416Y546398D01*
X192766Y546837D01*
X193163Y547234D01*
X193602Y547584D01*
X194078Y547883D01*
X194584Y548127D01*
X195114Y548312D01*
X195661Y548437D01*
X196219Y548500D01*
X196781Y548500D01*
X197339Y548437D01*
X197886Y548312D01*
X198416Y548127D01*
X198922Y547883D01*
X199398Y547584D01*
X199837Y547234D01*
X200234Y546837D01*
X200584Y546398D01*
X200883Y545922D01*
X201127Y545416D01*
X201312Y544886D01*
X201437Y544339D01*
X201500Y543781D01*
X201500Y543219D01*
X201500Y523719D02*
X201437Y523161D01*
X201312Y522614D01*
X201127Y522084D01*
X200883Y521578D01*
X200584Y521102D01*
X200234Y520663D01*
X199837Y520266D01*
X199398Y519916D01*
X198922Y519617D01*
X198416Y519373D01*
X197886Y519188D01*
X197339Y519063D01*
X196781Y519000D01*
X196219Y519000D01*
X195661Y519063D01*
X195114Y519188D01*
X194584Y519373D01*
X194078Y519617D01*
X193602Y519916D01*
X193163Y520266D01*
X192766Y520663D01*
X192416Y521102D01*
X192117Y521578D01*
X191873Y522084D01*
X191688Y522614D01*
X191563Y523161D01*
X191500Y523719D01*
X191500Y524281D01*
X191563Y524839D01*
X191688Y525386D01*
X191873Y525916D01*
X192117Y526422D01*
X192416Y526898D01*
X192766Y527337D01*
X193163Y527734D01*
X193602Y528084D01*
X194078Y528383D01*
X194584Y528627D01*
X195114Y528812D01*
X195661Y528937D01*
X196219Y529000D01*
X196781Y529000D01*
X197339Y528937D01*
X197886Y528812D01*
X198416Y528627D01*
X198922Y528383D01*
X199398Y528084D01*
X199837Y527734D01*
X200234Y527337D01*
X200584Y526898D01*
X200883Y526422D01*
X201127Y525916D01*
X201312Y525386D01*
X201437Y524839D01*
X201500Y524281D01*
X201500Y523719D01*
X176000Y708705D02*
X175923Y708120D01*
X175770Y707550D01*
X175545Y707005D01*
X175250Y706495D01*
X174891Y706027D01*
X174473Y705609D01*
X174005Y705250D01*
X173495Y704955D01*
X172950Y704730D01*
X172380Y704577D01*
X171795Y704500D01*
X171205Y704500D01*
X170620Y704577D01*
X170050Y704730D01*
X169505Y704955D01*
X168995Y705250D01*
X168527Y705609D01*
X168109Y706027D01*
X167750Y706495D01*
X167455Y707005D01*
X167230Y707550D01*
X167077Y708120D01*
X167000Y708705D01*
X167000Y709295D01*
X167077Y709880D01*
X167230Y710450D01*
X167455Y710995D01*
X167750Y711505D01*
X168109Y711973D01*
X168527Y712391D01*
X168995Y712750D01*
X169505Y713045D01*
X170050Y713270D01*
X170620Y713423D01*
X171205Y713500D01*
X171795Y713500D01*
X172380Y713423D01*
X172950Y713270D01*
X173495Y713045D01*
X174005Y712750D01*
X174473Y712391D01*
X174891Y711973D01*
X175250Y711505D01*
X175545Y710995D01*
X175770Y710450D01*
X175923Y709880D01*
X176000Y709295D01*
X176000Y708705D01*
X206000Y708705D02*
X205923Y708120D01*
X205770Y707550D01*
X205545Y707005D01*
X205250Y706495D01*
X204891Y706027D01*
X204473Y705609D01*
X204005Y705250D01*
X203495Y704955D01*
X202950Y704730D01*
X202380Y704577D01*
X201795Y704500D01*
X201205Y704500D01*
X200620Y704577D01*
X200050Y704730D01*
X199505Y704955D01*
X198995Y705250D01*
X198527Y705609D01*
X198109Y706027D01*
X197750Y706495D01*
X197455Y707005D01*
X197230Y707550D01*
X197077Y708120D01*
X197000Y708705D01*
X197000Y709295D01*
X197077Y709880D01*
X197230Y710450D01*
X197455Y710995D01*
X197750Y711505D01*
X198109Y711973D01*
X198527Y712391D01*
X198995Y712750D01*
X199505Y713045D01*
X200050Y713270D01*
X200620Y713423D01*
X201205Y713500D01*
X201795Y713500D01*
X202380Y713423D01*
X202950Y713270D01*
X203495Y713045D01*
X204005Y712750D01*
X204473Y712391D01*
X204891Y711973D01*
X205250Y711505D01*
X205545Y710995D01*
X205770Y710450D01*
X205923Y709880D01*
X206000Y709295D01*
X206000Y708705D01*
M02*
