G04 EAGLE Gerber RS-274X export*
G75*
%MOMM*%
%FSLAX34Y34*%
%LPD*%
%INSilkscreen Top*%
%IPPOS*%
%AMOC8*
5,1,8,0,0,1.08239X$1,22.5*%
G01*
%ADD10C,0.254000*%
%ADD11C,0.050800*%
%ADD12C,0.076200*%
%ADD13C,0.152400*%
%ADD14C,0.101600*%
%ADD15C,0.203200*%
%ADD16C,0.406400*%


D10*
X46541Y376870D02*
X46541Y604370D01*
X212541Y604870D01*
X212541Y376870D01*
X93041Y376870D01*
X46541Y376870D01*
X93041Y376870D02*
X93117Y416068D01*
X92617Y418068D02*
X159617Y418068D01*
X159541Y377870D01*
D11*
X210254Y163847D02*
X210254Y158254D01*
X213050Y158254D01*
X213983Y159186D01*
X213983Y162915D01*
X213050Y163847D01*
X210254Y163847D01*
X215867Y161983D02*
X215867Y158254D01*
X215867Y161983D02*
X217731Y163847D01*
X219596Y161983D01*
X219596Y158254D01*
X219596Y161050D02*
X215867Y161050D01*
X224277Y163847D02*
X225209Y162915D01*
X224277Y163847D02*
X222412Y163847D01*
X221480Y162915D01*
X221480Y159186D01*
X222412Y158254D01*
X224277Y158254D01*
X225209Y159186D01*
X227093Y161983D02*
X228958Y163847D01*
X228958Y158254D01*
X230822Y158254D02*
X227093Y158254D01*
X184483Y134415D02*
X183550Y135347D01*
X181686Y135347D01*
X180754Y134415D01*
X180754Y130686D01*
X181686Y129754D01*
X183550Y129754D01*
X184483Y130686D01*
X184483Y132550D01*
X182618Y132550D01*
X211050Y135347D02*
X211983Y134415D01*
X211050Y135347D02*
X209186Y135347D01*
X208254Y134415D01*
X208254Y130686D01*
X209186Y129754D01*
X211050Y129754D01*
X211983Y130686D01*
X211983Y132550D01*
X210118Y132550D01*
X229754Y189415D02*
X230686Y190347D01*
X232550Y190347D01*
X233483Y189415D01*
X233483Y188483D01*
X232550Y187550D01*
X231618Y187550D01*
X232550Y187550D02*
X233483Y186618D01*
X233483Y185686D01*
X232550Y184754D01*
X230686Y184754D01*
X229754Y185686D01*
X238163Y184754D02*
X238163Y190347D01*
X235367Y187550D01*
X239096Y187550D01*
D12*
X180331Y663379D02*
X180331Y668294D01*
X180331Y663379D02*
X184017Y663379D01*
X182788Y665836D01*
X182788Y667065D01*
X184017Y668294D01*
X186474Y668294D01*
X187703Y667065D01*
X187703Y664607D01*
X186474Y663379D01*
X185246Y670863D02*
X180331Y670863D01*
X185246Y670863D02*
X187703Y673320D01*
X185246Y675778D01*
X180331Y675778D01*
D13*
X261500Y192000D02*
X262500Y192000D01*
D14*
X48804Y205253D02*
X46855Y207202D01*
X42957Y207202D01*
X41008Y205253D01*
X41008Y197457D01*
X42957Y195508D01*
X46855Y195508D01*
X48804Y197457D01*
X48804Y201355D01*
X44906Y201355D01*
X52702Y195508D02*
X52702Y207202D01*
X60498Y195508D01*
X60498Y207202D01*
X64396Y207202D02*
X64396Y195508D01*
X70243Y195508D01*
X72192Y197457D01*
X72192Y205253D01*
X70243Y207202D01*
X64396Y207202D01*
X39008Y178702D02*
X39008Y170906D01*
X42906Y167008D01*
X46804Y170906D01*
X46804Y178702D01*
X50702Y172855D02*
X58498Y172855D01*
X54600Y176753D02*
X54600Y168957D01*
D12*
X35975Y39296D02*
X34747Y38067D01*
X34747Y35610D01*
X35975Y34381D01*
X37204Y34381D01*
X38433Y35610D01*
X38433Y38067D01*
X39662Y39296D01*
X40890Y39296D01*
X42119Y38067D01*
X42119Y35610D01*
X40890Y34381D01*
X42119Y41865D02*
X34747Y41865D01*
X42119Y41865D02*
X42119Y45551D01*
X40890Y46780D01*
X35975Y46780D01*
X34747Y45551D01*
X34747Y41865D01*
X37204Y49349D02*
X42119Y49349D01*
X37204Y49349D02*
X34747Y51807D01*
X37204Y54264D01*
X42119Y54264D01*
X38433Y54264D02*
X38433Y49349D01*
X35475Y12296D02*
X34247Y11067D01*
X34247Y8610D01*
X35475Y7381D01*
X36704Y7381D01*
X37933Y8610D01*
X37933Y11067D01*
X39162Y12296D01*
X40390Y12296D01*
X41619Y11067D01*
X41619Y8610D01*
X40390Y7381D01*
X34247Y18551D02*
X35475Y19780D01*
X34247Y18551D02*
X34247Y16094D01*
X35475Y14865D01*
X40390Y14865D01*
X41619Y16094D01*
X41619Y18551D01*
X40390Y19780D01*
X41619Y22349D02*
X34247Y22349D01*
X41619Y22349D02*
X41619Y27264D01*
X154881Y74838D02*
X154881Y79753D01*
X154881Y74838D02*
X157338Y72381D01*
X159796Y74838D01*
X159796Y79753D01*
X162365Y76067D02*
X167280Y76067D01*
X164823Y73610D02*
X164823Y78525D01*
D14*
X83798Y179855D02*
X85747Y181804D01*
X83798Y179855D02*
X83798Y175957D01*
X85747Y174008D01*
X93543Y174008D01*
X95492Y175957D01*
X95492Y179855D01*
X93543Y181804D01*
X89645Y181804D01*
X89645Y177906D01*
X95492Y185702D02*
X83798Y185702D01*
X95492Y193498D01*
X83798Y193498D01*
X83798Y197396D02*
X95492Y197396D01*
X95492Y203243D01*
X93543Y205192D01*
X85747Y205192D01*
X83798Y203243D01*
X83798Y197396D01*
X109298Y191508D02*
X117094Y191508D01*
X120992Y195406D01*
X117094Y199304D01*
X109298Y199304D01*
X115145Y203202D02*
X115145Y210998D01*
X111247Y207100D02*
X119043Y207100D01*
X138508Y169702D02*
X138508Y161906D01*
X142406Y158008D01*
X146304Y161906D01*
X146304Y169702D01*
X150202Y163855D02*
X157998Y163855D01*
X154100Y167753D02*
X154100Y159957D01*
D12*
X186796Y229525D02*
X185567Y230753D01*
X183110Y230753D01*
X181881Y229525D01*
X181881Y228296D01*
X183110Y227067D01*
X185567Y227067D01*
X186796Y225838D01*
X186796Y224610D01*
X185567Y223381D01*
X183110Y223381D01*
X181881Y224610D01*
X189365Y223381D02*
X189365Y230753D01*
X189365Y223381D02*
X193051Y223381D01*
X194280Y224610D01*
X194280Y229525D01*
X193051Y230753D01*
X189365Y230753D01*
X196849Y228296D02*
X196849Y223381D01*
X196849Y228296D02*
X199307Y230753D01*
X201764Y228296D01*
X201764Y223381D01*
X201764Y227067D02*
X196849Y227067D01*
D14*
X136747Y186804D02*
X134798Y184855D01*
X134798Y180957D01*
X136747Y179008D01*
X138696Y179008D01*
X140645Y180957D01*
X140645Y184855D01*
X142594Y186804D01*
X144543Y186804D01*
X146492Y184855D01*
X146492Y180957D01*
X144543Y179008D01*
X134798Y196549D02*
X136747Y198498D01*
X134798Y196549D02*
X134798Y192651D01*
X136747Y190702D01*
X144543Y190702D01*
X146492Y192651D01*
X146492Y196549D01*
X144543Y198498D01*
X146492Y202396D02*
X134798Y202396D01*
X146492Y202396D02*
X146492Y210192D01*
D15*
X207241Y406220D02*
X200891Y412570D01*
X188191Y412570D01*
X181841Y406220D01*
X181841Y393520D01*
X188191Y387170D01*
X200891Y387170D01*
X207241Y393520D01*
X207241Y406220D01*
X75741Y405720D02*
X69391Y412070D01*
X56691Y412070D01*
X50341Y405720D01*
X50341Y393020D01*
X56691Y386670D01*
X69391Y386670D01*
X75741Y393020D01*
X75741Y405720D01*
X75741Y589220D02*
X69391Y595570D01*
X56691Y595570D01*
X50341Y589220D01*
X50341Y576520D01*
X56691Y570170D01*
X69391Y570170D01*
X75741Y576520D01*
X75741Y589220D01*
D14*
X80873Y375476D02*
X80873Y363782D01*
X80873Y375476D02*
X86720Y375476D01*
X88669Y373527D01*
X88669Y371578D01*
X86720Y369629D01*
X88669Y367680D01*
X88669Y365731D01*
X86720Y363782D01*
X80873Y363782D01*
X80873Y369629D02*
X86720Y369629D01*
X94516Y371578D02*
X98414Y371578D01*
X100363Y369629D01*
X100363Y363782D01*
X94516Y363782D01*
X92567Y365731D01*
X94516Y367680D01*
X100363Y367680D01*
X106210Y365731D02*
X106210Y373527D01*
X106210Y365731D02*
X108159Y363782D01*
X108159Y371578D02*
X104261Y371578D01*
X114006Y373527D02*
X114006Y365731D01*
X115955Y363782D01*
X115955Y371578D02*
X112057Y371578D01*
X137394Y375476D02*
X139343Y373527D01*
X137394Y375476D02*
X133496Y375476D01*
X131547Y373527D01*
X131547Y365731D01*
X133496Y363782D01*
X137394Y363782D01*
X139343Y365731D01*
X143241Y363782D02*
X143241Y375476D01*
X145190Y371578D02*
X143241Y369629D01*
X145190Y371578D02*
X149088Y371578D01*
X151037Y369629D01*
X151037Y363782D01*
X156884Y371578D02*
X160782Y371578D01*
X162731Y369629D01*
X162731Y363782D01*
X156884Y363782D01*
X154935Y365731D01*
X156884Y367680D01*
X162731Y367680D01*
X166629Y363782D02*
X166629Y371578D01*
X166629Y367680D02*
X170527Y371578D01*
X172476Y371578D01*
X180272Y359884D02*
X182221Y359884D01*
X184170Y361833D01*
X184170Y371578D01*
X178323Y371578D01*
X176374Y369629D01*
X176374Y365731D01*
X178323Y363782D01*
X184170Y363782D01*
X190017Y363782D02*
X193915Y363782D01*
X190017Y363782D02*
X188068Y365731D01*
X188068Y369629D01*
X190017Y371578D01*
X193915Y371578D01*
X195864Y369629D01*
X195864Y367680D01*
X188068Y367680D01*
X199762Y363782D02*
X199762Y371578D01*
X199762Y367680D02*
X203660Y371578D01*
X205609Y371578D01*
D15*
X208241Y588720D02*
X201891Y595070D01*
X189191Y595070D01*
X182841Y588720D01*
X182841Y576020D01*
X189191Y569670D01*
X201891Y569670D01*
X208241Y576020D01*
X208241Y588720D01*
X151730Y704730D02*
X151730Y713270D01*
X221270Y713270D02*
X221270Y704730D01*
X213500Y723270D02*
X159500Y723270D01*
X185230Y694730D02*
X202770Y694730D01*
D13*
X134760Y684343D02*
X133658Y683242D01*
X133658Y681039D01*
X134760Y679937D01*
X135862Y679937D01*
X136963Y681039D01*
X136963Y683242D01*
X138065Y684343D01*
X139166Y684343D01*
X140268Y683242D01*
X140268Y681039D01*
X139166Y679937D01*
X140268Y687421D02*
X133658Y687421D01*
X138065Y689624D02*
X140268Y687421D01*
X138065Y689624D02*
X140268Y691827D01*
X133658Y691827D01*
X140268Y694905D02*
X140268Y697108D01*
X140268Y696007D02*
X133658Y696007D01*
X133658Y697108D02*
X133658Y694905D01*
X133658Y702098D02*
X140268Y702098D01*
X133658Y699895D02*
X133658Y704301D01*
X133658Y710684D02*
X134760Y711785D01*
X133658Y710684D02*
X133658Y708480D01*
X134760Y707379D01*
X139166Y707379D01*
X140268Y708480D01*
X140268Y710684D01*
X139166Y711785D01*
X140268Y714863D02*
X133658Y714863D01*
X136963Y714863D02*
X136963Y719269D01*
X133658Y719269D02*
X140268Y719269D01*
D15*
X210800Y180850D02*
X210800Y168150D01*
X210800Y180850D02*
X217150Y187200D01*
X229850Y187200D02*
X236200Y180850D01*
X217150Y187200D02*
X210800Y193550D01*
X210800Y206250D01*
X217150Y212600D01*
X229850Y212600D02*
X236200Y206250D01*
X236200Y193550D01*
X229850Y187200D01*
X229850Y161800D02*
X217150Y161800D01*
X210800Y168150D01*
X229850Y161800D02*
X236200Y168150D01*
X236200Y180850D01*
X229850Y212600D02*
X217150Y212600D01*
X236300Y127850D02*
X236300Y115150D01*
X236300Y127850D02*
X242650Y134200D01*
X255350Y134200D02*
X261700Y127850D01*
X242650Y134200D02*
X236300Y140550D01*
X236300Y153250D01*
X242650Y159600D01*
X255350Y159600D02*
X261700Y153250D01*
X261700Y140550D01*
X255350Y134200D01*
X255350Y108800D02*
X242650Y108800D01*
X236300Y115150D01*
X255350Y108800D02*
X261700Y115150D01*
X261700Y127850D01*
X255350Y159600D02*
X242650Y159600D01*
X236300Y168650D02*
X236300Y181350D01*
X242650Y187700D01*
X255350Y187700D02*
X261700Y181350D01*
X242650Y187700D02*
X236300Y194050D01*
X236300Y206750D01*
X242650Y213100D01*
X255350Y213100D02*
X261700Y206750D01*
X261700Y194050D01*
X255350Y187700D01*
X255350Y162300D02*
X242650Y162300D01*
X236300Y168650D01*
X255350Y162300D02*
X261700Y168650D01*
X261700Y181350D01*
X255350Y213100D02*
X242650Y213100D01*
D11*
X253422Y190963D02*
X252490Y190031D01*
X253422Y190963D02*
X255286Y190963D01*
X256218Y190031D01*
X256218Y189099D01*
X255286Y188166D01*
X254354Y188166D01*
X255286Y188166D02*
X256218Y187234D01*
X256218Y186302D01*
X255286Y185370D01*
X253422Y185370D01*
X252490Y186302D01*
X258103Y190963D02*
X261831Y190963D01*
X258103Y190963D02*
X258103Y188166D01*
X259967Y189099D01*
X260899Y189099D01*
X261831Y188166D01*
X261831Y186302D01*
X260899Y185370D01*
X259035Y185370D01*
X258103Y186302D01*
D16*
X109300Y256000D02*
X70900Y256000D01*
X109300Y256000D02*
X109300Y307200D01*
X122100Y307200D01*
X122100Y256000D01*
X134900Y256000D01*
X134900Y307200D01*
X147700Y307200D01*
X147700Y256000D01*
X160500Y256000D01*
X160500Y307200D01*
X173300Y307200D01*
X173300Y256000D01*
X186100Y256000D01*
X186100Y332800D01*
X122100Y332800D01*
D12*
X203415Y257919D02*
X204983Y259487D01*
X208118Y259487D01*
X209686Y257919D01*
X209686Y256352D01*
X208118Y254784D01*
X206551Y254784D01*
X208118Y254784D02*
X209686Y253216D01*
X209686Y251649D01*
X208118Y250081D01*
X204983Y250081D01*
X203415Y251649D01*
X212771Y253216D02*
X212771Y259487D01*
X212771Y253216D02*
X215906Y250081D01*
X219041Y253216D01*
X219041Y259487D01*
X222126Y257919D02*
X223693Y259487D01*
X226829Y259487D01*
X228397Y257919D01*
X228397Y256352D01*
X226829Y254784D01*
X225261Y254784D01*
X226829Y254784D02*
X228397Y253216D01*
X228397Y251649D01*
X226829Y250081D01*
X223693Y250081D01*
X222126Y251649D01*
X219041Y284887D02*
X212771Y284887D01*
X212771Y275481D01*
X219041Y275481D01*
X215906Y280184D02*
X212771Y280184D01*
X222126Y275481D02*
X222126Y284887D01*
X228397Y275481D01*
X228397Y284887D01*
X209686Y308719D02*
X208118Y310287D01*
X204983Y310287D01*
X203415Y308719D01*
X203415Y307152D01*
X204983Y305584D01*
X208118Y305584D01*
X209686Y304016D01*
X209686Y302449D01*
X208118Y300881D01*
X204983Y300881D01*
X203415Y302449D01*
X212771Y304016D02*
X212771Y310287D01*
X212771Y304016D02*
X215906Y300881D01*
X219041Y304016D01*
X219041Y310287D01*
X222126Y310287D02*
X222126Y300881D01*
X222126Y310287D02*
X226829Y310287D01*
X228397Y308719D01*
X228397Y305584D01*
X226829Y304016D01*
X222126Y304016D01*
X209686Y334119D02*
X208118Y335687D01*
X204983Y335687D01*
X203415Y334119D01*
X203415Y332552D01*
X204983Y330984D01*
X208118Y330984D01*
X209686Y329416D01*
X209686Y327849D01*
X208118Y326281D01*
X204983Y326281D01*
X203415Y327849D01*
X212771Y329416D02*
X212771Y335687D01*
X212771Y329416D02*
X215906Y326281D01*
X219041Y329416D01*
X219041Y335687D01*
X222126Y335687D02*
X222126Y326281D01*
X228397Y326281D02*
X222126Y335687D01*
X228397Y335687D02*
X228397Y326281D01*
X212771Y359519D02*
X214338Y361087D01*
X217474Y361087D01*
X219041Y359519D01*
X219041Y357952D01*
X217474Y356384D01*
X215906Y356384D01*
X217474Y356384D02*
X219041Y354816D01*
X219041Y353249D01*
X217474Y351681D01*
X214338Y351681D01*
X212771Y353249D01*
X226829Y351681D02*
X226829Y361087D01*
X222126Y356384D01*
X228397Y356384D01*
X212771Y384919D02*
X214338Y386487D01*
X217474Y386487D01*
X219041Y384919D01*
X219041Y383352D01*
X217474Y381784D01*
X215906Y381784D01*
X217474Y381784D02*
X219041Y380216D01*
X219041Y378649D01*
X217474Y377081D01*
X214338Y377081D01*
X212771Y378649D01*
X222126Y386487D02*
X228397Y386487D01*
X222126Y386487D02*
X222126Y381784D01*
X225261Y383352D01*
X226829Y383352D01*
X228397Y381784D01*
X228397Y378649D01*
X226829Y377081D01*
X223693Y377081D01*
X222126Y378649D01*
X212771Y410319D02*
X214338Y411887D01*
X217474Y411887D01*
X219041Y410319D01*
X219041Y408752D01*
X217474Y407184D01*
X215906Y407184D01*
X217474Y407184D02*
X219041Y405616D01*
X219041Y404049D01*
X217474Y402481D01*
X214338Y402481D01*
X212771Y404049D01*
X222126Y402481D02*
X228397Y402481D01*
X222126Y402481D02*
X228397Y408752D01*
X228397Y410319D01*
X226829Y411887D01*
X223693Y411887D01*
X222126Y410319D01*
X212771Y435719D02*
X214338Y437287D01*
X217474Y437287D01*
X219041Y435719D01*
X219041Y434152D01*
X217474Y432584D01*
X215906Y432584D01*
X217474Y432584D02*
X219041Y431016D01*
X219041Y429449D01*
X217474Y427881D01*
X214338Y427881D01*
X212771Y429449D01*
X222126Y435719D02*
X223693Y437287D01*
X226829Y437287D01*
X228397Y435719D01*
X228397Y434152D01*
X226829Y432584D01*
X225261Y432584D01*
X226829Y432584D02*
X228397Y431016D01*
X228397Y429449D01*
X226829Y427881D01*
X223693Y427881D01*
X222126Y429449D01*
X219041Y453281D02*
X212771Y453281D01*
X219041Y459552D01*
X219041Y461119D01*
X217474Y462687D01*
X214338Y462687D01*
X212771Y461119D01*
X222126Y462687D02*
X228397Y462687D01*
X222126Y462687D02*
X222126Y457984D01*
X225261Y459552D01*
X226829Y459552D01*
X228397Y457984D01*
X228397Y454849D01*
X226829Y453281D01*
X223693Y453281D01*
X222126Y454849D01*
X219041Y478681D02*
X212771Y478681D01*
X219041Y484952D01*
X219041Y486519D01*
X217474Y488087D01*
X214338Y488087D01*
X212771Y486519D01*
X225261Y486519D02*
X228397Y488087D01*
X225261Y486519D02*
X222126Y483384D01*
X222126Y480249D01*
X223693Y478681D01*
X226829Y478681D01*
X228397Y480249D01*
X228397Y481816D01*
X226829Y483384D01*
X222126Y483384D01*
X219041Y504081D02*
X212771Y504081D01*
X219041Y510352D01*
X219041Y511919D01*
X217474Y513487D01*
X214338Y513487D01*
X212771Y511919D01*
X222126Y513487D02*
X228397Y513487D01*
X228397Y511919D01*
X222126Y505649D01*
X222126Y504081D01*
X212771Y535752D02*
X215906Y538887D01*
X215906Y529481D01*
X212771Y529481D02*
X219041Y529481D01*
X226829Y529481D02*
X226829Y538887D01*
X222126Y534184D01*
X228397Y534184D01*
X212771Y561152D02*
X215906Y564287D01*
X215906Y554881D01*
X212771Y554881D02*
X219041Y554881D01*
X222126Y554881D02*
X228397Y554881D01*
X222126Y554881D02*
X228397Y561152D01*
X228397Y562719D01*
X226829Y564287D01*
X223693Y564287D01*
X222126Y562719D01*
X228397Y588119D02*
X226829Y589687D01*
X223693Y589687D01*
X222126Y588119D01*
X222126Y581849D01*
X223693Y580281D01*
X226829Y580281D01*
X228397Y581849D01*
X228397Y584984D01*
X225261Y584984D01*
X212771Y611952D02*
X215906Y615087D01*
X215906Y605681D01*
X212771Y605681D02*
X219041Y605681D01*
X222126Y613519D02*
X223693Y615087D01*
X226829Y615087D01*
X228397Y613519D01*
X228397Y611952D01*
X226829Y610384D01*
X225261Y610384D01*
X226829Y610384D02*
X228397Y608816D01*
X228397Y607249D01*
X226829Y605681D01*
X223693Y605681D01*
X222126Y607249D01*
X209686Y638919D02*
X208118Y640487D01*
X204983Y640487D01*
X203415Y638919D01*
X203415Y637352D01*
X204983Y635784D01*
X208118Y635784D01*
X209686Y634216D01*
X209686Y632649D01*
X208118Y631081D01*
X204983Y631081D01*
X203415Y632649D01*
X212771Y631081D02*
X212771Y640487D01*
X212771Y631081D02*
X217474Y631081D01*
X219041Y632649D01*
X219041Y638919D01*
X217474Y640487D01*
X212771Y640487D01*
X222126Y631081D02*
X228397Y631081D01*
X222126Y631081D02*
X228397Y637352D01*
X228397Y638919D01*
X226829Y640487D01*
X223693Y640487D01*
X222126Y638919D01*
X209686Y664319D02*
X208118Y665887D01*
X204983Y665887D01*
X203415Y664319D01*
X203415Y662752D01*
X204983Y661184D01*
X208118Y661184D01*
X209686Y659616D01*
X209686Y658049D01*
X208118Y656481D01*
X204983Y656481D01*
X203415Y658049D01*
X212771Y656481D02*
X212771Y665887D01*
X212771Y656481D02*
X217474Y656481D01*
X219041Y658049D01*
X219041Y664319D01*
X217474Y665887D01*
X212771Y665887D01*
X222126Y664319D02*
X223693Y665887D01*
X226829Y665887D01*
X228397Y664319D01*
X228397Y662752D01*
X226829Y661184D01*
X225261Y661184D01*
X226829Y661184D02*
X228397Y659616D01*
X228397Y658049D01*
X226829Y656481D01*
X223693Y656481D01*
X222126Y658049D01*
X215213Y677357D02*
X213985Y678585D01*
X211527Y678585D01*
X210299Y677357D01*
X210299Y672442D01*
X211527Y671213D01*
X213985Y671213D01*
X215213Y672442D01*
X217783Y671213D02*
X217783Y678585D01*
X220240Y676128D01*
X222698Y678585D01*
X222698Y671213D01*
X225267Y671213D02*
X225267Y678585D01*
X225267Y671213D02*
X228953Y671213D01*
X230182Y672442D01*
X230182Y677357D01*
X228953Y678585D01*
X225267Y678585D01*
D11*
X222586Y714271D02*
X218858Y714271D01*
X218858Y711474D01*
X220722Y712407D01*
X221654Y712407D01*
X222586Y711474D01*
X222586Y709610D01*
X221654Y708678D01*
X219790Y708678D01*
X218858Y709610D01*
X224471Y710542D02*
X224471Y714271D01*
X224471Y710542D02*
X226335Y708678D01*
X228199Y710542D01*
X228199Y714271D01*
D12*
X37169Y260957D02*
X38737Y259389D01*
X37169Y260957D02*
X34033Y260957D01*
X32466Y259389D01*
X32466Y253119D01*
X34033Y251551D01*
X37169Y251551D01*
X38737Y253119D01*
X38737Y256254D01*
X35601Y256254D01*
X33191Y275681D02*
X26921Y275681D01*
X33191Y281952D01*
X33191Y283519D01*
X31624Y285087D01*
X28488Y285087D01*
X26921Y283519D01*
X36276Y283519D02*
X37843Y285087D01*
X40979Y285087D01*
X42547Y283519D01*
X42547Y281952D01*
X40979Y280384D01*
X39411Y280384D01*
X40979Y280384D02*
X42547Y278816D01*
X42547Y277249D01*
X40979Y275681D01*
X37843Y275681D01*
X36276Y277249D01*
X33191Y301081D02*
X26921Y301081D01*
X33191Y307352D01*
X33191Y308919D01*
X31624Y310487D01*
X28488Y310487D01*
X26921Y308919D01*
X36276Y301081D02*
X42547Y301081D01*
X36276Y301081D02*
X42547Y307352D01*
X42547Y308919D01*
X40979Y310487D01*
X37843Y310487D01*
X36276Y308919D01*
X33866Y326481D02*
X33866Y335887D01*
X30731Y335887D02*
X37001Y335887D01*
X40086Y335887D02*
X46357Y326481D01*
X40086Y326481D02*
X46357Y335887D01*
X32001Y351881D02*
X32001Y361287D01*
X36704Y361287D01*
X38271Y359719D01*
X38271Y356584D01*
X36704Y355016D01*
X32001Y355016D01*
X35136Y355016D02*
X38271Y351881D01*
X47627Y351881D02*
X41356Y361287D01*
X47627Y361287D02*
X41356Y351881D01*
X33191Y377281D02*
X26921Y377281D01*
X33191Y383552D01*
X33191Y385119D01*
X31624Y386687D01*
X28488Y386687D01*
X26921Y385119D01*
X36276Y383552D02*
X39411Y386687D01*
X39411Y377281D01*
X36276Y377281D02*
X42547Y377281D01*
X38737Y410519D02*
X37169Y412087D01*
X34033Y412087D01*
X32466Y410519D01*
X32466Y404249D01*
X34033Y402681D01*
X37169Y402681D01*
X38737Y404249D01*
X38737Y407384D01*
X35601Y407384D01*
X26921Y434352D02*
X30056Y437487D01*
X30056Y428081D01*
X26921Y428081D02*
X33191Y428081D01*
X36276Y429649D02*
X37843Y428081D01*
X40979Y428081D01*
X42547Y429649D01*
X42547Y435919D01*
X40979Y437487D01*
X37843Y437487D01*
X36276Y435919D01*
X36276Y434352D01*
X37843Y432784D01*
X42547Y432784D01*
X26921Y459752D02*
X30056Y462887D01*
X30056Y453481D01*
X26921Y453481D02*
X33191Y453481D01*
X36276Y461319D02*
X37843Y462887D01*
X40979Y462887D01*
X42547Y461319D01*
X42547Y459752D01*
X40979Y458184D01*
X42547Y456616D01*
X42547Y455049D01*
X40979Y453481D01*
X37843Y453481D01*
X36276Y455049D01*
X36276Y456616D01*
X37843Y458184D01*
X36276Y459752D01*
X36276Y461319D01*
X37843Y458184D02*
X40979Y458184D01*
X36197Y489557D02*
X29926Y489557D01*
X29926Y484854D01*
X33061Y486422D01*
X34629Y486422D01*
X36197Y484854D01*
X36197Y481719D01*
X34629Y480151D01*
X31493Y480151D01*
X29926Y481719D01*
X26921Y510552D02*
X30056Y513687D01*
X30056Y504281D01*
X26921Y504281D02*
X33191Y504281D01*
X36276Y513687D02*
X42547Y513687D01*
X42547Y512119D01*
X36276Y505849D01*
X36276Y504281D01*
X26921Y535952D02*
X30056Y539087D01*
X30056Y529681D01*
X26921Y529681D02*
X33191Y529681D01*
X39411Y537519D02*
X42547Y539087D01*
X39411Y537519D02*
X36276Y534384D01*
X36276Y531249D01*
X37843Y529681D01*
X40979Y529681D01*
X42547Y531249D01*
X42547Y532816D01*
X40979Y534384D01*
X36276Y534384D01*
X33359Y555081D02*
X33359Y564487D01*
X28656Y559784D01*
X34927Y559784D01*
X28656Y582049D02*
X28656Y588319D01*
X30223Y589887D01*
X33359Y589887D01*
X34927Y588319D01*
X34927Y582049D01*
X33359Y580481D01*
X30223Y580481D01*
X28656Y582049D01*
X34927Y588319D01*
X34927Y605881D02*
X28656Y605881D01*
X34927Y612152D01*
X34927Y613719D01*
X33359Y615287D01*
X30223Y615287D01*
X28656Y613719D01*
X26921Y637552D02*
X30056Y640687D01*
X30056Y631281D01*
X26921Y631281D02*
X33191Y631281D01*
X36276Y640687D02*
X42547Y640687D01*
X36276Y640687D02*
X36276Y635984D01*
X39411Y637552D01*
X40979Y637552D01*
X42547Y635984D01*
X42547Y632849D01*
X40979Y631281D01*
X37843Y631281D01*
X36276Y632849D01*
X33996Y664519D02*
X32428Y666087D01*
X29293Y666087D01*
X27725Y664519D01*
X27725Y662952D01*
X29293Y661384D01*
X32428Y661384D01*
X33996Y659816D01*
X33996Y658249D01*
X32428Y656681D01*
X29293Y656681D01*
X27725Y658249D01*
X37081Y656681D02*
X37081Y666087D01*
X37081Y656681D02*
X41784Y656681D01*
X43351Y658249D01*
X43351Y664519D01*
X41784Y666087D01*
X37081Y666087D01*
X46436Y662952D02*
X49571Y666087D01*
X49571Y656681D01*
X46436Y656681D02*
X52707Y656681D01*
X34443Y687717D02*
X33215Y688945D01*
X30757Y688945D01*
X29529Y687717D01*
X29529Y686488D01*
X30757Y685259D01*
X33215Y685259D01*
X34443Y684030D01*
X34443Y682802D01*
X33215Y681573D01*
X30757Y681573D01*
X29529Y682802D01*
X37013Y681573D02*
X37013Y688945D01*
X37013Y681573D02*
X40699Y681573D01*
X41928Y682802D01*
X41928Y687717D01*
X40699Y688945D01*
X37013Y688945D01*
X44497Y687717D02*
X44497Y682802D01*
X44497Y687717D02*
X45726Y688945D01*
X48183Y688945D01*
X49412Y687717D01*
X49412Y682802D01*
X48183Y681573D01*
X45726Y681573D01*
X44497Y682802D01*
X49412Y687717D01*
D13*
X122743Y372462D02*
X140538Y372462D01*
X140538Y384325D02*
X122743Y372462D01*
X122743Y384325D02*
X140538Y384325D01*
X140538Y393203D02*
X140538Y399134D01*
X137572Y402100D01*
X131640Y402100D01*
X128675Y399134D01*
X128675Y393203D01*
X131640Y390237D01*
X137572Y390237D01*
X140538Y393203D01*
X140538Y419875D02*
X122743Y419875D01*
X140538Y419875D02*
X140538Y410978D01*
X137572Y408012D01*
X131640Y408012D01*
X128675Y410978D01*
X128675Y419875D01*
X140538Y428752D02*
X140538Y434684D01*
X140538Y428752D02*
X137572Y425787D01*
X131640Y425787D01*
X128675Y428752D01*
X128675Y434684D01*
X131640Y437650D01*
X134606Y437650D01*
X134606Y425787D01*
X140538Y443561D02*
X122743Y443561D01*
X128675Y449493D01*
X122743Y455425D01*
X140538Y455425D01*
X125709Y473200D02*
X122743Y470234D01*
X122743Y464302D01*
X125709Y461336D01*
X137572Y461336D01*
X140538Y464302D01*
X140538Y470234D01*
X137572Y473200D01*
X137572Y479111D02*
X122743Y479111D01*
X137572Y479111D02*
X140538Y482077D01*
X140538Y488009D01*
X137572Y490975D01*
X122743Y490975D01*
X122743Y514661D02*
X122743Y526524D01*
X122743Y514661D02*
X140538Y514661D01*
X140538Y526524D01*
X131640Y520592D02*
X131640Y514661D01*
X122743Y541333D02*
X125709Y544299D01*
X122743Y541333D02*
X122743Y535401D01*
X125709Y532436D01*
X128675Y532436D01*
X131640Y535401D01*
X131640Y541333D01*
X134606Y544299D01*
X137572Y544299D01*
X140538Y541333D01*
X140538Y535401D01*
X137572Y532436D01*
X140538Y550210D02*
X122743Y550210D01*
X122743Y559108D01*
X125709Y562074D01*
X131640Y562074D01*
X134606Y559108D01*
X134606Y550210D01*
X131640Y567985D02*
X131640Y579849D01*
X125709Y585760D02*
X122743Y588726D01*
X122743Y594658D01*
X125709Y597624D01*
X128675Y597624D01*
X131640Y594658D01*
X131640Y591692D01*
X131640Y594658D02*
X134606Y597624D01*
X137572Y597624D01*
X140538Y594658D01*
X140538Y588726D01*
X137572Y585760D01*
X140538Y603535D02*
X140538Y615398D01*
X140538Y603535D02*
X128675Y615398D01*
X125709Y615398D01*
X122743Y612433D01*
X122743Y606501D01*
X125709Y603535D01*
X122743Y630207D02*
X125709Y633173D01*
X122743Y630207D02*
X122743Y624276D01*
X125709Y621310D01*
X128675Y621310D01*
X131640Y624276D01*
X131640Y630207D01*
X134606Y633173D01*
X137572Y633173D01*
X140538Y630207D01*
X140538Y624276D01*
X137572Y621310D01*
D10*
X2500Y725800D02*
X2500Y243200D01*
X2500Y725800D02*
X256500Y725800D01*
X256500Y243200D01*
X2500Y243200D01*
D15*
X159800Y180850D02*
X159800Y168150D01*
X159800Y180850D02*
X166150Y187200D01*
X178850Y187200D02*
X185200Y180850D01*
X166150Y187200D02*
X159800Y193550D01*
X159800Y206250D01*
X166150Y212600D01*
X178850Y212600D02*
X185200Y206250D01*
X185200Y193550D01*
X178850Y187200D01*
X178850Y161800D02*
X166150Y161800D01*
X159800Y168150D01*
X178850Y161800D02*
X185200Y168150D01*
X185200Y180850D01*
X178850Y212600D02*
X166150Y212600D01*
D11*
X179922Y190963D02*
X178990Y190031D01*
X179922Y190963D02*
X181786Y190963D01*
X182718Y190031D01*
X182718Y189099D01*
X181786Y188166D01*
X180854Y188166D01*
X181786Y188166D02*
X182718Y187234D01*
X182718Y186302D01*
X181786Y185370D01*
X179922Y185370D01*
X178990Y186302D01*
X184603Y185370D02*
X188331Y185370D01*
X184603Y185370D02*
X188331Y189099D01*
X188331Y190031D01*
X187399Y190963D01*
X185535Y190963D01*
X184603Y190031D01*
D15*
X185300Y180850D02*
X185300Y168150D01*
X185300Y180850D02*
X191650Y187200D01*
X204350Y187200D02*
X210700Y180850D01*
X191650Y187200D02*
X185300Y193550D01*
X185300Y206250D01*
X191650Y212600D01*
X204350Y212600D02*
X210700Y206250D01*
X210700Y193550D01*
X204350Y187200D01*
X204350Y161800D02*
X191650Y161800D01*
X185300Y168150D01*
X204350Y161800D02*
X210700Y168150D01*
X210700Y180850D01*
X204350Y212600D02*
X191650Y212600D01*
D11*
X204922Y190963D02*
X203990Y190031D01*
X204922Y190963D02*
X206786Y190963D01*
X207718Y190031D01*
X207718Y189099D01*
X206786Y188166D01*
X205854Y188166D01*
X206786Y188166D02*
X207718Y187234D01*
X207718Y186302D01*
X206786Y185370D01*
X204922Y185370D01*
X203990Y186302D01*
X209603Y190031D02*
X210535Y190963D01*
X212399Y190963D01*
X213331Y190031D01*
X213331Y189099D01*
X212399Y188166D01*
X211467Y188166D01*
X212399Y188166D02*
X213331Y187234D01*
X213331Y186302D01*
X212399Y185370D01*
X210535Y185370D01*
X209603Y186302D01*
D15*
X173050Y240200D02*
X160350Y240200D01*
X173050Y240200D02*
X179400Y233850D01*
X179400Y221150D02*
X173050Y214800D01*
X134950Y240200D02*
X128600Y233850D01*
X134950Y240200D02*
X147650Y240200D01*
X154000Y233850D01*
X154000Y221150D02*
X147650Y214800D01*
X134950Y214800D01*
X128600Y221150D01*
X154000Y233850D02*
X160350Y240200D01*
X154000Y221150D02*
X160350Y214800D01*
X173050Y214800D01*
X96850Y240200D02*
X84150Y240200D01*
X96850Y240200D02*
X103200Y233850D01*
X103200Y221150D02*
X96850Y214800D01*
X103200Y233850D02*
X109550Y240200D01*
X122250Y240200D01*
X128600Y233850D01*
X128600Y221150D02*
X122250Y214800D01*
X109550Y214800D01*
X103200Y221150D01*
X77800Y221150D02*
X77800Y233850D01*
X84150Y240200D01*
X77800Y221150D02*
X84150Y214800D01*
X96850Y214800D01*
X179400Y221150D02*
X179400Y233850D01*
X235200Y153350D02*
X235200Y140650D01*
X228850Y134300D01*
X216150Y134300D02*
X209800Y140650D01*
X228850Y134300D02*
X235200Y127950D01*
X235200Y115250D01*
X228850Y108900D01*
X216150Y108900D02*
X209800Y115250D01*
X209800Y127950D01*
X216150Y134300D01*
X216150Y159700D02*
X228850Y159700D01*
X235200Y153350D01*
X216150Y159700D02*
X209800Y153350D01*
X209800Y140650D01*
X216150Y108900D02*
X228850Y108900D01*
X208700Y140650D02*
X208700Y153350D01*
X208700Y140650D02*
X202350Y134300D01*
X189650Y134300D02*
X183300Y140650D01*
X202350Y134300D02*
X208700Y127950D01*
X208700Y115250D01*
X202350Y108900D01*
X189650Y108900D02*
X183300Y115250D01*
X183300Y127950D01*
X189650Y134300D01*
X189650Y159700D02*
X202350Y159700D01*
X208700Y153350D01*
X189650Y159700D02*
X183300Y153350D01*
X183300Y140650D01*
X189650Y108900D02*
X202350Y108900D01*
X2300Y166050D02*
X2300Y178750D01*
X8650Y185100D01*
X21350Y185100D02*
X27700Y178750D01*
X2300Y140650D02*
X8650Y134300D01*
X2300Y140650D02*
X2300Y153350D01*
X8650Y159700D01*
X21350Y159700D02*
X27700Y153350D01*
X27700Y140650D01*
X21350Y134300D01*
X8650Y159700D02*
X2300Y166050D01*
X21350Y159700D02*
X27700Y166050D01*
X27700Y178750D01*
X2300Y102550D02*
X2300Y89850D01*
X2300Y102550D02*
X8650Y108900D01*
X21350Y108900D02*
X27700Y102550D01*
X8650Y108900D02*
X2300Y115250D01*
X2300Y127950D01*
X8650Y134300D01*
X21350Y134300D02*
X27700Y127950D01*
X27700Y115250D01*
X21350Y108900D01*
X2300Y64450D02*
X8650Y58100D01*
X2300Y64450D02*
X2300Y77150D01*
X8650Y83500D01*
X21350Y83500D02*
X27700Y77150D01*
X27700Y64450D01*
X21350Y58100D01*
X8650Y83500D02*
X2300Y89850D01*
X21350Y83500D02*
X27700Y89850D01*
X27700Y102550D01*
X2300Y26350D02*
X2300Y13650D01*
X2300Y26350D02*
X8650Y32700D01*
X21350Y32700D02*
X27700Y26350D01*
X8650Y32700D02*
X2300Y39050D01*
X2300Y51750D01*
X8650Y58100D01*
X21350Y58100D02*
X27700Y51750D01*
X27700Y39050D01*
X21350Y32700D01*
X21350Y7300D02*
X8650Y7300D01*
X2300Y13650D01*
X21350Y7300D02*
X27700Y13650D01*
X27700Y26350D01*
X2300Y191450D02*
X2300Y204150D01*
X8650Y210500D01*
X21350Y210500D01*
X27700Y204150D01*
X8650Y185100D02*
X2300Y191450D01*
X21350Y185100D02*
X27700Y191450D01*
X27700Y204150D01*
M02*
