G04 EAGLE Gerber RS-274X export*
G75*
%MOMM*%
%FSLAX34Y34*%
%LPD*%
%INSilkscreen Bottom*%
%IPPOS*%
%AMOC8*
5,1,8,0,0,1.08239X$1,22.5*%
G01*
%ADD10C,0.304800*%
%ADD11C,0.101600*%
%ADD12R,0.007619X0.007619*%
%ADD13R,0.007619X0.015238*%
%ADD14R,0.007619X0.022856*%
%ADD15R,0.007619X0.060956*%
%ADD16R,0.007619X0.030475*%
%ADD17R,0.007619X0.045719*%
%ADD18R,0.007619X0.129537*%
%ADD19R,0.007619X0.137156*%
%ADD20R,0.007619X0.068575*%
%ADD21R,0.007619X0.190500*%
%ADD22R,0.007619X0.205738*%
%ADD23R,0.007619X0.083819*%
%ADD24R,0.007619X0.259075*%
%ADD25R,0.007619X0.274319*%
%ADD26R,0.007619X0.099056*%
%ADD27R,0.007619X0.281938*%
%ADD28R,0.007619X0.342900*%
%ADD29R,0.007619X0.106681*%
%ADD30R,0.007619X0.076200*%
%ADD31R,0.007619X0.396238*%
%ADD32R,0.007619X0.114300*%
%ADD33R,0.007619X0.091438*%
%ADD34R,0.007619X0.472438*%
%ADD35R,0.007619X0.121919*%
%ADD36R,0.007619X0.541019*%
%ADD37R,0.007619X0.144775*%
%ADD38R,0.007619X0.152400*%
%ADD39R,0.007619X0.601981*%
%ADD40R,0.007619X0.160019*%
%ADD41R,0.007619X0.617219*%
%ADD42R,0.007619X0.175256*%
%ADD43R,0.007619X0.678181*%
%ADD44R,0.007619X0.182875*%
%ADD45R,0.007619X0.685800*%
%ADD46R,0.007619X0.198119*%
%ADD47R,0.007619X0.739138*%
%ADD48R,0.007619X0.754381*%
%ADD49R,0.007619X0.213356*%
%ADD50R,0.007619X0.777238*%
%ADD51R,0.007619X0.822963*%
%ADD52R,0.007619X0.213363*%
%ADD53R,0.007619X0.899163*%
%ADD54R,0.007619X0.228600*%
%ADD55R,0.007619X0.967738*%
%ADD56R,0.007619X0.243838*%
%ADD57R,0.007619X0.022863*%
%ADD58R,0.007619X0.220981*%
%ADD59R,0.007619X1.028700*%
%ADD60R,0.007619X0.251463*%
%ADD61R,0.007619X1.021081*%
%ADD62R,0.007619X0.266700*%
%ADD63R,0.007619X1.082037*%
%ADD64R,0.007619X1.089656*%
%ADD65R,0.007619X1.150619*%
%ADD66R,0.007619X0.289563*%
%ADD67R,0.007619X1.165856*%
%ADD68R,0.007619X0.304800*%
%ADD69R,0.007619X1.226819*%
%ADD70R,0.007619X0.312419*%
%ADD71R,0.007619X1.234438*%
%ADD72R,0.007619X0.327663*%
%ADD73R,0.007619X1.280156*%
%ADD74R,0.007619X1.303019*%
%ADD75R,0.007619X0.350519*%
%ADD76R,0.007619X1.371600*%
%ADD77R,0.007619X0.358137*%
%ADD78R,0.007619X0.327656*%
%ADD79R,0.007619X1.447800*%
%ADD80R,0.007619X0.335281*%
%ADD81R,0.007619X1.508756*%
%ADD82R,0.007619X0.373381*%
%ADD83R,0.007619X1.516381*%
%ADD84R,0.007619X0.381000*%
%ADD85R,0.007619X1.584956*%
%ADD86R,0.007619X0.388619*%
%ADD87R,0.007619X1.653538*%
%ADD88R,0.007619X0.403856*%
%ADD89R,0.007619X0.411481*%
%ADD90R,0.007619X1.714500*%
%ADD91R,0.007619X0.426719*%
%ADD92R,0.007619X1.729738*%
%ADD93R,0.007619X0.434338*%
%ADD94R,0.007619X1.767838*%
%ADD95R,0.007619X0.441956*%
%ADD96R,0.007619X1.783081*%
%ADD97R,0.007619X0.457200*%
%ADD98R,0.007619X0.464819*%
%ADD99R,0.007619X1.859281*%
%ADD100R,0.007619X1.851656*%
%ADD101R,0.007619X1.920238*%
%ADD102R,0.007619X0.441963*%
%ADD103R,0.007619X1.996438*%
%ADD104R,0.007619X0.480063*%
%ADD105R,0.007619X2.057400*%
%ADD106R,0.007619X0.495300*%
%ADD107R,0.007619X2.065019*%
%ADD108R,0.007619X0.502919*%
%ADD109R,0.007619X2.133600*%
%ADD110R,0.007619X0.510537*%
%ADD111R,0.007619X2.141219*%
%ADD112R,0.007619X0.518162*%
%ADD113R,0.007619X2.194556*%
%ADD114R,0.007619X0.525781*%
%ADD115R,0.007619X2.202181*%
%ADD116R,0.007619X0.533400*%
%ADD117R,0.007619X2.263138*%
%ADD118R,0.007619X0.548638*%
%ADD119R,0.007619X2.278381*%
%ADD120R,0.007619X2.286000*%
%ADD121R,0.007619X0.563881*%
%ADD122R,0.007619X2.331719*%
%ADD123R,0.007619X2.324100*%
%ADD124R,0.007619X0.586738*%
%ADD125R,0.007619X2.407919*%
%ADD126R,0.007619X0.594363*%
%ADD127R,0.007619X2.468875*%
%ADD128R,0.007619X2.545075*%
%ADD129R,0.007619X0.609600*%
%ADD130R,0.007619X2.606038*%
%ADD131R,0.007619X0.624838*%
%ADD132R,0.007619X2.613656*%
%ADD133R,0.007619X0.632456*%
%ADD134R,0.007619X2.682238*%
%ADD135R,0.007619X0.640081*%
%ADD136R,0.007619X2.689856*%
%ADD137R,0.007619X0.647700*%
%ADD138R,0.007619X2.743200*%
%ADD139R,0.007619X0.662938*%
%ADD140R,0.007619X2.750819*%
%ADD141R,0.007619X2.766056*%
%ADD142R,0.007619X2.827019*%
%ADD143R,0.007619X0.701037*%
%ADD144R,0.007619X2.895600*%
%ADD145R,0.007619X0.716281*%
%ADD146R,0.007619X2.971800*%
%ADD147R,0.007619X0.731519*%
%ADD148R,0.007619X3.032756*%
%ADD149R,0.007619X3.025138*%
%ADD150R,0.007619X3.093719*%
%ADD151R,0.007619X0.746756*%
%ADD152R,0.007619X3.154675*%
%ADD153R,0.007619X3.162300*%
%ADD154R,0.007619X0.769619*%
%ADD155R,0.007619X3.230875*%
%ADD156R,0.007619X0.784856*%
%ADD157R,0.007619X0.792481*%
%ADD158R,0.007619X3.238500*%
%ADD159R,0.007619X0.807719*%
%ADD160R,0.007619X0.815338*%
%ADD161R,0.007619X3.246119*%
%ADD162R,0.007619X0.830581*%
%ADD163R,0.007619X0.845819*%
%ADD164R,0.007619X0.853438*%
%ADD165R,0.007619X0.861056*%
%ADD166R,0.007619X0.868681*%
%ADD167R,0.007619X0.883919*%
%ADD168R,0.007619X3.230881*%
%ADD169R,0.007619X0.899156*%
%ADD170R,0.007619X0.914400*%
%ADD171R,0.007619X0.922019*%
%ADD172R,0.007619X0.929638*%
%ADD173R,0.007619X0.937256*%
%ADD174R,0.007619X0.944875*%
%ADD175R,0.007619X0.960119*%
%ADD176R,0.007619X0.975356*%
%ADD177R,0.007619X0.982975*%
%ADD178R,0.007619X0.998219*%
%ADD179R,0.007619X1.005837*%
%ADD180R,0.007619X3.253738*%
%ADD181R,0.007619X3.261363*%
%ADD182R,0.007619X1.013456*%
%ADD183R,0.007619X1.036319*%
%ADD184R,0.007619X1.043937*%
%ADD185R,0.007619X1.051556*%
%ADD186R,0.007619X1.059175*%
%ADD187R,0.007619X1.074419*%
%ADD188R,0.007619X1.097275*%
%ADD189R,0.007619X1.112519*%
%ADD190R,0.007619X1.127756*%
%ADD191R,0.007619X1.143000*%
%ADD192R,0.007619X1.158238*%
%ADD193R,0.007619X1.165863*%
%ADD194R,0.007619X1.173481*%
%ADD195R,0.007619X1.181100*%
%ADD196R,0.007619X1.188719*%
%ADD197R,0.007619X1.203963*%
%ADD198R,0.007619X1.242063*%
%ADD199R,0.007619X1.257300*%
%ADD200R,0.007619X1.272538*%
%ADD201R,0.007619X1.242056*%
%ADD202R,0.007619X1.249681*%
%ADD203R,0.007619X1.287781*%
%ADD204R,0.007619X1.264919*%
%ADD205R,0.007619X3.268981*%
%ADD206R,0.007619X1.310638*%
%ADD207R,0.007619X1.318256*%
%ADD208R,0.007619X1.333500*%
%ADD209R,0.007619X1.341119*%
%ADD210R,0.007619X1.356356*%
%ADD211R,0.007619X1.386838*%
%ADD212R,0.007619X1.394456*%
%ADD213R,0.007619X3.261356*%
%ADD214R,0.007619X1.402081*%
%ADD215R,0.007619X1.379219*%
%ADD216R,0.007619X1.417319*%
%ADD217R,0.007619X3.276600*%
%ADD218R,0.007619X1.424937*%
%ADD219R,0.007619X1.432562*%
%ADD220R,0.007619X1.440181*%
%ADD221R,0.007619X1.455419*%
%ADD222R,0.007619X1.463037*%
%ADD223R,0.007619X1.478281*%
%ADD224R,0.007619X3.268975*%
%ADD225R,0.007619X1.493519*%
%ADD226R,0.007619X1.501138*%
%ADD227R,0.007619X1.508763*%
%ADD228R,0.007619X1.485900*%
%ADD229R,0.007619X1.524000*%
%ADD230R,0.007619X1.539238*%
%ADD231R,0.007619X1.546856*%
%ADD232R,0.007619X1.554481*%
%ADD233R,0.007619X1.562100*%
%ADD234R,0.007619X1.577338*%
%ADD235R,0.007619X3.284219*%
%ADD236R,0.007619X3.291838*%
%ADD237R,0.007619X1.592581*%
%ADD238R,0.007619X1.592575*%
%ADD239R,0.007619X3.307075*%
%ADD240R,0.007619X3.299456*%
%ADD241R,0.007619X1.600200*%
%ADD242R,0.007619X1.607819*%
%ADD243R,0.007619X3.307081*%
%ADD244R,0.007619X1.615438*%
%ADD245R,0.007619X3.314700*%
%ADD246R,0.007619X3.322319*%
%ADD247R,0.007619X1.623056*%
%ADD248R,0.007619X3.329938*%
%ADD249R,0.007619X3.337563*%
%ADD250R,0.007619X1.630681*%
%ADD251R,0.007619X1.623063*%
%ADD252R,0.007619X3.337556*%
%ADD253R,0.007619X1.638300*%
%ADD254R,0.007619X3.345181*%
%ADD255R,0.007619X1.645919*%
%ADD256R,0.007619X3.352800*%
%ADD257R,0.007619X3.360419*%
%ADD258R,0.007619X1.630675*%
%ADD259R,0.007619X3.345175*%
%ADD260R,0.007619X3.368038*%
%ADD261R,0.007619X1.661156*%
%ADD262R,0.007619X3.375663*%
%ADD263R,0.007619X1.661163*%
%ADD264R,0.007619X3.383275*%
%ADD265R,0.007619X1.676400*%
%ADD266R,0.007619X1.668781*%
%ADD267R,0.007619X3.383281*%
%ADD268R,0.007619X1.684019*%
%ADD269R,0.007619X3.390900*%
%ADD270R,0.007619X3.398519*%
%ADD271R,0.007619X3.406138*%
%ADD272R,0.007619X1.691638*%
%ADD273R,0.007619X3.139438*%
%ADD274R,0.007619X3.131819*%
%ADD275R,0.007619X3.063238*%
%ADD276R,0.007619X3.055619*%
%ADD277R,0.007619X2.964181*%
%ADD278R,0.007619X1.569719*%
%ADD279R,0.007619X2.887981*%
%ADD280R,0.007619X2.880362*%
%ADD281R,0.007619X2.781300*%
%ADD282R,0.007619X1.546863*%
%ADD283R,0.007619X2.705100*%
%ADD284R,0.007619X2.667000*%
%ADD285R,0.007619X2.621275*%
%ADD286R,0.007619X2.537456*%
%ADD287R,0.007619X1.470656*%
%ADD288R,0.007619X2.446019*%
%ADD289R,0.007619X2.438400*%
%ADD290R,0.007619X1.440175*%
%ADD291R,0.007619X2.369819*%
%ADD292R,0.007619X2.270756*%
%ADD293R,0.007619X2.186937*%
%ADD294R,0.007619X0.030481*%
%ADD295R,0.007619X2.202175*%
%ADD296R,0.007619X2.103119*%
%ADD297R,0.007619X2.034537*%
%ADD298R,0.007619X1.363975*%
%ADD299R,0.007619X2.026919*%
%ADD300R,0.007619X1.348738*%
%ADD301R,0.007619X2.019300*%
%ADD302R,0.007619X1.927856*%
%ADD303R,0.007619X1.318263*%
%ADD304R,0.007619X1.844037*%
%ADD305R,0.007619X1.295400*%
%ADD306R,0.007619X1.752600*%
%ADD307R,0.007619X1.744975*%
%ADD308R,0.007619X1.668775*%
%ADD309R,0.007619X1.219200*%
%ADD310R,0.007619X1.409700*%
%ADD311R,0.007619X1.211575*%
%ADD312R,0.007619X1.325881*%
%ADD313R,0.007619X1.135375*%
%ADD314R,0.007619X1.120138*%
%ADD315R,0.007619X1.066800*%
%ADD316R,0.007619X1.104900*%
%ADD317R,0.007619X0.990600*%
%ADD318R,0.007619X0.891538*%
%ADD319R,0.007619X0.708656*%
%ADD320R,0.007619X0.640075*%
%ADD321R,0.007619X0.556262*%
%ADD322R,0.007619X0.480056*%
%ADD323R,0.007619X0.952500*%
%ADD324R,0.007619X0.906781*%
%ADD325R,0.007619X0.876300*%
%ADD326R,0.007619X0.038100*%
%ADD327R,0.007619X0.822956*%
%ADD328R,0.007619X0.800100*%
%ADD329R,0.007619X0.723900*%
%ADD330R,0.007619X0.670563*%
%ADD331R,0.007619X0.144781*%
%ADD332R,0.007619X0.167637*%
%ADD333R,0.007619X0.601975*%
%ADD334R,0.007619X0.579119*%
%ADD335R,0.007619X0.556256*%
%ADD336R,0.007619X0.487681*%
%ADD337R,0.007619X0.655319*%
%ADD338R,0.007619X0.487675*%
%ADD339R,0.007619X1.432556*%
%ADD340R,0.007619X0.419100*%
%ADD341R,0.007619X0.373375*%
%ADD342R,0.007619X1.935481*%
%ADD343R,0.007619X2.110737*%
%ADD344R,0.007619X2.255519*%
%ADD345R,0.007619X2.400300*%
%ADD346R,0.007619X2.430775*%
%ADD347R,0.007619X0.297175*%
%ADD348R,0.007619X2.560319*%
%ADD349R,0.007619X2.590800*%
%ADD350R,0.007619X2.697475*%
%ADD351R,0.007619X0.251456*%
%ADD352R,0.007619X0.236219*%
%ADD353R,0.007619X2.903219*%
%ADD354R,0.007619X3.070856*%
%ADD355R,0.007619X0.220975*%
%ADD356R,0.007619X3.078481*%
%ADD357R,0.007619X3.223263*%
%ADD358R,0.007619X3.543300*%
%ADD359R,0.007619X3.550919*%
%ADD360R,0.007619X3.695700*%
%ADD361R,0.007619X3.726175*%
%ADD362R,0.007619X3.848100*%
%ADD363R,0.007619X3.870956*%
%ADD364R,0.007619X4.046219*%
%ADD365R,0.007619X4.038600*%
%ADD366R,0.007619X0.068581*%
%ADD367R,0.007619X4.191000*%
%ADD368R,0.007619X4.358638*%
%ADD369R,0.007619X4.366256*%
%ADD370R,0.007619X4.503419*%
%ADD371R,0.007619X4.518663*%
%ADD372R,0.007619X4.678681*%
%ADD373R,0.007619X4.693919*%
%ADD374R,0.007619X4.823463*%
%ADD375R,0.007619X4.838700*%
%ADD376R,0.007619X4.968237*%
%ADD377R,0.007619X5.021575*%
%ADD378R,0.007619X5.052056*%
%ADD379R,0.007619X5.006337*%
%ADD380R,0.007619X4.998719*%
%ADD381R,0.007619X4.991100*%
%ADD382R,0.007619X4.945375*%
%ADD383R,0.007619X4.945381*%
%ADD384R,0.007619X4.922519*%
%ADD385R,0.007619X4.930137*%
%ADD386R,0.007619X4.884419*%
%ADD387R,0.007619X4.892037*%
%ADD388R,0.007619X4.861556*%
%ADD389R,0.007619X4.869181*%
%ADD390R,0.007619X4.815838*%
%ADD391R,0.007619X4.808219*%
%ADD392R,0.007619X4.792981*%
%ADD393R,0.007619X4.762500*%
%ADD394R,0.007619X4.770119*%
%ADD395R,0.007619X4.655819*%
%ADD396R,0.007619X4.648200*%
%ADD397R,0.007619X4.411975*%
%ADD398R,0.007619X4.396738*%
%ADD399R,0.007619X4.206238*%
%ADD400R,0.007619X3.947156*%
%ADD401R,0.007619X3.749038*%
%ADD402R,0.007619X3.718556*%
%ADD403R,0.007619X3.505200*%
%ADD404R,0.007619X3.474719*%
%ADD405R,0.007619X3.048000*%
%ADD406R,0.007619X2.849881*%
%ADD407R,0.007619X2.834637*%
%ADD408R,0.007619X2.385063*%
%ADD409R,0.007619X1.981200*%
%ADD410R,0.007619X1.943100*%
%ADD411R,0.007619X0.297181*%
%ADD412C,0.152400*%
%ADD413C,0.050800*%
%ADD414C,0.076200*%
%ADD415C,0.203200*%


D10*
X93117Y416068D02*
X92617Y418068D01*
D11*
X213049Y600060D02*
X213049Y611754D01*
X207202Y611754D01*
X205253Y609805D01*
X205253Y607856D01*
X207202Y605907D01*
X205253Y603958D01*
X205253Y602009D01*
X207202Y600060D01*
X213049Y600060D01*
X213049Y605907D02*
X207202Y605907D01*
X201355Y607856D02*
X201355Y600060D01*
X201355Y607856D02*
X197457Y611754D01*
X193559Y607856D01*
X193559Y600060D01*
X193559Y605907D02*
X201355Y605907D01*
X185763Y600060D02*
X185763Y611754D01*
X189661Y611754D02*
X181865Y611754D01*
X174069Y611754D02*
X174069Y600060D01*
X177967Y611754D02*
X170171Y611754D01*
X166273Y605907D02*
X158477Y605907D01*
X162375Y609805D02*
X162375Y602009D01*
D12*
X93262Y292001D03*
D13*
X93338Y292039D03*
D12*
X93338Y291087D03*
D14*
X93415Y292077D03*
D15*
X93415Y290820D03*
D16*
X93491Y292115D03*
D15*
X93491Y290820D03*
D17*
X93567Y292192D03*
D18*
X93567Y290477D03*
D17*
X93643Y292192D03*
D19*
X93643Y290439D03*
D20*
X93719Y292306D03*
D21*
X93719Y290172D03*
D20*
X93796Y292306D03*
D22*
X93796Y290096D03*
D23*
X93872Y292382D03*
D24*
X93872Y289829D03*
D23*
X93948Y292382D03*
D25*
X93948Y289753D03*
D26*
X94024Y292458D03*
D27*
X94024Y289715D03*
D14*
X94100Y292839D03*
D20*
X94100Y292306D03*
D28*
X94100Y289410D03*
D29*
X94177Y292573D03*
D28*
X94177Y289410D03*
D14*
X94253Y293068D03*
D30*
X94253Y292496D03*
D31*
X94253Y288991D03*
D32*
X94329Y292687D03*
D31*
X94329Y288991D03*
D14*
X94405Y293220D03*
D33*
X94405Y292573D03*
D34*
X94405Y288610D03*
D35*
X94481Y292725D03*
D34*
X94481Y288610D03*
D19*
X94558Y292801D03*
D36*
X94558Y288267D03*
D37*
X94634Y292839D03*
D36*
X94634Y288267D03*
D38*
X94710Y292877D03*
D39*
X94710Y287963D03*
D40*
X94786Y292916D03*
D41*
X94786Y287886D03*
D42*
X94862Y292992D03*
D43*
X94862Y287582D03*
D44*
X94939Y293030D03*
D45*
X94939Y287543D03*
D46*
X95015Y293106D03*
D47*
X95015Y287277D03*
D46*
X95091Y293106D03*
D48*
X95091Y287201D03*
D49*
X95167Y293182D03*
D50*
X95167Y287086D03*
D13*
X95167Y282895D03*
D22*
X95243Y293220D03*
D51*
X95243Y286858D03*
D52*
X95320Y293335D03*
D51*
X95320Y286858D03*
D14*
X95396Y294363D03*
D21*
X95396Y293220D03*
D53*
X95396Y286477D03*
D54*
X95472Y293411D03*
D53*
X95472Y286477D03*
D14*
X95548Y294516D03*
D22*
X95548Y293297D03*
D55*
X95548Y286134D03*
D56*
X95624Y293487D03*
D55*
X95624Y286134D03*
D57*
X95701Y294668D03*
D58*
X95701Y293373D03*
D59*
X95701Y285753D03*
D60*
X95777Y293525D03*
D61*
X95777Y285715D03*
D62*
X95853Y293601D03*
D63*
X95853Y285410D03*
D25*
X95929Y293639D03*
D64*
X95929Y285372D03*
D27*
X96005Y293678D03*
D65*
X96005Y285067D03*
D66*
X96082Y293716D03*
D67*
X96082Y284991D03*
D68*
X96158Y293792D03*
D69*
X96158Y284686D03*
D70*
X96234Y293830D03*
D71*
X96234Y284648D03*
D72*
X96310Y293906D03*
D73*
X96310Y284419D03*
D72*
X96386Y293906D03*
D74*
X96386Y284305D03*
D28*
X96463Y293982D03*
D74*
X96463Y284305D03*
D75*
X96539Y294020D03*
D76*
X96539Y283962D03*
D77*
X96615Y294059D03*
D76*
X96615Y283962D03*
D57*
X96691Y295811D03*
D78*
X96691Y293982D03*
D79*
X96691Y283581D03*
D77*
X96767Y294211D03*
D79*
X96767Y283581D03*
D14*
X96844Y295964D03*
D80*
X96844Y294097D03*
D81*
X96844Y283276D03*
D82*
X96920Y294287D03*
D83*
X96920Y283238D03*
D84*
X96996Y294325D03*
D85*
X96996Y282895D03*
D86*
X97072Y294363D03*
D85*
X97072Y282895D03*
D31*
X97148Y294401D03*
D87*
X97148Y282552D03*
D88*
X97225Y294440D03*
D87*
X97225Y282552D03*
D89*
X97301Y294478D03*
D90*
X97301Y282248D03*
D91*
X97377Y294554D03*
D92*
X97377Y282171D03*
D93*
X97453Y294592D03*
D94*
X97453Y281828D03*
D95*
X97529Y294630D03*
D96*
X97529Y281752D03*
D97*
X97606Y294706D03*
D96*
X97606Y281752D03*
D98*
X97682Y294744D03*
D99*
X97682Y281371D03*
D98*
X97758Y294821D03*
D100*
X97758Y281409D03*
D14*
X97834Y297107D03*
D95*
X97834Y294706D03*
D101*
X97834Y281066D03*
D34*
X97910Y294935D03*
D101*
X97910Y281066D03*
D14*
X97987Y297259D03*
D102*
X97987Y294859D03*
D103*
X97987Y280685D03*
D104*
X98063Y295049D03*
D103*
X98063Y280685D03*
D14*
X98139Y297411D03*
D97*
X98139Y294935D03*
D105*
X98139Y280381D03*
D106*
X98215Y295125D03*
D107*
X98215Y280343D03*
D108*
X98291Y295163D03*
D109*
X98291Y280000D03*
D110*
X98368Y295202D03*
D111*
X98368Y279962D03*
D112*
X98444Y295240D03*
D113*
X98444Y279695D03*
D114*
X98520Y295278D03*
D115*
X98520Y279657D03*
D116*
X98596Y295316D03*
D117*
X98596Y279352D03*
D118*
X98672Y295392D03*
D119*
X98672Y279276D03*
D118*
X98749Y295392D03*
D120*
X98749Y279238D03*
D121*
X98825Y295468D03*
D122*
X98825Y278933D03*
D12*
X98901Y298402D03*
D121*
X98901Y295468D03*
D123*
X98901Y278895D03*
D124*
X98977Y295583D03*
D125*
X98977Y278476D03*
D126*
X99053Y295621D03*
D125*
X99053Y278476D03*
D39*
X99130Y295659D03*
D127*
X99130Y278171D03*
D39*
X99206Y295659D03*
D127*
X99206Y278171D03*
D14*
X99282Y298707D03*
D124*
X99282Y295583D03*
D128*
X99282Y277790D03*
D129*
X99358Y295849D03*
D128*
X99358Y277790D03*
D41*
X99434Y295887D03*
D130*
X99434Y277485D03*
D131*
X99511Y295925D03*
D132*
X99511Y277447D03*
D133*
X99587Y295964D03*
D134*
X99587Y277104D03*
D135*
X99663Y296002D03*
D136*
X99663Y277066D03*
D137*
X99739Y296040D03*
D138*
X99739Y276799D03*
D139*
X99815Y296116D03*
D140*
X99815Y276761D03*
D139*
X99892Y296116D03*
D141*
X99892Y276685D03*
D43*
X99968Y296192D03*
D142*
X99968Y276380D03*
D43*
X100044Y296192D03*
D142*
X100044Y276380D03*
D143*
X100120Y296306D03*
D144*
X100120Y276037D03*
D143*
X100196Y296306D03*
D144*
X100196Y276037D03*
D145*
X100273Y296383D03*
D146*
X100273Y275656D03*
D145*
X100349Y296383D03*
D146*
X100349Y275656D03*
D147*
X100425Y296459D03*
D148*
X100425Y275351D03*
D47*
X100501Y296497D03*
D149*
X100501Y275313D03*
D147*
X100577Y296611D03*
D150*
X100577Y274894D03*
D47*
X100654Y296649D03*
D150*
X100654Y274894D03*
D151*
X100730Y296687D03*
D152*
X100730Y274589D03*
D48*
X100806Y296726D03*
D153*
X100806Y274551D03*
D154*
X100882Y296802D03*
D155*
X100882Y274208D03*
D154*
X100958Y296802D03*
D155*
X100958Y274208D03*
D156*
X101035Y296878D03*
D155*
X101035Y274208D03*
D157*
X101111Y296916D03*
D155*
X101111Y274208D03*
D157*
X101187Y296916D03*
D158*
X101187Y274170D03*
D159*
X101263Y296992D03*
D158*
X101263Y274170D03*
D160*
X101339Y297030D03*
D161*
X101339Y274132D03*
D162*
X101416Y297107D03*
D161*
X101416Y274132D03*
D162*
X101492Y297107D03*
D161*
X101492Y274132D03*
D163*
X101568Y297183D03*
D161*
X101568Y274132D03*
D164*
X101644Y297221D03*
D161*
X101644Y274132D03*
D165*
X101720Y297259D03*
D158*
X101720Y274094D03*
D166*
X101797Y297297D03*
D158*
X101797Y274094D03*
D167*
X101873Y297373D03*
D158*
X101873Y274094D03*
D167*
X101949Y297373D03*
D158*
X101949Y274094D03*
D167*
X102025Y297526D03*
D168*
X102025Y274056D03*
D167*
X102101Y297526D03*
D158*
X102101Y274018D03*
D169*
X102178Y297602D03*
D158*
X102178Y274018D03*
D169*
X102254Y297602D03*
D161*
X102254Y273980D03*
D170*
X102330Y297678D03*
D161*
X102330Y273980D03*
D171*
X102406Y297716D03*
D161*
X102406Y273980D03*
D172*
X102482Y297754D03*
D161*
X102482Y273980D03*
D173*
X102559Y297792D03*
D161*
X102559Y273980D03*
D174*
X102635Y297830D03*
D161*
X102635Y273980D03*
D175*
X102711Y297907D03*
D161*
X102711Y273980D03*
D175*
X102787Y297907D03*
D161*
X102787Y273980D03*
D176*
X102863Y297983D03*
D161*
X102863Y273980D03*
D177*
X102940Y298021D03*
D161*
X102940Y273980D03*
D178*
X103016Y298097D03*
D161*
X103016Y273980D03*
D178*
X103092Y298097D03*
D161*
X103092Y273980D03*
D179*
X103168Y298211D03*
D180*
X103168Y273942D03*
D14*
X103244Y303126D03*
D55*
X103244Y298097D03*
D181*
X103244Y273904D03*
D182*
X103321Y298326D03*
D181*
X103321Y273904D03*
D182*
X103397Y298326D03*
D180*
X103397Y273866D03*
D59*
X103473Y298402D03*
D180*
X103473Y273866D03*
D183*
X103549Y298440D03*
D180*
X103549Y273866D03*
D184*
X103625Y298478D03*
D158*
X103625Y273789D03*
D185*
X103702Y298516D03*
D158*
X103702Y273789D03*
D186*
X103778Y298554D03*
D158*
X103778Y273789D03*
D187*
X103854Y298631D03*
D158*
X103854Y273789D03*
D187*
X103930Y298631D03*
D158*
X103930Y273789D03*
D64*
X104006Y298707D03*
D158*
X104006Y273789D03*
D188*
X104083Y298745D03*
D161*
X104083Y273751D03*
D189*
X104159Y298821D03*
D180*
X104159Y273713D03*
D189*
X104235Y298821D03*
D180*
X104235Y273713D03*
D190*
X104311Y298897D03*
D180*
X104311Y273713D03*
D190*
X104387Y298897D03*
D180*
X104387Y273713D03*
D191*
X104464Y298973D03*
D180*
X104464Y273713D03*
D191*
X104540Y298973D03*
D180*
X104540Y273713D03*
D192*
X104616Y299050D03*
D180*
X104616Y273713D03*
D192*
X104692Y299126D03*
D180*
X104692Y273713D03*
D192*
X104768Y299202D03*
D180*
X104768Y273713D03*
D193*
X104845Y299240D03*
D180*
X104845Y273713D03*
D194*
X104921Y299278D03*
D180*
X104921Y273713D03*
D195*
X104997Y299316D03*
D158*
X104997Y273637D03*
D196*
X105073Y299354D03*
D158*
X105073Y273637D03*
D197*
X105149Y299431D03*
D180*
X105149Y273561D03*
D197*
X105226Y299431D03*
D180*
X105226Y273561D03*
D69*
X105302Y299545D03*
D180*
X105302Y273561D03*
D69*
X105378Y299545D03*
D180*
X105378Y273561D03*
D198*
X105454Y299621D03*
D180*
X105454Y273561D03*
D198*
X105530Y299621D03*
D180*
X105530Y273561D03*
D199*
X105607Y299697D03*
D180*
X105607Y273561D03*
D199*
X105683Y299697D03*
D180*
X105683Y273561D03*
D200*
X105759Y299774D03*
D180*
X105759Y273561D03*
D57*
X105835Y306098D03*
D201*
X105835Y299697D03*
D180*
X105835Y273561D03*
D200*
X105911Y299926D03*
D180*
X105911Y273561D03*
D14*
X105988Y306251D03*
D202*
X105988Y299812D03*
D180*
X105988Y273561D03*
D203*
X106064Y300002D03*
D180*
X106064Y273561D03*
D12*
X106064Y257178D03*
D14*
X106140Y306403D03*
D204*
X106140Y299888D03*
D205*
X106140Y273485D03*
D74*
X106216Y300078D03*
D205*
X106216Y273485D03*
D206*
X106292Y300116D03*
D205*
X106292Y273485D03*
D207*
X106369Y300155D03*
D205*
X106369Y273485D03*
D208*
X106445Y300231D03*
D205*
X106445Y273485D03*
D209*
X106521Y300269D03*
D205*
X106521Y273485D03*
D210*
X106597Y300345D03*
D180*
X106597Y273408D03*
D210*
X106673Y300345D03*
D180*
X106673Y273408D03*
D76*
X106750Y300421D03*
D180*
X106750Y273408D03*
D76*
X106826Y300421D03*
D180*
X106826Y273408D03*
D211*
X106902Y300497D03*
D180*
X106902Y273408D03*
D212*
X106978Y300536D03*
D213*
X106978Y273370D03*
D214*
X107054Y300574D03*
D213*
X107054Y273370D03*
D14*
X107131Y307546D03*
D215*
X107131Y300459D03*
D205*
X107131Y273332D03*
D216*
X107207Y300650D03*
D217*
X107207Y273294D03*
D14*
X107283Y307698D03*
D211*
X107283Y300574D03*
D217*
X107283Y273294D03*
D218*
X107359Y300764D03*
D217*
X107359Y273294D03*
D218*
X107435Y300840D03*
D217*
X107435Y273294D03*
D218*
X107512Y300917D03*
D217*
X107512Y273294D03*
D219*
X107588Y300955D03*
D217*
X107588Y273294D03*
D220*
X107664Y300993D03*
D217*
X107664Y273294D03*
D221*
X107740Y301069D03*
D217*
X107740Y273294D03*
D222*
X107816Y301107D03*
D217*
X107816Y273294D03*
D223*
X107893Y301183D03*
D217*
X107893Y273294D03*
D223*
X107969Y301183D03*
D224*
X107969Y273256D03*
D225*
X108045Y301259D03*
D205*
X108045Y273180D03*
D226*
X108121Y301298D03*
D205*
X108121Y273180D03*
D227*
X108197Y301336D03*
D217*
X108197Y273142D03*
D14*
X108274Y308841D03*
D228*
X108274Y301221D03*
D217*
X108274Y273142D03*
D229*
X108350Y301412D03*
D217*
X108350Y273142D03*
D14*
X108426Y308994D03*
D226*
X108426Y301298D03*
D217*
X108426Y273142D03*
D230*
X108502Y301488D03*
D217*
X108502Y273142D03*
D57*
X108578Y309146D03*
D226*
X108578Y301450D03*
D217*
X108578Y273142D03*
D230*
X108655Y301640D03*
D217*
X108655Y273142D03*
D231*
X108731Y301679D03*
D217*
X108731Y273142D03*
D232*
X108807Y301717D03*
D217*
X108807Y273142D03*
D233*
X108883Y301755D03*
D217*
X108883Y273142D03*
D234*
X108959Y301831D03*
D217*
X108959Y273142D03*
D234*
X109036Y301831D03*
D235*
X109036Y273104D03*
D234*
X109112Y301831D03*
D236*
X109112Y273065D03*
D234*
X109188Y301831D03*
D236*
X109188Y273065D03*
D234*
X109264Y301831D03*
D236*
X109264Y273065D03*
D234*
X109340Y301831D03*
D236*
X109340Y273065D03*
D234*
X109417Y301831D03*
D236*
X109417Y273065D03*
D234*
X109493Y301831D03*
D236*
X109493Y273065D03*
D234*
X109569Y301831D03*
D236*
X109569Y273065D03*
D234*
X109645Y301831D03*
D217*
X109645Y272989D03*
D234*
X109721Y301831D03*
D217*
X109721Y272989D03*
D237*
X109798Y301907D03*
D217*
X109798Y272989D03*
D237*
X109874Y301907D03*
D217*
X109874Y272989D03*
D237*
X109950Y301907D03*
D217*
X109950Y272989D03*
D237*
X110026Y301907D03*
D235*
X110026Y272951D03*
D234*
X110102Y301983D03*
D236*
X110102Y272913D03*
D234*
X110179Y301983D03*
D236*
X110179Y272913D03*
D234*
X110255Y301983D03*
D236*
X110255Y272913D03*
D234*
X110331Y301983D03*
D236*
X110331Y272913D03*
D234*
X110407Y301983D03*
D236*
X110407Y272913D03*
D234*
X110483Y301983D03*
D236*
X110483Y272913D03*
D234*
X110560Y301983D03*
D236*
X110560Y272913D03*
D234*
X110636Y301983D03*
D236*
X110636Y272913D03*
D234*
X110712Y301983D03*
D236*
X110712Y272913D03*
D234*
X110788Y301983D03*
D236*
X110788Y272913D03*
D237*
X110864Y302060D03*
D236*
X110864Y272913D03*
D237*
X110941Y302060D03*
D235*
X110941Y272875D03*
D237*
X111017Y302060D03*
D236*
X111017Y272837D03*
D237*
X111093Y302060D03*
D236*
X111093Y272761D03*
D237*
X111169Y302060D03*
D236*
X111169Y272761D03*
D237*
X111245Y302060D03*
D236*
X111245Y272761D03*
D234*
X111322Y302136D03*
D236*
X111322Y272761D03*
D234*
X111398Y302136D03*
D236*
X111398Y272761D03*
D234*
X111474Y302136D03*
D236*
X111474Y272761D03*
D234*
X111550Y302136D03*
D236*
X111550Y272761D03*
D234*
X111626Y302136D03*
D236*
X111626Y272761D03*
D238*
X111703Y302212D03*
D236*
X111703Y272761D03*
D238*
X111779Y302212D03*
D236*
X111779Y272761D03*
D238*
X111855Y302212D03*
D236*
X111855Y272761D03*
D238*
X111931Y302212D03*
D236*
X111931Y272761D03*
D238*
X112007Y302212D03*
D239*
X112007Y272684D03*
D238*
X112084Y302212D03*
D239*
X112084Y272684D03*
D238*
X112160Y302212D03*
D239*
X112160Y272684D03*
D238*
X112236Y302212D03*
D239*
X112236Y272684D03*
D238*
X112312Y302212D03*
D239*
X112312Y272684D03*
D238*
X112388Y302212D03*
D239*
X112388Y272684D03*
D238*
X112465Y302212D03*
D239*
X112465Y272684D03*
D238*
X112541Y302212D03*
D240*
X112541Y272646D03*
D241*
X112617Y302250D03*
D236*
X112617Y272608D03*
D241*
X112693Y302250D03*
D236*
X112693Y272608D03*
D242*
X112769Y302288D03*
D236*
X112769Y272608D03*
D238*
X112846Y302364D03*
D236*
X112846Y272608D03*
D241*
X112922Y302402D03*
D236*
X112922Y272608D03*
D241*
X112998Y302402D03*
D243*
X112998Y272532D03*
D241*
X113074Y302402D03*
D243*
X113074Y272532D03*
D241*
X113150Y302402D03*
D243*
X113150Y272532D03*
D241*
X113227Y302402D03*
D243*
X113227Y272532D03*
D241*
X113303Y302402D03*
D243*
X113303Y272532D03*
D241*
X113379Y302402D03*
D243*
X113379Y272532D03*
D241*
X113455Y302402D03*
D243*
X113455Y272532D03*
D241*
X113531Y302402D03*
D243*
X113531Y272532D03*
D242*
X113608Y302441D03*
D243*
X113608Y272532D03*
D244*
X113684Y302479D03*
D243*
X113684Y272532D03*
D244*
X113760Y302479D03*
D240*
X113760Y272494D03*
D244*
X113836Y302479D03*
D240*
X113836Y272494D03*
D242*
X113912Y302517D03*
D245*
X113912Y272418D03*
D242*
X113989Y302517D03*
D245*
X113989Y272418D03*
D241*
X114065Y302555D03*
D243*
X114065Y272380D03*
D241*
X114141Y302555D03*
D240*
X114141Y272342D03*
D241*
X114217Y302555D03*
D239*
X114217Y272303D03*
D241*
X114293Y302555D03*
D239*
X114293Y272303D03*
D241*
X114370Y302555D03*
D239*
X114370Y272303D03*
D241*
X114446Y302555D03*
D239*
X114446Y272303D03*
D241*
X114522Y302555D03*
D239*
X114522Y272303D03*
D241*
X114598Y302555D03*
D239*
X114598Y272303D03*
D244*
X114674Y302631D03*
D239*
X114674Y272303D03*
D244*
X114751Y302631D03*
D239*
X114751Y272303D03*
D244*
X114827Y302631D03*
D239*
X114827Y272303D03*
D244*
X114903Y302631D03*
D239*
X114903Y272303D03*
D244*
X114979Y302631D03*
D245*
X114979Y272265D03*
D244*
X115055Y302631D03*
D246*
X115055Y272227D03*
D244*
X115132Y302631D03*
D246*
X115132Y272227D03*
D244*
X115208Y302631D03*
D246*
X115208Y272227D03*
D244*
X115284Y302631D03*
D246*
X115284Y272227D03*
D244*
X115360Y302631D03*
D246*
X115360Y272227D03*
D242*
X115436Y302669D03*
D246*
X115436Y272227D03*
D244*
X115513Y302783D03*
D246*
X115513Y272227D03*
D244*
X115589Y302783D03*
D246*
X115589Y272227D03*
D244*
X115665Y302783D03*
D243*
X115665Y272151D03*
D244*
X115741Y302783D03*
D243*
X115741Y272151D03*
D244*
X115817Y302783D03*
D243*
X115817Y272151D03*
D244*
X115894Y302783D03*
D245*
X115894Y272113D03*
D244*
X115970Y302783D03*
D245*
X115970Y272113D03*
D244*
X116046Y302783D03*
D246*
X116046Y272075D03*
D244*
X116122Y302783D03*
D246*
X116122Y272075D03*
D244*
X116198Y302783D03*
D246*
X116198Y272075D03*
D244*
X116275Y302783D03*
D246*
X116275Y272075D03*
D244*
X116351Y302783D03*
D246*
X116351Y272075D03*
D244*
X116427Y302783D03*
D246*
X116427Y272075D03*
D244*
X116503Y302783D03*
D246*
X116503Y272075D03*
D247*
X116579Y302898D03*
D246*
X116579Y272075D03*
D247*
X116656Y302898D03*
D246*
X116656Y272075D03*
D244*
X116732Y302936D03*
D246*
X116732Y272075D03*
D244*
X116808Y302936D03*
D246*
X116808Y272075D03*
D244*
X116884Y302936D03*
D248*
X116884Y272037D03*
D244*
X116960Y302936D03*
D249*
X116960Y271999D03*
D244*
X117037Y302936D03*
D248*
X117037Y271961D03*
D244*
X117113Y302936D03*
D246*
X117113Y271922D03*
D244*
X117189Y302936D03*
D246*
X117189Y271922D03*
D244*
X117265Y302936D03*
D246*
X117265Y271922D03*
D244*
X117341Y302936D03*
D246*
X117341Y271922D03*
D250*
X117418Y303012D03*
D246*
X117418Y271922D03*
D250*
X117494Y303012D03*
D246*
X117494Y271922D03*
D250*
X117570Y303012D03*
D246*
X117570Y271922D03*
D250*
X117646Y303012D03*
D246*
X117646Y271922D03*
D250*
X117722Y303012D03*
D246*
X117722Y271922D03*
D250*
X117799Y303012D03*
D246*
X117799Y271922D03*
D250*
X117875Y303012D03*
D248*
X117875Y271884D03*
D251*
X117951Y303050D03*
D252*
X117951Y271846D03*
D251*
X118027Y303050D03*
D252*
X118027Y271846D03*
D251*
X118103Y303050D03*
D252*
X118103Y271846D03*
D251*
X118180Y303050D03*
D252*
X118180Y271846D03*
D242*
X118256Y303126D03*
D252*
X118256Y271846D03*
D242*
X118332Y303126D03*
D252*
X118332Y271846D03*
D242*
X118408Y303126D03*
D252*
X118408Y271846D03*
D12*
X118484Y311280D03*
D242*
X118484Y303126D03*
D252*
X118484Y271846D03*
D247*
X118561Y303203D03*
D252*
X118561Y271846D03*
D247*
X118637Y303203D03*
D246*
X118637Y271770D03*
D247*
X118713Y303203D03*
D246*
X118713Y271770D03*
D247*
X118789Y303203D03*
D246*
X118789Y271770D03*
D247*
X118865Y303203D03*
D252*
X118865Y271694D03*
D247*
X118942Y303203D03*
D252*
X118942Y271694D03*
D247*
X119018Y303203D03*
D252*
X119018Y271694D03*
D247*
X119094Y303203D03*
D252*
X119094Y271694D03*
D247*
X119170Y303203D03*
D252*
X119170Y271694D03*
D247*
X119246Y303203D03*
D252*
X119246Y271694D03*
D253*
X119323Y303279D03*
D252*
X119323Y271694D03*
D253*
X119399Y303279D03*
D252*
X119399Y271694D03*
D250*
X119475Y303393D03*
D252*
X119475Y271694D03*
D250*
X119551Y303393D03*
D252*
X119551Y271694D03*
D250*
X119627Y303393D03*
D252*
X119627Y271694D03*
D250*
X119704Y303393D03*
D252*
X119704Y271694D03*
D250*
X119780Y303393D03*
D252*
X119780Y271694D03*
D250*
X119856Y303393D03*
D252*
X119856Y271694D03*
D12*
X119856Y254892D03*
D250*
X119932Y303393D03*
D254*
X119932Y271580D03*
D250*
X120008Y303393D03*
D254*
X120008Y271580D03*
D250*
X120085Y303393D03*
D254*
X120085Y271580D03*
D250*
X120161Y303393D03*
D252*
X120161Y271541D03*
D250*
X120237Y303393D03*
D252*
X120237Y271541D03*
D250*
X120313Y303393D03*
D252*
X120313Y271541D03*
D253*
X120389Y303431D03*
D252*
X120389Y271541D03*
D253*
X120466Y303431D03*
D252*
X120466Y271541D03*
D255*
X120542Y303469D03*
D252*
X120542Y271541D03*
D255*
X120618Y303469D03*
D252*
X120618Y271541D03*
D255*
X120694Y303469D03*
D252*
X120694Y271541D03*
D255*
X120770Y303469D03*
D252*
X120770Y271541D03*
D255*
X120847Y303469D03*
D256*
X120847Y271465D03*
D255*
X120923Y303469D03*
D257*
X120923Y271427D03*
D258*
X120999Y303545D03*
D257*
X120999Y271427D03*
D258*
X121075Y303545D03*
D257*
X121075Y271427D03*
D258*
X121151Y303545D03*
D257*
X121151Y271427D03*
D253*
X121228Y303584D03*
D257*
X121228Y271427D03*
D255*
X121304Y303622D03*
D257*
X121304Y271427D03*
D255*
X121380Y303622D03*
D257*
X121380Y271427D03*
D255*
X121456Y303622D03*
D257*
X121456Y271427D03*
D255*
X121532Y303622D03*
D256*
X121532Y271389D03*
D255*
X121609Y303622D03*
D259*
X121609Y271351D03*
D255*
X121685Y303622D03*
D259*
X121685Y271351D03*
D255*
X121761Y303622D03*
D259*
X121761Y271351D03*
D255*
X121837Y303622D03*
D256*
X121837Y271313D03*
D255*
X121913Y303622D03*
D256*
X121913Y271313D03*
D255*
X121990Y303622D03*
D257*
X121990Y271275D03*
D255*
X122066Y303622D03*
D257*
X122066Y271275D03*
D253*
X122142Y303660D03*
D257*
X122142Y271275D03*
D258*
X122218Y303698D03*
D257*
X122218Y271275D03*
D258*
X122294Y303698D03*
D257*
X122294Y271275D03*
D255*
X122371Y303774D03*
D257*
X122371Y271275D03*
D255*
X122447Y303774D03*
D257*
X122447Y271275D03*
D255*
X122523Y303774D03*
D257*
X122523Y271275D03*
D255*
X122599Y303774D03*
D257*
X122599Y271275D03*
D255*
X122675Y303774D03*
D257*
X122675Y271275D03*
D255*
X122752Y303774D03*
D257*
X122752Y271275D03*
D255*
X122828Y303774D03*
D260*
X122828Y271160D03*
D255*
X122904Y303774D03*
D260*
X122904Y271160D03*
D255*
X122980Y303774D03*
D260*
X122980Y271160D03*
D255*
X123056Y303774D03*
D260*
X123056Y271160D03*
D255*
X123133Y303774D03*
D257*
X123133Y271122D03*
D261*
X123209Y303850D03*
D257*
X123209Y271122D03*
D261*
X123285Y303850D03*
D257*
X123285Y271122D03*
D261*
X123361Y303850D03*
D257*
X123361Y271122D03*
D261*
X123437Y303850D03*
D257*
X123437Y271122D03*
D261*
X123514Y303850D03*
D257*
X123514Y271122D03*
D261*
X123590Y303850D03*
D257*
X123590Y271122D03*
D87*
X123666Y303888D03*
D257*
X123666Y271122D03*
D255*
X123742Y303926D03*
D257*
X123742Y271122D03*
D255*
X123818Y303926D03*
D260*
X123818Y271084D03*
D255*
X123895Y303926D03*
D262*
X123895Y271046D03*
D255*
X123971Y303926D03*
D262*
X123971Y271046D03*
D255*
X124047Y303926D03*
D262*
X124047Y271046D03*
D255*
X124123Y303926D03*
D262*
X124123Y271046D03*
D255*
X124199Y303926D03*
D262*
X124199Y271046D03*
D263*
X124276Y304003D03*
D262*
X124276Y271046D03*
D263*
X124352Y304003D03*
D262*
X124352Y271046D03*
D263*
X124428Y304003D03*
D260*
X124428Y271008D03*
D263*
X124504Y304003D03*
D260*
X124504Y271008D03*
D263*
X124580Y304003D03*
D257*
X124580Y270970D03*
D263*
X124657Y304003D03*
D256*
X124657Y270932D03*
D263*
X124733Y304003D03*
D257*
X124733Y270894D03*
D87*
X124809Y304041D03*
D260*
X124809Y270856D03*
D87*
X124885Y304041D03*
D260*
X124885Y270856D03*
D255*
X124961Y304079D03*
D260*
X124961Y270856D03*
D255*
X125038Y304079D03*
D260*
X125038Y270856D03*
D261*
X125114Y304155D03*
D260*
X125114Y270856D03*
D261*
X125190Y304155D03*
D260*
X125190Y270856D03*
D261*
X125266Y304155D03*
D260*
X125266Y270856D03*
D261*
X125342Y304155D03*
D260*
X125342Y270856D03*
D261*
X125419Y304155D03*
D260*
X125419Y270856D03*
D261*
X125495Y304155D03*
D260*
X125495Y270856D03*
D261*
X125571Y304155D03*
D260*
X125571Y270856D03*
D261*
X125647Y304155D03*
D260*
X125647Y270856D03*
D261*
X125723Y304155D03*
D260*
X125723Y270856D03*
D261*
X125800Y304155D03*
D264*
X125800Y270779D03*
D261*
X125876Y304155D03*
D264*
X125876Y270779D03*
D261*
X125952Y304155D03*
D264*
X125952Y270779D03*
D261*
X126028Y304155D03*
D12*
X126028Y287658D03*
D260*
X126028Y270703D03*
D261*
X126104Y304155D03*
D260*
X126104Y270703D03*
D265*
X126181Y304231D03*
D260*
X126181Y270703D03*
D265*
X126257Y304231D03*
D260*
X126257Y270703D03*
D265*
X126333Y304307D03*
D260*
X126333Y270703D03*
D265*
X126409Y304307D03*
D260*
X126409Y270703D03*
D266*
X126485Y304346D03*
D260*
X126485Y270703D03*
D266*
X126562Y304346D03*
D260*
X126562Y270703D03*
D266*
X126638Y304346D03*
D260*
X126638Y270703D03*
D266*
X126714Y304346D03*
D267*
X126714Y270627D03*
D266*
X126790Y304346D03*
D267*
X126790Y270627D03*
D266*
X126866Y304346D03*
D267*
X126866Y270627D03*
D266*
X126943Y304346D03*
D267*
X126943Y270627D03*
D265*
X127019Y304384D03*
D267*
X127019Y270627D03*
D268*
X127095Y304422D03*
D267*
X127095Y270627D03*
D268*
X127171Y304422D03*
D267*
X127171Y270627D03*
D268*
X127247Y304422D03*
D267*
X127247Y270627D03*
D268*
X127324Y304422D03*
D267*
X127324Y270627D03*
D268*
X127400Y304422D03*
D267*
X127400Y270627D03*
D265*
X127476Y304460D03*
D267*
X127476Y270627D03*
D265*
X127552Y304460D03*
D260*
X127552Y270551D03*
D265*
X127628Y304460D03*
D260*
X127628Y270551D03*
D261*
X127705Y304536D03*
D260*
X127705Y270551D03*
D261*
X127781Y304536D03*
D267*
X127781Y270475D03*
D261*
X127857Y304536D03*
D267*
X127857Y270475D03*
D261*
X127933Y304536D03*
D267*
X127933Y270475D03*
D261*
X128009Y304536D03*
D269*
X128009Y270437D03*
D266*
X128086Y304574D03*
D269*
X128086Y270437D03*
D265*
X128162Y304612D03*
D269*
X128162Y270437D03*
D265*
X128238Y304612D03*
D269*
X128238Y270437D03*
D265*
X128314Y304612D03*
D269*
X128314Y270437D03*
D265*
X128390Y304612D03*
D269*
X128390Y270437D03*
D265*
X128467Y304612D03*
D269*
X128467Y270437D03*
D265*
X128543Y304612D03*
D269*
X128543Y270437D03*
D265*
X128619Y304612D03*
D269*
X128619Y270437D03*
D265*
X128695Y304612D03*
D270*
X128695Y270398D03*
D265*
X128771Y304612D03*
D271*
X128771Y270360D03*
D265*
X128848Y304612D03*
D271*
X128848Y270360D03*
D268*
X128924Y304650D03*
D271*
X128924Y270360D03*
D272*
X129000Y304688D03*
D270*
X129000Y270322D03*
D272*
X129076Y304688D03*
D269*
X129076Y270284D03*
D265*
X129152Y304765D03*
D269*
X129152Y270284D03*
D265*
X129229Y304765D03*
D269*
X129229Y270284D03*
D265*
X129305Y304765D03*
D269*
X129305Y270284D03*
D265*
X129381Y304765D03*
D269*
X129381Y270284D03*
D265*
X129457Y304765D03*
D269*
X129457Y270284D03*
D265*
X129533Y304765D03*
D269*
X129533Y270284D03*
D265*
X129610Y304765D03*
D269*
X129610Y270284D03*
D265*
X129686Y304765D03*
D270*
X129686Y270246D03*
D265*
X129762Y304765D03*
D270*
X129762Y270246D03*
D265*
X129838Y304765D03*
D271*
X129838Y270208D03*
D265*
X129914Y304765D03*
D271*
X129914Y270208D03*
D268*
X129991Y304803D03*
D271*
X129991Y270208D03*
D272*
X130067Y304841D03*
D271*
X130067Y270208D03*
D272*
X130143Y304841D03*
D271*
X130143Y270208D03*
D272*
X130219Y304841D03*
D271*
X130219Y270208D03*
D272*
X130295Y304841D03*
D271*
X130295Y270208D03*
D272*
X130372Y304841D03*
D243*
X130372Y269713D03*
D268*
X130448Y304879D03*
D243*
X130448Y269713D03*
D265*
X130524Y304917D03*
D235*
X130524Y269598D03*
D87*
X130600Y305031D03*
D155*
X130600Y269255D03*
D255*
X130676Y305069D03*
D168*
X130676Y269179D03*
D250*
X130753Y305146D03*
D273*
X130753Y268722D03*
D255*
X130829Y305222D03*
D274*
X130829Y268684D03*
D251*
X130905Y305336D03*
D275*
X130905Y268341D03*
D244*
X130981Y305374D03*
D276*
X130981Y268303D03*
D241*
X131057Y305450D03*
D277*
X131057Y267846D03*
D241*
X131134Y305450D03*
D277*
X131134Y267846D03*
D278*
X131210Y305603D03*
D279*
X131210Y267465D03*
D278*
X131286Y305603D03*
D280*
X131286Y267427D03*
D232*
X131362Y305679D03*
D281*
X131362Y266931D03*
D282*
X131438Y305717D03*
D281*
X131438Y266931D03*
D229*
X131515Y305831D03*
D283*
X131515Y266550D03*
D229*
X131591Y305831D03*
D283*
X131591Y266550D03*
D83*
X131667Y305870D03*
D12*
X131667Y279809D03*
D284*
X131667Y266284D03*
D226*
X131743Y305946D03*
D285*
X131743Y265979D03*
D226*
X131819Y305946D03*
D132*
X131819Y265941D03*
D223*
X131896Y306060D03*
D128*
X131896Y265598D03*
D228*
X131972Y306174D03*
D286*
X131972Y265560D03*
D287*
X132048Y306251D03*
D288*
X132048Y265103D03*
D222*
X132124Y306289D03*
D289*
X132124Y265064D03*
D290*
X132200Y306403D03*
D291*
X132200Y264722D03*
D290*
X132277Y306403D03*
D291*
X132277Y264722D03*
D216*
X132353Y306517D03*
D292*
X132353Y264226D03*
D216*
X132429Y306517D03*
D117*
X132429Y264188D03*
D212*
X132505Y306632D03*
D293*
X132505Y263807D03*
D210*
X132581Y306822D03*
D294*
X132581Y299812D03*
D295*
X132581Y263731D03*
D215*
X132658Y306708D03*
D296*
X132658Y263236D03*
D76*
X132734Y306746D03*
D296*
X132734Y263236D03*
D215*
X132810Y306860D03*
D297*
X132810Y262893D03*
D298*
X132886Y306936D03*
D299*
X132886Y262855D03*
D300*
X132962Y307013D03*
D301*
X132962Y262817D03*
D208*
X133039Y307089D03*
D302*
X133039Y262359D03*
D208*
X133115Y307089D03*
D101*
X133115Y262321D03*
D303*
X133191Y307241D03*
D100*
X133191Y261978D03*
D206*
X133267Y307279D03*
D304*
X133267Y261940D03*
D305*
X133343Y307355D03*
D306*
X133343Y261483D03*
D305*
X133420Y307355D03*
D307*
X133420Y261445D03*
D200*
X133496Y307470D03*
D265*
X133496Y261102D03*
D200*
X133572Y307470D03*
D308*
X133572Y261064D03*
D202*
X133648Y307584D03*
D85*
X133648Y260492D03*
D202*
X133724Y307584D03*
D85*
X133724Y260492D03*
D309*
X133801Y307736D03*
D81*
X133801Y260111D03*
D69*
X133877Y307775D03*
D81*
X133877Y260111D03*
D69*
X133953Y307851D03*
D310*
X133953Y259616D03*
D311*
X134029Y307927D03*
D310*
X134029Y259616D03*
D311*
X134105Y307927D03*
D214*
X134105Y259578D03*
D196*
X134182Y308041D03*
D208*
X134182Y259235D03*
D195*
X134258Y308079D03*
D312*
X134258Y259197D03*
D67*
X134334Y308156D03*
D71*
X134334Y258740D03*
D67*
X134410Y308156D03*
D69*
X134410Y258702D03*
D191*
X134486Y308270D03*
D192*
X134486Y258359D03*
D313*
X134563Y308308D03*
D67*
X134563Y258245D03*
D314*
X134639Y308384D03*
D187*
X134639Y257787D03*
D314*
X134715Y308460D03*
D315*
X134715Y257749D03*
D316*
X134791Y308613D03*
D317*
X134791Y257368D03*
D315*
X134867Y308803D03*
D294*
X134867Y303241D03*
D317*
X134867Y257368D03*
D64*
X134944Y308689D03*
D318*
X134944Y256873D03*
D63*
X135020Y308727D03*
D318*
X135020Y256873D03*
D187*
X135096Y308765D03*
D160*
X135096Y256492D03*
D186*
X135172Y308841D03*
D160*
X135172Y256492D03*
D184*
X135248Y308918D03*
D156*
X135248Y256340D03*
D183*
X135325Y308956D03*
D145*
X135325Y255997D03*
D59*
X135401Y308994D03*
D319*
X135401Y255959D03*
D182*
X135477Y309070D03*
D137*
X135477Y255578D03*
D179*
X135553Y309108D03*
D320*
X135553Y255539D03*
D177*
X135629Y309222D03*
D321*
X135629Y255044D03*
D177*
X135706Y309222D03*
D118*
X135706Y255006D03*
D55*
X135782Y309375D03*
D322*
X135782Y254587D03*
D173*
X135858Y309603D03*
D16*
X135858Y304688D03*
D322*
X135858Y254587D03*
D323*
X135934Y309527D03*
D86*
X135934Y254130D03*
D323*
X136010Y309527D03*
D84*
X136010Y254092D03*
D172*
X136087Y309641D03*
D68*
X136087Y253711D03*
D172*
X136163Y309641D03*
D68*
X136163Y253711D03*
D324*
X136239Y309756D03*
D22*
X136239Y253215D03*
D169*
X136315Y309794D03*
D22*
X136315Y253215D03*
D169*
X136391Y309794D03*
D21*
X136391Y253139D03*
D325*
X136468Y309908D03*
D19*
X136468Y252796D03*
D166*
X136544Y309946D03*
D35*
X136544Y252644D03*
D165*
X136620Y310061D03*
D17*
X136620Y252263D03*
D166*
X136696Y310099D03*
D326*
X136696Y252225D03*
D163*
X136772Y310213D03*
X136849Y310213D03*
D327*
X136925Y310327D03*
D160*
X137001Y310365D03*
D328*
X137077Y310442D03*
X137153Y310442D03*
D154*
X137230Y310594D03*
X137306Y310594D03*
D151*
X137382Y310708D03*
D12*
X137382Y306860D03*
D151*
X137458Y310708D03*
D147*
X137534Y310784D03*
D329*
X137611Y310823D03*
D147*
X137687Y310937D03*
D145*
X137763Y311013D03*
X137839Y311013D03*
D45*
X137915Y311165D03*
X137992Y311165D03*
D330*
X138068Y311242D03*
D139*
X138144Y311280D03*
D135*
X138220Y311394D03*
X138296Y311394D03*
D41*
X138373Y311508D03*
X138449Y311508D03*
D12*
X138449Y290782D03*
D129*
X138525Y311699D03*
D331*
X138525Y290477D03*
D129*
X138601Y311699D03*
D332*
X138601Y290439D03*
D333*
X138677Y311737D03*
D70*
X138677Y290096D03*
D124*
X138754Y311813D03*
D80*
X138754Y290058D03*
D334*
X138830Y311851D03*
D28*
X138830Y290020D03*
D335*
X138906Y311966D03*
D336*
X138906Y289677D03*
D335*
X138982Y311966D03*
D336*
X138982Y289677D03*
D36*
X139058Y312042D03*
D337*
X139058Y289296D03*
D116*
X139135Y312080D03*
D337*
X139135Y289296D03*
D110*
X139211Y312194D03*
D159*
X139211Y288915D03*
D110*
X139287Y312194D03*
D160*
X139287Y288877D03*
D338*
X139363Y312308D03*
D176*
X139363Y288534D03*
D338*
X139439Y312308D03*
D176*
X139439Y288534D03*
D98*
X139516Y312423D03*
D314*
X139516Y288191D03*
D34*
X139592Y312537D03*
D191*
X139592Y288153D03*
D98*
X139668Y312575D03*
D203*
X139668Y287810D03*
D97*
X139744Y312613D03*
D305*
X139744Y287772D03*
D93*
X139820Y312728D03*
D339*
X139820Y287467D03*
D91*
X139897Y312766D03*
D287*
X139897Y287353D03*
D340*
X139973Y312804D03*
D12*
X139973Y294973D03*
D225*
X139973Y287315D03*
D12*
X139973Y279123D03*
D88*
X140049Y312880D03*
D244*
X140049Y287010D03*
D88*
X140125Y312880D03*
D244*
X140125Y287010D03*
D84*
X140201Y312994D03*
D96*
X140201Y286629D03*
D341*
X140278Y313032D03*
D96*
X140278Y286629D03*
D77*
X140354Y313109D03*
D342*
X140354Y286248D03*
D82*
X140430Y313185D03*
D342*
X140430Y286248D03*
D28*
X140506Y313337D03*
D296*
X140506Y285867D03*
D28*
X140582Y313337D03*
D343*
X140582Y285829D03*
D78*
X140659Y313413D03*
D344*
X140659Y285486D03*
D78*
X140735Y313490D03*
D117*
X140735Y285448D03*
D68*
X140811Y313604D03*
D345*
X140811Y285143D03*
D68*
X140887Y313604D03*
D346*
X140887Y285067D03*
D347*
X140963Y313642D03*
D348*
X140963Y284724D03*
D27*
X141040Y313718D03*
D349*
X141040Y284724D03*
D25*
X141116Y313756D03*
D350*
X141116Y284495D03*
D351*
X141192Y313871D03*
D140*
X141192Y284305D03*
D351*
X141268Y313871D03*
D140*
X141268Y284305D03*
D352*
X141344Y313947D03*
D353*
X141344Y284000D03*
D54*
X141421Y313985D03*
D353*
X141421Y284000D03*
D49*
X141497Y314137D03*
D354*
X141497Y283543D03*
D355*
X141573Y314175D03*
D356*
X141573Y283581D03*
D46*
X141649Y314290D03*
D357*
X141649Y283238D03*
D46*
X141725Y314290D03*
D168*
X141725Y283200D03*
D42*
X141802Y314404D03*
D267*
X141802Y282819D03*
D332*
X141878Y314442D03*
D271*
X141878Y282781D03*
D38*
X141954Y314518D03*
D358*
X141954Y282476D03*
D38*
X142030Y314518D03*
D359*
X142030Y282438D03*
D18*
X142106Y314633D03*
D360*
X142106Y282095D03*
D35*
X142183Y314671D03*
D361*
X142183Y282019D03*
D32*
X142259Y314709D03*
D362*
X142259Y281714D03*
D26*
X142335Y314785D03*
D363*
X142335Y281676D03*
D29*
X142411Y314823D03*
D363*
X142411Y281676D03*
D33*
X142487Y314975D03*
D364*
X142487Y281257D03*
D23*
X142564Y315014D03*
D365*
X142564Y281295D03*
D366*
X142640Y315090D03*
D367*
X142640Y280914D03*
D366*
X142716Y315090D03*
D367*
X142716Y280914D03*
D17*
X142792Y315204D03*
D368*
X142792Y280533D03*
D326*
X142868Y315242D03*
D369*
X142868Y280495D03*
D14*
X142945Y315318D03*
D370*
X142945Y280190D03*
D14*
X143021Y315318D03*
D371*
X143021Y280190D03*
D372*
X143097Y279771D03*
D373*
X143173Y279771D03*
D374*
X143249Y279428D03*
D375*
X143326Y279428D03*
D376*
X143402Y279085D03*
D377*
X143478Y278971D03*
D12*
X143554Y304269D03*
D378*
X143554Y278819D03*
D377*
X143630Y279352D03*
D379*
X143707Y279428D03*
D380*
X143783Y279923D03*
D381*
X143859Y279962D03*
D382*
X143935Y280495D03*
D383*
X144011Y280571D03*
D384*
X144088Y281066D03*
D385*
X144164Y281105D03*
D386*
X144240Y281638D03*
D387*
X144316Y281676D03*
D388*
X144392Y282209D03*
D389*
X144469Y282248D03*
D374*
X144545Y282857D03*
X144621Y282857D03*
D13*
X144697Y307203D03*
D390*
X144697Y282971D03*
D391*
X144773Y283391D03*
D392*
X144850Y283467D03*
D393*
X144926Y284000D03*
D394*
X145002Y284114D03*
D395*
X145078Y284153D03*
D396*
X145154Y284114D03*
D397*
X145231Y283695D03*
D398*
X145307Y283695D03*
D399*
X145383Y283352D03*
X145459Y283352D03*
D400*
X145535Y282895D03*
X145612Y282895D03*
D401*
X145688Y282590D03*
X145764Y282590D03*
D402*
X145840Y282514D03*
D403*
X145916Y282133D03*
D404*
X145993Y282057D03*
D240*
X146069Y281790D03*
D235*
X146145Y281790D03*
D405*
X146221Y281371D03*
D148*
X146297Y281295D03*
D406*
X146374Y280990D03*
D407*
X146450Y280990D03*
D349*
X146526Y280533D03*
X146602Y280533D03*
D408*
X146678Y280190D03*
X146755Y280190D03*
D111*
X146831Y279733D03*
X146907Y279733D03*
D12*
X146983Y290096D03*
D409*
X146983Y279466D03*
D12*
X146983Y269217D03*
D410*
X147059Y279428D03*
D101*
X147136Y279390D03*
D268*
X147212Y278971D03*
D266*
X147288Y278895D03*
D228*
X147364Y278590D03*
D223*
X147440Y278628D03*
D71*
X147517Y278171D03*
D69*
X147593Y278133D03*
D59*
X147669Y277828D03*
X147745Y277828D03*
D50*
X147821Y277333D03*
X147898Y277333D03*
D334*
X147974Y277028D03*
X148050Y277028D03*
D28*
X148126Y276609D03*
D78*
X148202Y276609D03*
D411*
X148279Y276533D03*
D18*
X148355Y276228D03*
D32*
X148431Y276228D03*
D11*
X78662Y609797D02*
X80611Y611746D01*
X84509Y611746D01*
X86458Y609797D01*
X86458Y602001D01*
X84509Y600052D01*
X80611Y600052D01*
X78662Y602001D01*
X78662Y605899D01*
X82560Y605899D01*
X74764Y600052D02*
X74764Y611746D01*
X66968Y600052D01*
X66968Y611746D01*
X63070Y611746D02*
X63070Y600052D01*
X57223Y600052D01*
X55274Y602001D01*
X55274Y609797D01*
X57223Y611746D01*
X63070Y611746D01*
D412*
X139591Y431125D02*
X142557Y428160D01*
X142557Y422228D01*
X139591Y419262D01*
X127728Y419262D01*
X124762Y422228D01*
X124762Y428160D01*
X127728Y431125D01*
X124762Y437037D02*
X136625Y437037D01*
X142557Y442969D01*
X136625Y448900D01*
X124762Y448900D01*
X133660Y448900D02*
X133660Y437037D01*
X127728Y454812D02*
X124762Y457778D01*
X124762Y460743D01*
X127728Y463709D01*
X142557Y463709D01*
X142557Y460743D02*
X142557Y466675D01*
X124762Y472587D02*
X124762Y478518D01*
X124762Y475552D02*
X142557Y475552D01*
X142557Y472587D02*
X142557Y478518D01*
X142557Y490368D02*
X124762Y490368D01*
X142557Y484436D02*
X142557Y496300D01*
X136625Y502211D02*
X124762Y502211D01*
X136625Y502211D02*
X142557Y508143D01*
X136625Y514075D01*
X124762Y514075D01*
X133660Y514075D02*
X133660Y502211D01*
X136625Y537761D02*
X124762Y537761D01*
X136625Y537761D02*
X142557Y543693D01*
X136625Y549624D01*
X124762Y549624D01*
X133660Y549624D02*
X133660Y537761D01*
X124762Y555536D02*
X142557Y555536D01*
X142557Y564433D01*
X139591Y567399D01*
X136625Y567399D01*
X133660Y564433D01*
X130694Y567399D01*
X127728Y567399D01*
X124762Y564433D01*
X124762Y555536D01*
X133660Y555536D02*
X133660Y564433D01*
X124762Y573311D02*
X124762Y579242D01*
X124762Y576277D02*
X142557Y576277D01*
X142557Y579242D02*
X142557Y573311D01*
X142557Y585161D02*
X142557Y597024D01*
X142557Y585161D02*
X124762Y585161D01*
X124762Y597024D01*
X133660Y591092D02*
X133660Y585161D01*
X124762Y602935D02*
X142557Y602935D01*
X142557Y611833D01*
X139591Y614799D01*
X133660Y614799D01*
X130694Y611833D01*
X130694Y602935D01*
X130694Y608867D02*
X124762Y614799D01*
X124762Y626642D02*
X142557Y626642D01*
X142557Y620710D02*
X142557Y632574D01*
X136625Y638485D02*
X124762Y638485D01*
X136625Y638485D02*
X142557Y644417D01*
X136625Y650349D01*
X124762Y650349D01*
X133660Y650349D02*
X133660Y638485D01*
X110253Y420738D02*
X95424Y420738D01*
X92458Y423704D01*
X92458Y429636D01*
X95424Y432602D01*
X110253Y432602D01*
X107287Y438513D02*
X95424Y438513D01*
X107287Y438513D02*
X110253Y441479D01*
X110253Y447411D01*
X107287Y450377D01*
X95424Y450377D01*
X92458Y447411D01*
X92458Y441479D01*
X95424Y438513D01*
X98390Y444445D02*
X92458Y450377D01*
X92458Y456288D02*
X104321Y456288D01*
X110253Y462220D01*
X104321Y468152D01*
X92458Y468152D01*
X101356Y468152D02*
X101356Y456288D01*
X92458Y474063D02*
X110253Y474063D01*
X104321Y479995D01*
X110253Y485926D01*
X92458Y485926D01*
X95424Y509613D02*
X110253Y509613D01*
X95424Y509613D02*
X92458Y512578D01*
X92458Y518510D01*
X95424Y521476D01*
X110253Y521476D01*
X110253Y527387D02*
X92458Y527387D01*
X92458Y539251D02*
X110253Y527387D01*
X110253Y539251D02*
X92458Y539251D01*
X92458Y551094D02*
X110253Y551094D01*
X110253Y545162D02*
X110253Y557026D01*
X110253Y562937D02*
X92458Y562937D01*
X110253Y562937D02*
X110253Y571835D01*
X107287Y574801D01*
X101356Y574801D01*
X98390Y571835D01*
X98390Y562937D01*
X98390Y568869D02*
X92458Y574801D01*
X110253Y580712D02*
X110253Y592575D01*
X110253Y580712D02*
X92458Y580712D01*
X92458Y592575D01*
X101356Y586644D02*
X101356Y580712D01*
X92458Y598487D02*
X110253Y598487D01*
X110253Y610350D01*
X101356Y604419D02*
X101356Y598487D01*
D413*
X234746Y163347D02*
X234746Y157754D01*
X231950Y157754D01*
X231018Y158686D01*
X231018Y162415D01*
X231950Y163347D01*
X234746Y163347D01*
X229133Y161483D02*
X229133Y157754D01*
X229133Y161483D02*
X227269Y163347D01*
X225404Y161483D01*
X225404Y157754D01*
X225404Y160550D02*
X229133Y160550D01*
X220723Y163347D02*
X219791Y162415D01*
X220723Y163347D02*
X222588Y163347D01*
X223520Y162415D01*
X223520Y158686D01*
X222588Y157754D01*
X220723Y157754D01*
X219791Y158686D01*
X217907Y161483D02*
X216042Y163347D01*
X216042Y157754D01*
X214178Y157754D02*
X217907Y157754D01*
X207950Y135847D02*
X207018Y134915D01*
X207950Y135847D02*
X209814Y135847D01*
X210746Y134915D01*
X210746Y131186D01*
X209814Y130254D01*
X207950Y130254D01*
X207018Y131186D01*
X207018Y133050D01*
X208882Y133050D01*
D11*
X107202Y313008D02*
X99406Y313008D01*
X95508Y316906D01*
X99406Y320804D01*
X107202Y320804D01*
X105253Y336396D02*
X97457Y336396D01*
X105253Y336396D02*
X107202Y338345D01*
X107202Y342243D01*
X105253Y344192D01*
X97457Y344192D01*
X95508Y342243D01*
X95508Y338345D01*
X97457Y336396D01*
X105253Y344192D01*
X97457Y348090D02*
X95508Y348090D01*
X97457Y348090D02*
X97457Y350039D01*
X95508Y350039D01*
X95508Y348090D01*
X95508Y359784D02*
X107202Y359784D01*
X101355Y353937D01*
X101355Y361733D01*
X95508Y365631D02*
X95508Y373427D01*
X95508Y365631D02*
X103304Y373427D01*
X105253Y373427D01*
X107202Y371478D01*
X107202Y367580D01*
X105253Y365631D01*
D413*
X205246Y162847D02*
X205246Y157254D01*
X202450Y157254D01*
X201518Y158186D01*
X201518Y161915D01*
X202450Y162847D01*
X205246Y162847D01*
X199633Y160983D02*
X199633Y157254D01*
X199633Y160983D02*
X197769Y162847D01*
X195904Y160983D01*
X195904Y157254D01*
X195904Y160050D02*
X199633Y160050D01*
X191223Y162847D02*
X190291Y161915D01*
X191223Y162847D02*
X193088Y162847D01*
X194020Y161915D01*
X194020Y158186D01*
X193088Y157254D01*
X191223Y157254D01*
X190291Y158186D01*
X188407Y157254D02*
X184678Y157254D01*
X188407Y157254D02*
X184678Y160983D01*
X184678Y161915D01*
X185610Y162847D01*
X187475Y162847D01*
X188407Y161915D01*
D11*
X41145Y679568D02*
X43348Y681771D01*
X47755Y681771D01*
X49958Y679568D01*
X49958Y670755D01*
X47755Y668552D01*
X43348Y668552D01*
X41145Y670755D01*
X41145Y675162D01*
X45552Y675162D01*
D414*
X239390Y191253D02*
X240619Y190025D01*
X239390Y191253D02*
X236933Y191253D01*
X235704Y190025D01*
X235704Y188796D01*
X236933Y187567D01*
X238162Y187567D01*
X236933Y187567D02*
X235704Y186338D01*
X235704Y185110D01*
X236933Y183881D01*
X239390Y183881D01*
X240619Y185110D01*
X229449Y183881D02*
X229449Y191253D01*
X233135Y187567D01*
X228220Y187567D01*
X258390Y190253D02*
X259619Y189025D01*
X258390Y190253D02*
X255933Y190253D01*
X254704Y189025D01*
X254704Y187796D01*
X255933Y186567D01*
X257162Y186567D01*
X255933Y186567D02*
X254704Y185338D01*
X254704Y184110D01*
X255933Y182881D01*
X258390Y182881D01*
X259619Y184110D01*
X252135Y190253D02*
X247220Y190253D01*
X252135Y190253D02*
X252135Y186567D01*
X249677Y187796D01*
X248449Y187796D01*
X247220Y186567D01*
X247220Y184110D01*
X248449Y182881D01*
X250906Y182881D01*
X252135Y184110D01*
X215119Y190025D02*
X213890Y191253D01*
X211433Y191253D01*
X210204Y190025D01*
X210204Y188796D01*
X211433Y187567D01*
X212662Y187567D01*
X211433Y187567D02*
X210204Y186338D01*
X210204Y185110D01*
X211433Y183881D01*
X213890Y183881D01*
X215119Y185110D01*
X207635Y190025D02*
X206406Y191253D01*
X203949Y191253D01*
X202720Y190025D01*
X202720Y188796D01*
X203949Y187567D01*
X205177Y187567D01*
X203949Y187567D02*
X202720Y186338D01*
X202720Y185110D01*
X203949Y183881D01*
X206406Y183881D01*
X207635Y185110D01*
X189119Y190025D02*
X187890Y191253D01*
X185433Y191253D01*
X184204Y190025D01*
X184204Y188796D01*
X185433Y187567D01*
X186662Y187567D01*
X185433Y187567D02*
X184204Y186338D01*
X184204Y185110D01*
X185433Y183881D01*
X187890Y183881D01*
X189119Y185110D01*
X181635Y183881D02*
X176720Y183881D01*
X181635Y183881D02*
X176720Y188796D01*
X176720Y190025D01*
X177949Y191253D01*
X180406Y191253D01*
X181635Y190025D01*
D412*
X77704Y682704D02*
X65841Y682704D01*
X71772Y688635D02*
X71772Y676772D01*
X74753Y424362D02*
X56958Y424362D01*
X62890Y430294D01*
X56958Y436226D01*
X74753Y436226D01*
X56958Y442137D02*
X56958Y448069D01*
X56958Y445103D02*
X74753Y445103D01*
X74753Y442137D02*
X74753Y448069D01*
X74753Y453987D02*
X56958Y453987D01*
X74753Y453987D02*
X74753Y462885D01*
X71787Y465851D01*
X65856Y465851D01*
X62890Y462885D01*
X62890Y453987D01*
D415*
X60606Y707055D02*
X52986Y707055D01*
X33936Y707055D02*
X31396Y707055D01*
X31396Y697149D01*
X34190Y694355D01*
X31396Y707055D02*
X31396Y716961D01*
X34190Y719755D01*
X79656Y707055D02*
X82196Y707055D01*
X82196Y716961D01*
X79402Y719755D01*
X82196Y707055D02*
X82196Y697149D01*
X79402Y694355D01*
D414*
X88756Y694817D02*
X96128Y694817D01*
X96128Y698504D01*
X94900Y699732D01*
X93671Y699732D01*
X92442Y698504D01*
X91214Y699732D01*
X89985Y699732D01*
X88756Y698504D01*
X88756Y694817D01*
X92442Y694817D02*
X92442Y698504D01*
X93671Y702302D02*
X88756Y702302D01*
X93671Y702302D02*
X96128Y704759D01*
X93671Y707216D01*
X88756Y707216D01*
X92442Y707216D02*
X92442Y702302D01*
X88756Y712243D02*
X96128Y712243D01*
X96128Y709786D02*
X96128Y714701D01*
X96128Y719727D02*
X88756Y719727D01*
X96128Y717270D02*
X96128Y722185D01*
D415*
X165839Y355581D02*
X165839Y347446D01*
X165839Y355581D02*
X161772Y355581D01*
X160416Y354225D01*
X160416Y351513D01*
X161772Y350158D01*
X165839Y350158D01*
X163128Y350158D02*
X160416Y347446D01*
X156484Y352869D02*
X153772Y355581D01*
X153772Y347446D01*
X151061Y347446D02*
X156484Y347446D01*
D414*
X33563Y260193D02*
X32334Y258965D01*
X33563Y260193D02*
X36020Y260193D01*
X37249Y258965D01*
X37249Y254050D01*
X36020Y252821D01*
X33563Y252821D01*
X32334Y254050D01*
X32334Y256507D01*
X34792Y256507D01*
X36144Y278221D02*
X41059Y278221D01*
X36144Y283136D01*
X36144Y284365D01*
X37373Y285593D01*
X39830Y285593D01*
X41059Y284365D01*
X33575Y284365D02*
X32346Y285593D01*
X29889Y285593D01*
X28660Y284365D01*
X28660Y283136D01*
X29889Y281907D01*
X31117Y281907D01*
X29889Y281907D02*
X28660Y280678D01*
X28660Y279450D01*
X29889Y278221D01*
X32346Y278221D01*
X33575Y279450D01*
X36144Y303621D02*
X41059Y303621D01*
X36144Y308536D01*
X36144Y309765D01*
X37373Y310993D01*
X39830Y310993D01*
X41059Y309765D01*
X33575Y303621D02*
X28660Y303621D01*
X33575Y303621D02*
X28660Y308536D01*
X28660Y309765D01*
X29889Y310993D01*
X32346Y310993D01*
X33575Y309765D01*
X39872Y329021D02*
X39872Y336393D01*
X42329Y336393D02*
X37414Y336393D01*
X34845Y336393D02*
X29930Y329021D01*
X34845Y329021D02*
X29930Y336393D01*
X43599Y354421D02*
X43599Y361793D01*
X39913Y361793D01*
X38684Y360565D01*
X38684Y358107D01*
X39913Y356878D01*
X43599Y356878D01*
X41142Y356878D02*
X38684Y354421D01*
X31200Y354421D02*
X36115Y361793D01*
X31200Y361793D02*
X36115Y354421D01*
X36144Y379821D02*
X41059Y379821D01*
X36144Y384736D01*
X36144Y385965D01*
X37373Y387193D01*
X39830Y387193D01*
X41059Y385965D01*
X33575Y384736D02*
X31117Y387193D01*
X31117Y379821D01*
X28660Y379821D02*
X33575Y379821D01*
X33604Y411365D02*
X34833Y412593D01*
X37290Y412593D01*
X38519Y411365D01*
X38519Y406450D01*
X37290Y405221D01*
X34833Y405221D01*
X33604Y406450D01*
X33604Y408907D01*
X36062Y408907D01*
X41059Y435536D02*
X38602Y437993D01*
X38602Y430621D01*
X41059Y430621D02*
X36144Y430621D01*
X33575Y431850D02*
X32346Y430621D01*
X29889Y430621D01*
X28660Y431850D01*
X28660Y436765D01*
X29889Y437993D01*
X32346Y437993D01*
X33575Y436765D01*
X33575Y435536D01*
X32346Y434307D01*
X28660Y434307D01*
X41059Y460936D02*
X38602Y463393D01*
X38602Y456021D01*
X41059Y456021D02*
X36144Y456021D01*
X33575Y462165D02*
X32346Y463393D01*
X29889Y463393D01*
X28660Y462165D01*
X28660Y460936D01*
X29889Y459707D01*
X28660Y458478D01*
X28660Y457250D01*
X29889Y456021D01*
X32346Y456021D01*
X33575Y457250D01*
X33575Y458478D01*
X32346Y459707D01*
X33575Y460936D01*
X33575Y462165D01*
X32346Y459707D02*
X29889Y459707D01*
X29794Y488793D02*
X34709Y488793D01*
X34709Y485107D01*
X32252Y486336D01*
X31023Y486336D01*
X29794Y485107D01*
X29794Y482650D01*
X31023Y481421D01*
X33480Y481421D01*
X34709Y482650D01*
X41059Y511736D02*
X38602Y514193D01*
X38602Y506821D01*
X41059Y506821D02*
X36144Y506821D01*
X33575Y514193D02*
X28660Y514193D01*
X28660Y512965D01*
X33575Y508050D01*
X33575Y506821D01*
X41059Y537136D02*
X38602Y539593D01*
X38602Y532221D01*
X41059Y532221D02*
X36144Y532221D01*
X31117Y538365D02*
X28660Y539593D01*
X31117Y538365D02*
X33575Y535907D01*
X33575Y533450D01*
X32346Y532221D01*
X29889Y532221D01*
X28660Y533450D01*
X28660Y534678D01*
X29889Y535907D01*
X33575Y535907D01*
X32293Y557621D02*
X32293Y564993D01*
X35979Y561307D01*
X31064Y561307D01*
X35979Y584250D02*
X35979Y589165D01*
X34750Y590393D01*
X32293Y590393D01*
X31064Y589165D01*
X31064Y584250D01*
X32293Y583021D01*
X34750Y583021D01*
X35979Y584250D01*
X31064Y589165D01*
X31064Y608421D02*
X35979Y608421D01*
X31064Y613336D01*
X31064Y614565D01*
X32293Y615793D01*
X34750Y615793D01*
X35979Y614565D01*
X41059Y638736D02*
X38602Y641193D01*
X38602Y633821D01*
X41059Y633821D02*
X36144Y633821D01*
X33575Y641193D02*
X28660Y641193D01*
X33575Y641193D02*
X33575Y637507D01*
X31117Y638736D01*
X29889Y638736D01*
X28660Y637507D01*
X28660Y635050D01*
X29889Y633821D01*
X32346Y633821D01*
X33575Y635050D01*
X45034Y665365D02*
X46263Y666593D01*
X48720Y666593D01*
X49949Y665365D01*
X49949Y664136D01*
X48720Y662907D01*
X46263Y662907D01*
X45034Y661678D01*
X45034Y660450D01*
X46263Y659221D01*
X48720Y659221D01*
X49949Y660450D01*
X42465Y659221D02*
X42465Y666593D01*
X42465Y659221D02*
X38779Y659221D01*
X37550Y660450D01*
X37550Y665365D01*
X38779Y666593D01*
X42465Y666593D01*
X34981Y664136D02*
X32523Y666593D01*
X32523Y659221D01*
X30066Y659221D02*
X34981Y659221D01*
X45034Y689495D02*
X46263Y690723D01*
X48720Y690723D01*
X49949Y689495D01*
X49949Y688266D01*
X48720Y687037D01*
X46263Y687037D01*
X45034Y685808D01*
X45034Y684580D01*
X46263Y683351D01*
X48720Y683351D01*
X49949Y684580D01*
X42465Y683351D02*
X42465Y690723D01*
X42465Y683351D02*
X38779Y683351D01*
X37550Y684580D01*
X37550Y689495D01*
X38779Y690723D01*
X42465Y690723D01*
X34981Y689495D02*
X34981Y684580D01*
X34981Y689495D02*
X33752Y690723D01*
X31295Y690723D01*
X30066Y689495D01*
X30066Y684580D01*
X31295Y683351D01*
X33752Y683351D01*
X34981Y684580D01*
X30066Y689495D01*
X230510Y259993D02*
X231739Y258765D01*
X230510Y259993D02*
X228053Y259993D01*
X226824Y258765D01*
X226824Y257536D01*
X228053Y256307D01*
X229282Y256307D01*
X228053Y256307D02*
X226824Y255078D01*
X226824Y253850D01*
X228053Y252621D01*
X230510Y252621D01*
X231739Y253850D01*
X224255Y255078D02*
X224255Y259993D01*
X224255Y255078D02*
X221797Y252621D01*
X219340Y255078D01*
X219340Y259993D01*
X226824Y285393D02*
X231739Y285393D01*
X231739Y278021D01*
X226824Y278021D01*
X229282Y281707D02*
X231739Y281707D01*
X224255Y278021D02*
X224255Y285393D01*
X219340Y278021D01*
X219340Y285393D01*
X231845Y296955D02*
X230617Y298183D01*
X231845Y296955D02*
X231845Y294497D01*
X230617Y293269D01*
X229388Y293269D01*
X228159Y294497D01*
X228159Y296955D01*
X226930Y298183D01*
X225702Y298183D01*
X224473Y296955D01*
X224473Y294497D01*
X225702Y293269D01*
X226930Y300753D02*
X231845Y300753D01*
X226930Y300753D02*
X224473Y303210D01*
X226930Y305668D01*
X231845Y305668D01*
X231845Y308237D02*
X224473Y308237D01*
X231845Y308237D02*
X231845Y311923D01*
X230617Y313152D01*
X228159Y313152D01*
X226930Y311923D01*
X226930Y308237D01*
X231845Y324895D02*
X230617Y326123D01*
X231845Y324895D02*
X231845Y322437D01*
X230617Y321209D01*
X229388Y321209D01*
X228159Y322437D01*
X228159Y324895D01*
X226930Y326123D01*
X225702Y326123D01*
X224473Y324895D01*
X224473Y322437D01*
X225702Y321209D01*
X226930Y328693D02*
X231845Y328693D01*
X226930Y328693D02*
X224473Y331150D01*
X226930Y333608D01*
X231845Y333608D01*
X231845Y336177D02*
X224473Y336177D01*
X224473Y341092D02*
X231845Y336177D01*
X231845Y341092D02*
X224473Y341092D01*
X231739Y360365D02*
X230510Y361593D01*
X228053Y361593D01*
X226824Y360365D01*
X226824Y359136D01*
X228053Y357907D01*
X229282Y357907D01*
X228053Y357907D02*
X226824Y356678D01*
X226824Y355450D01*
X228053Y354221D01*
X230510Y354221D01*
X231739Y355450D01*
X220569Y354221D02*
X220569Y361593D01*
X224255Y357907D01*
X219340Y357907D01*
X231739Y385765D02*
X230510Y386993D01*
X228053Y386993D01*
X226824Y385765D01*
X226824Y384536D01*
X228053Y383307D01*
X229282Y383307D01*
X228053Y383307D02*
X226824Y382078D01*
X226824Y380850D01*
X228053Y379621D01*
X230510Y379621D01*
X231739Y380850D01*
X224255Y386993D02*
X219340Y386993D01*
X224255Y386993D02*
X224255Y383307D01*
X221797Y384536D01*
X220569Y384536D01*
X219340Y383307D01*
X219340Y380850D01*
X220569Y379621D01*
X223026Y379621D01*
X224255Y380850D01*
X231739Y411165D02*
X230510Y412393D01*
X228053Y412393D01*
X226824Y411165D01*
X226824Y409936D01*
X228053Y408707D01*
X229282Y408707D01*
X228053Y408707D02*
X226824Y407478D01*
X226824Y406250D01*
X228053Y405021D01*
X230510Y405021D01*
X231739Y406250D01*
X224255Y405021D02*
X219340Y405021D01*
X224255Y405021D02*
X219340Y409936D01*
X219340Y411165D01*
X220569Y412393D01*
X223026Y412393D01*
X224255Y411165D01*
X231739Y436565D02*
X230510Y437793D01*
X228053Y437793D01*
X226824Y436565D01*
X226824Y435336D01*
X228053Y434107D01*
X229282Y434107D01*
X228053Y434107D02*
X226824Y432878D01*
X226824Y431650D01*
X228053Y430421D01*
X230510Y430421D01*
X231739Y431650D01*
X224255Y436565D02*
X223026Y437793D01*
X220569Y437793D01*
X219340Y436565D01*
X219340Y435336D01*
X220569Y434107D01*
X221797Y434107D01*
X220569Y434107D02*
X219340Y432878D01*
X219340Y431650D01*
X220569Y430421D01*
X223026Y430421D01*
X224255Y431650D01*
X226824Y455821D02*
X231739Y455821D01*
X226824Y460736D01*
X226824Y461965D01*
X228053Y463193D01*
X230510Y463193D01*
X231739Y461965D01*
X224255Y463193D02*
X219340Y463193D01*
X224255Y463193D02*
X224255Y459507D01*
X221797Y460736D01*
X220569Y460736D01*
X219340Y459507D01*
X219340Y457050D01*
X220569Y455821D01*
X223026Y455821D01*
X224255Y457050D01*
X226824Y481221D02*
X231739Y481221D01*
X226824Y486136D01*
X226824Y487365D01*
X228053Y488593D01*
X230510Y488593D01*
X231739Y487365D01*
X221797Y487365D02*
X219340Y488593D01*
X221797Y487365D02*
X224255Y484907D01*
X224255Y482450D01*
X223026Y481221D01*
X220569Y481221D01*
X219340Y482450D01*
X219340Y483678D01*
X220569Y484907D01*
X224255Y484907D01*
X226824Y506621D02*
X231739Y506621D01*
X226824Y511536D01*
X226824Y512765D01*
X228053Y513993D01*
X230510Y513993D01*
X231739Y512765D01*
X224255Y513993D02*
X219340Y513993D01*
X219340Y512765D01*
X224255Y507850D01*
X224255Y506621D01*
X231739Y536936D02*
X229282Y539393D01*
X229282Y532021D01*
X231739Y532021D02*
X226824Y532021D01*
X220569Y532021D02*
X220569Y539393D01*
X224255Y535707D01*
X219340Y535707D01*
X231739Y562336D02*
X229282Y564793D01*
X229282Y557421D01*
X231739Y557421D02*
X226824Y557421D01*
X224255Y557421D02*
X219340Y557421D01*
X224255Y557421D02*
X219340Y562336D01*
X219340Y563565D01*
X220569Y564793D01*
X223026Y564793D01*
X224255Y563565D01*
X226824Y588965D02*
X228053Y590193D01*
X230510Y590193D01*
X231739Y588965D01*
X231739Y584050D01*
X230510Y582821D01*
X228053Y582821D01*
X226824Y584050D01*
X226824Y586507D01*
X229282Y586507D01*
X231739Y613136D02*
X229282Y615593D01*
X229282Y608221D01*
X231739Y608221D02*
X226824Y608221D01*
X224255Y614365D02*
X223026Y615593D01*
X220569Y615593D01*
X219340Y614365D01*
X219340Y613136D01*
X220569Y611907D01*
X221797Y611907D01*
X220569Y611907D02*
X219340Y610678D01*
X219340Y609450D01*
X220569Y608221D01*
X223026Y608221D01*
X224255Y609450D01*
X226824Y639765D02*
X228053Y640993D01*
X230510Y640993D01*
X231739Y639765D01*
X231739Y638536D01*
X230510Y637307D01*
X228053Y637307D01*
X226824Y636078D01*
X226824Y634850D01*
X228053Y633621D01*
X230510Y633621D01*
X231739Y634850D01*
X224255Y633621D02*
X224255Y640993D01*
X224255Y633621D02*
X220569Y633621D01*
X219340Y634850D01*
X219340Y639765D01*
X220569Y640993D01*
X224255Y640993D01*
X216771Y633621D02*
X211856Y633621D01*
X216771Y633621D02*
X211856Y638536D01*
X211856Y639765D01*
X213085Y640993D01*
X215542Y640993D01*
X216771Y639765D01*
X226824Y665165D02*
X228053Y666393D01*
X230510Y666393D01*
X231739Y665165D01*
X231739Y663936D01*
X230510Y662707D01*
X228053Y662707D01*
X226824Y661478D01*
X226824Y660250D01*
X228053Y659021D01*
X230510Y659021D01*
X231739Y660250D01*
X224255Y659021D02*
X224255Y666393D01*
X224255Y659021D02*
X220569Y659021D01*
X219340Y660250D01*
X219340Y665165D01*
X220569Y666393D01*
X224255Y666393D01*
X216771Y665165D02*
X215542Y666393D01*
X213085Y666393D01*
X211856Y665165D01*
X211856Y663936D01*
X213085Y662707D01*
X214313Y662707D01*
X213085Y662707D02*
X211856Y661478D01*
X211856Y660250D01*
X213085Y659021D01*
X215542Y659021D01*
X216771Y660250D01*
X228094Y686755D02*
X229323Y687983D01*
X231780Y687983D01*
X233009Y686755D01*
X233009Y681840D01*
X231780Y680611D01*
X229323Y680611D01*
X228094Y681840D01*
X225525Y680611D02*
X225525Y687983D01*
X223067Y685526D01*
X220610Y687983D01*
X220610Y680611D01*
X218041Y680611D02*
X218041Y687983D01*
X218041Y680611D02*
X214355Y680611D01*
X213126Y681840D01*
X213126Y686755D01*
X214355Y687983D01*
X218041Y687983D01*
X228094Y710843D02*
X233009Y710843D01*
X233009Y707157D01*
X230552Y708386D01*
X229323Y708386D01*
X228094Y707157D01*
X228094Y704700D01*
X229323Y703471D01*
X231780Y703471D01*
X233009Y704700D01*
X225525Y705928D02*
X225525Y710843D01*
X225525Y705928D02*
X223067Y703471D01*
X220610Y705928D01*
X220610Y710843D01*
D415*
X166339Y324581D02*
X166339Y316446D01*
X166339Y324581D02*
X162272Y324581D01*
X160916Y323225D01*
X160916Y320513D01*
X162272Y319158D01*
X166339Y319158D01*
X163628Y319158D02*
X160916Y316446D01*
X156984Y316446D02*
X151561Y316446D01*
X156984Y316446D02*
X151561Y321869D01*
X151561Y323225D01*
X152917Y324581D01*
X155628Y324581D01*
X156984Y323225D01*
X166339Y294061D02*
X166339Y285926D01*
X166339Y294061D02*
X162272Y294061D01*
X160916Y292705D01*
X160916Y289993D01*
X162272Y288638D01*
X166339Y288638D01*
X163628Y288638D02*
X160916Y285926D01*
X156984Y292705D02*
X155628Y294061D01*
X152917Y294061D01*
X151561Y292705D01*
X151561Y291349D01*
X152917Y289993D01*
X154272Y289993D01*
X152917Y289993D02*
X151561Y288638D01*
X151561Y287282D01*
X152917Y285926D01*
X155628Y285926D01*
X156984Y287282D01*
X166339Y265081D02*
X166339Y256946D01*
X166339Y265081D02*
X162272Y265081D01*
X160916Y263725D01*
X160916Y261013D01*
X162272Y259658D01*
X166339Y259658D01*
X163628Y259658D02*
X160916Y256946D01*
X152917Y256946D02*
X152917Y265081D01*
X156984Y261013D01*
X151561Y261013D01*
M02*
