G04 EAGLE Gerber RS-274X export*
G75*
%MOMM*%
%FSLAX34Y34*%
%LPD*%
%INSoldermask Bottom*%
%IPPOS*%
%AMOC8*
5,1,8,0,0,1.08239X$1,22.5*%
G01*
%ADD10C,1.101600*%
%ADD11C,1.625600*%
%ADD12C,1.981200*%
%ADD13C,1.001600*%
%ADD14R,1.701600X1.901600*%
%ADD15C,2.032000*%
%ADD16R,1.981200X1.981200*%


D10*
X196500Y543500D03*
X196500Y524000D03*
D11*
X42826Y699435D02*
X42826Y714675D01*
X70766Y714675D02*
X70766Y699435D01*
D12*
X194541Y399870D03*
X63041Y399370D03*
X63041Y582870D03*
X195541Y582370D03*
D13*
X171500Y709000D03*
X201500Y709000D03*
D14*
X207000Y350500D03*
X179000Y350500D03*
D12*
X223500Y174500D03*
X223500Y199900D03*
X249000Y121500D03*
X249000Y146900D03*
X249000Y175000D03*
X249000Y200400D03*
D15*
X243700Y255800D03*
X243700Y281200D03*
X243700Y306600D03*
X243700Y332000D03*
X243700Y357400D03*
X243700Y382800D03*
X243700Y408200D03*
X243700Y433600D03*
X243700Y459000D03*
X243700Y484400D03*
X243700Y509800D03*
X243700Y535200D03*
X243700Y560600D03*
X243700Y586000D03*
X243700Y611400D03*
X243700Y636800D03*
X243700Y662200D03*
X243700Y687600D03*
X243700Y713000D03*
X17200Y255800D03*
X17200Y281200D03*
X17200Y306600D03*
X17200Y332000D03*
X17200Y357400D03*
X17200Y382800D03*
X17200Y408200D03*
X17200Y433600D03*
X17200Y459000D03*
X17200Y484400D03*
X17200Y509800D03*
X17200Y535200D03*
X17200Y560600D03*
X17200Y586000D03*
X17200Y611400D03*
X17200Y636800D03*
X17200Y662200D03*
X17200Y687600D03*
X17200Y713000D03*
D12*
X172500Y174500D03*
X172500Y199900D03*
X198000Y174500D03*
X198000Y199900D03*
D14*
X207500Y320000D03*
X179500Y320000D03*
X207500Y290000D03*
X179500Y290000D03*
X207500Y260000D03*
X179500Y260000D03*
D16*
X90500Y227500D03*
D12*
X115900Y227500D03*
X141300Y227500D03*
X166700Y227500D03*
X222500Y147000D03*
X222500Y121600D03*
X196000Y147000D03*
X196000Y121600D03*
X174000Y15500D03*
X174000Y40900D03*
X174000Y66300D03*
X174000Y91700D03*
X199400Y15500D03*
X199400Y40900D03*
X199400Y66300D03*
X199400Y91700D03*
X224800Y15500D03*
X224800Y40900D03*
X224800Y66300D03*
X224800Y91700D03*
X250200Y15500D03*
X250200Y40900D03*
X250200Y66300D03*
X250200Y91700D03*
X15000Y20000D03*
X15000Y45400D03*
X15000Y70800D03*
X15000Y96200D03*
X15000Y121600D03*
X15000Y147000D03*
X15000Y172400D03*
X15000Y197800D03*
X60500Y16000D03*
X60500Y41400D03*
X60500Y66800D03*
X60500Y92200D03*
X85900Y16000D03*
X85900Y41400D03*
X85900Y66800D03*
X85900Y92200D03*
X111500Y16000D03*
X111500Y41400D03*
X111500Y66800D03*
X111500Y92200D03*
X138500Y16000D03*
X138500Y41400D03*
X138500Y66800D03*
X138500Y92200D03*
M02*
